<svg xmlns="http://www.w3.org/2000/svg" width="46" height="6"><path d="M.798 5.82V.729h.922v4.318h2.242v.773H.798zm3.965 0V.729h3.311v.773H5.685v1.382h2.217v.773H5.685v1.39h2.409v.773H4.762zm4.906 0h-.984L10.476.729h1.138l1.795 5.091h-.984l-1.36-4.047h-.04L9.668 5.82zM9.7 3.824h2.685v.741H9.7v-.741zM14.08 5.82V.729h1.909c.391 0 .719.068.984.204a1.39 1.39 0 0 1 .604.572c.138.244.206.528.206.853s-.07.61-.209.85-.341.423-.609.554-.598.194-.989.194h0-1.36V3.19h1.235c.229 0 .416-.031.562-.094s.253-.158.323-.281.107-.277.107-.457-.036-.335-.107-.462a.68.68 0 0 0-.326-.293c-.146-.068-.334-.102-.564-.102h0-.845v4.32h-.922zm2.63-2.307l1.26 2.307h-1.029l-1.238-2.307h1.007zM22.816.729V5.82h-.82l-2.399-3.468h-.042V5.82h-.922V.729h.825l2.396 3.47h.045V.729h.917zm2.741 0h1.128l1.511 3.689h.06L29.768.729h1.129V5.82h-.885V2.322h-.047l-1.407 3.483h-.661l-1.407-3.49h-.047V5.82h-.885V.729zM36.45 3.275c0 .549-.103 1.018-.308 1.409s-.482.688-.835.895a2.31 2.31 0 0 1-1.196.311c-.446 0-.845-.104-1.198-.311s-.63-.508-.835-.897-.306-.86-.306-1.407.102-1.018.306-1.407a2.2 2.2 0 0 1 .835-.897c.353-.207.752-.311 1.198-.311a2.31 2.31 0 0 1 1.196.311 2.18 2.18 0 0 1 .835.897c.206.389.308.858.308 1.407zm-.927 0c0-.386-.06-.712-.181-.977s-.285-.468-.497-.604-.457-.206-.733-.206-.521.069-.733.206a1.36 1.36 0 0 0-.5.604c-.119.265-.179.591-.179.977s.06.713.179.979.288.466.5.604a1.33 1.33 0 0 0 .733.204 1.33 1.33 0 0 0 .733-.204c.212-.138.378-.339.497-.604s.181-.593.181-.979zm1.799 2.545V.729h1.909c.391 0 .719.068.984.204s.468.326.604.572.206.528.206.853-.07.61-.209.85-.34.423-.609.554-.598.194-.989.194h0-1.36V3.19h1.236c.229 0 .416-.031.562-.094s.254-.158.323-.281.107-.277.107-.457-.036-.335-.107-.462a.68.68 0 0 0-.326-.293c-.146-.068-.334-.102-.564-.102h0-.845v4.32h-.922zm2.63-2.307l1.26 2.307h-1.029l-1.238-2.307h1.007zm1.923 2.307V.729h3.311v.773h-2.389v1.382h2.217v.773h-2.217v1.39h2.409v.773h-3.331z" fill="#fff"/></svg>