<svg xmlns="http://www.w3.org/2000/svg" width="42" height="11"><path d="M32.221 2.13c.331.453.579.98.744 1.579s.248 1.241.248 1.923h0l-.015 1.177h-6.026c.023.65.207 1.177.545 1.579.361.43.984.646 1.698.646.549 0 1.033-.124 1.383-.375s.654-.568.928-.957h0l1.176 1.461c-.364.568-.856 1.016-1.491 1.337s-1.401.485-2.231.485c-.657 0-1.289-.124-1.807-.371s-.951-.591-1.311-1.039-.631-.989-.826-1.625-.289-1.355-.289-2.147c0-.783.094-1.488.282-2.12s.458-1.167.808-1.616.785-.792 1.296-1.039 1.134-.371 1.781-.371c.695 0 1.337.133 1.844.398a3.51 3.51 0 0 1 1.266 1.076zm-5.049 2.697h3.948.008v-.05a2.07 2.07 0 0 0-.515-1.474c-.342-.43-.883-.673-1.465-.673s-1.123.243-1.465.673-.511.792-.511 1.474h0v.05zM12.762.889l-1.228 4.899c-.162.641-.289 1.291-.383 1.95h0v.009h-.038c-.023-.254-.072-.508-.117-.743l-.056-.3h0L9.588.889H6.827l-1.341 5.81-.055.3-.117.743h0-.038v-.009c-.094-.659-.222-1.309-.383-1.95h0L3.667.889H1.71l.575 2.303H.2V4.84h2.494l.409 1.639H.2v1.653h3.313l.654 2.642h2.337l1.582-6.927c.053-.256.098-.536.109-.733h0 .038c.011.192.056.476.105.733h0l1.582 6.927h2.34l2.46-9.884h-1.957zm5.169 0H15.85v9.884h2.081V.889zm1.585 9.884V.889h5.083v1.959h-3.171v7.925h-1.912zm16.672-5.032l-3.047 5.032h2.326l1.882-3.425h.071l1.886 3.42H41.8l-3.046-4.99 3.013-4.89h-2.325l-1.815 3.26h-.071L35.718.889h-2.494l2.964 4.853z" fill="#fff"/></svg>