<svg xmlns="http://www.w3.org/2000/svg" width="141" height="28"><path d="M1.533 10.24V.785h6.149v1.436H3.246v2.567h4.118v1.436H3.246v2.581h4.473v1.436H1.533zm9.189-7.091l1.431 2.618 1.454-2.618h1.768l-2.137 3.545 2.174 3.545h-1.759l-1.5-2.553-1.487 2.553H8.894l2.16-3.545-2.105-3.545h1.773zm5.946 9.75v-9.75h1.643v1.173h.097a3.07 3.07 0 0 1 .365-.549c.157-.197.369-.365.637-.503s.609-.212 1.025-.212c.548 0 1.042.14 1.482.42s.794.688 1.053 1.233.392 1.206.392 1.994c0 .779-.128 1.44-.383 1.985s-.603.96-1.043 1.246-.939.429-1.496.429c-.406 0-.743-.068-1.011-.203s-.483-.299-.646-.489-.285-.377-.374-.549h0-.069v3.776h-1.671zm1.639-6.205c0 .459.065.86.194 1.205s.322.614.568.808.551.286.905.286c.369 0 .679-.098.928-.295s.437-.472.563-.817.194-.743.194-1.186a3.37 3.37 0 0 0-.189-1.173c-.126-.342-.314-.609-.563-.803s-.56-.291-.932-.291c-.357 0-.66.094-.91.282s-.439.451-.568.789-.189.737-.189 1.196zm9.625 3.684c-.711 0-1.325-.148-1.842-.443a3 3 0 0 1-1.186-1.265c-.277-.548-.416-1.193-.416-1.934 0-.729.139-1.37.416-1.92s.671-.985 1.172-1.293 1.091-.466 1.768-.466a3.58 3.58 0 0 1 1.237.212c.391.139.735.354 1.034.646s.538.665.711 1.117.259.985.259 1.607h0v.512h-5.812V6.025h4.21c-.003-.32-.072-.605-.208-.854a1.51 1.51 0 0 0-.568-.596c-.24-.145-.52-.217-.84-.217-.342 0-.642.083-.9.249s-.46.379-.605.646a1.86 1.86 0 0 0-.217.873h0v.983c0 .412.075.766.226 1.062s.362.517.633.674.588.231.951.231c.243 0 .463-.034.66-.102s.368-.174.512-.309.254-.303.328-.503h0l1.56.175c-.098.412-.286.772-.563 1.08s-.625.542-1.053.711-.917.249-1.468.249zm4.567-.139V3.149h1.62v1.182h.074c.129-.409.351-.725.665-.946a1.83 1.83 0 0 1 1.085-.337l.309.014a2.08 2.08 0 0 1 .291.032h0v1.537c-.071-.025-.183-.046-.337-.065a3.1 3.1 0 0 0-.439-.032 1.69 1.69 0 0 0-.822.199c-.24.129-.429.309-.568.54s-.208.497-.208.799h0v4.169h-1.671zm5.154 0V3.149h1.671v7.091h-1.671zm.84-8.097c-.265 0-.492-.088-.683-.263s-.286-.392-.286-.642a.84.84 0 0 1 .286-.642c.191-.179.419-.268.683-.268s.495.089.683.268a.84.84 0 0 1 .286.642c0 .249-.095.463-.286.642s-.415.263-.683.263zm5.689 8.236c-.711 0-1.325-.148-1.842-.443a3 3 0 0 1-1.186-1.265c-.277-.548-.415-1.193-.415-1.934 0-.729.139-1.37.415-1.92s.671-.985 1.173-1.293 1.091-.466 1.768-.466a3.58 3.58 0 0 1 1.237.212c.391.139.736.354 1.034.646s.538.665.711 1.117.258.985.258 1.607h0v.512h-5.812V6.025h4.21c-.003-.32-.072-.605-.208-.854a1.51 1.51 0 0 0-.568-.596c-.24-.145-.52-.217-.84-.217-.342 0-.642.083-.9.249s-.46.379-.605.646a1.86 1.86 0 0 0-.217.873h0v.983c0 .412.075.766.226 1.062s.362.517.633.674.588.231.951.231c.243 0 .463-.034.66-.102s.368-.174.512-.309.254-.303.328-.503h0l1.56.175c-.099.412-.286.772-.563 1.08s-.625.542-1.053.711-.917.249-1.468.249zm6.238-4.293v4.155h-1.671V3.149h1.597v1.205h.083c.163-.397.423-.712.78-.946s.805-.351 1.334-.351c.489 0 .916.105 1.279.314s.649.512.849.909.303.879.3 1.445h0v4.515h-1.671V5.984c0-.474-.123-.845-.369-1.113s-.58-.402-1.011-.402c-.292 0-.552.065-.78.194s-.402.309-.531.549-.189.531-.189.873zm9.344 4.293c-.708 0-1.316-.155-1.824-.466s-.894-.74-1.168-1.288-.406-1.185-.406-1.902.139-1.356.416-1.907a3.1 3.1 0 0 1 1.173-1.293c.508-.311 1.108-.466 1.8-.466.575 0 1.085.106 1.528.319a2.61 2.61 0 0 1 1.066.891c.265.382.415.828.452 1.339h0-1.597c-.065-.342-.219-.626-.462-.854s-.562-.346-.965-.346c-.342 0-.642.092-.9.277s-.46.443-.605.785-.212.751-.212 1.228c0 .483.071.899.212 1.246s.34.611.596.799.562.277.91.277c.246 0 .466-.046.66-.139s.362-.232.494-.411a1.58 1.58 0 0 0 .272-.651h0 1.597c-.04.502-.188.946-.443 1.334s-.603.686-1.043.905-.957.323-1.551.323zm7.549 0c-.711 0-1.325-.148-1.842-.443a3 3 0 0 1-1.187-1.265c-.277-.548-.415-1.193-.415-1.934 0-.729.138-1.37.415-1.92s.671-.985 1.173-1.293 1.091-.466 1.768-.466a3.58 3.58 0 0 1 1.237.212c.391.139.736.354 1.034.646s.539.665.711 1.117.258.985.258 1.607h0v.512h-5.812V6.025h4.21c-.003-.32-.072-.605-.208-.854a1.51 1.51 0 0 0-.568-.596c-.24-.145-.52-.217-.84-.217-.342 0-.642.083-.9.249a1.72 1.72 0 0 0-.605.646 1.86 1.86 0 0 0-.217.873h0v.983c0 .412.076.766.226 1.062s.362.517.632.674.588.231.951.231c.243 0 .463-.034.66-.102s.368-.174.512-.309a1.29 1.29 0 0 0 .328-.503h0l1.56.175c-.099.412-.286.772-.563 1.08s-.625.542-1.053.711-.917.249-1.468.249z" fill="#00b15a"/><path d="M4.831 18.422v1.243H.911v-1.243h3.92zm-2.952-1.634h1.607v6.401c0 .216.033.382.098.497s.157.189.266.231a1.02 1.02 0 0 0 .364.062 1.57 1.57 0 0 0 .275-.022l.195-.04h0l.271 1.256a3.58 3.58 0 0 1-.368.098c-.157.035-.349.056-.577.062-.402.012-.765-.049-1.088-.182a1.69 1.69 0 0 1-.768-.63c-.186-.284-.278-.639-.275-1.065h0v-6.667zm6.049 4.457v3.995H6.321v-9.091h1.571v3.431h.08c.16-.385.407-.688.741-.91s.766-.337 1.287-.337c.473 0 .886.099 1.239.298s.624.488.817.87.293.848.293 1.398h0v4.341h-1.607v-4.093c0-.459-.118-.815-.355-1.07s-.562-.386-.985-.386c-.284 0-.539.062-.763.186s-.397.297-.524.528-.186.511-.186.839zm9.078 4.128c-.684 0-1.274-.142-1.771-.426s-.874-.692-1.141-1.216-.399-1.147-.399-1.86c0-.701.133-1.317.399-1.847a3.02 3.02 0 0 1 1.127-1.243c.482-.299 1.049-.448 1.7-.448a3.44 3.44 0 0 1 1.19.204 2.69 2.69 0 0 1 .994.622c.29.281.518.639.684 1.074s.248.947.248 1.545h0v.493h-5.589v-1.083h4.048c-.003-.308-.07-.582-.2-.821a1.45 1.45 0 0 0-.546-.573c-.231-.139-.5-.209-.808-.209-.329 0-.617.08-.866.24a1.65 1.65 0 0 0-.582.622c-.136.255-.206.534-.209.839h0v.945c0 .397.072.737.218 1.021s.348.497.608.648a1.82 1.82 0 0 0 .914.222c.234 0 .445-.033.635-.098s.354-.167.493-.297a1.24 1.24 0 0 0 .315-.484h0l1.5.169a2.34 2.34 0 0 1-.542 1.039c-.263.293-.601.521-1.012.684s-.882.24-1.412.24zm7.563-.133v-9.091h5.824v1.38h-4.177v2.468h3.778v1.381h-3.777v3.862h-1.647zm11.172-2.867v-3.951h1.607v6.818h-1.558v-1.212h-.071a2.05 2.05 0 0 1-.759.937c-.349.243-.78.364-1.292.364-.447 0-.842-.099-1.185-.297s-.607-.493-.799-.875-.288-.849-.288-1.394h0v-4.341h1.607v4.093c0 .432.118.775.355 1.03s.547.382.932.382c.237 0 .466-.058.688-.173a1.4 1.4 0 0 0 .546-.515c.145-.231.218-.519.218-.866zm6.664-3.951v1.243h-3.919v-1.243h3.919zm-2.952-1.634h1.607v6.401c0 .216.032.382.098.497s.157.189.266.231.231.062.364.062a1.57 1.57 0 0 0 .275-.022l.195-.04h0l.271 1.256c-.086.03-.209.062-.368.098s-.349.056-.577.062c-.402.012-.765-.049-1.087-.182a1.69 1.69 0 0 1-.768-.63c-.187-.284-.278-.639-.275-1.065h0v-6.667zm8.641 5.584v-3.951H49.7v6.818h-1.558v-1.212h-.071a2.05 2.05 0 0 1-.759.937c-.349.243-.78.364-1.292.364-.447 0-.842-.099-1.185-.297s-.607-.493-.799-.875-.289-.849-.289-1.394h0v-4.341h1.607v4.093c0 .432.118.775.355 1.03s.547.382.932.382c.237 0 .466-.058.688-.173a1.4 1.4 0 0 0 .546-.515c.145-.231.218-.519.218-.866zm3.259 2.867v-6.818h1.558v1.136h.071a1.7 1.7 0 0 1 .639-.91 1.76 1.76 0 0 1 1.043-.324l.297.013a2 2 0 0 1 .28.031h0v1.478c-.068-.024-.176-.044-.324-.062s-.286-.031-.422-.031c-.293 0-.556.064-.79.191s-.413.297-.546.519-.2.478-.2.768h0v4.008h-1.607zm7.694.133c-.684 0-1.274-.142-1.771-.426s-.874-.692-1.141-1.216-.4-1.147-.4-1.86c0-.701.133-1.317.4-1.847a3.02 3.02 0 0 1 1.127-1.243c.482-.299 1.049-.448 1.7-.448.42 0 .817.068 1.19.204a2.69 2.69 0 0 1 .994.622c.29.281.518.639.684 1.074s.249.947.249 1.545h0v.493H56.49v-1.083h4.048c-.003-.308-.069-.582-.2-.821a1.45 1.45 0 0 0-.546-.573c-.231-.139-.5-.209-.808-.209-.328 0-.617.08-.866.24s-.442.364-.581.622a1.79 1.79 0 0 0-.209.839h0v.945c0 .397.072.737.218 1.021s.348.497.608.648a1.82 1.82 0 0 0 .914.222c.234 0 .445-.033.635-.098s.354-.167.493-.297a1.24 1.24 0 0 0 .315-.484h0l1.5.169a2.34 2.34 0 0 1-.542 1.039c-.263.293-.601.521-1.012.684s-.882.24-1.411.24zm10.466 0c-.666 0-1.243-.146-1.731-.439s-.867-.703-1.136-1.23-.4-1.142-.4-1.847.133-1.321.4-1.851.648-.941 1.136-1.234 1.065-.44 1.731-.44 1.243.147 1.731.44.866.704 1.132 1.234.404 1.147.404 1.851-.135 1.32-.404 1.847-.644.937-1.132 1.23-1.065.439-1.731.439zm.009-1.287c.361 0 .663-.099.906-.297s.423-.47.542-.808.182-.713.182-1.127-.061-.795-.182-1.132-.299-.611-.542-.812a1.37 1.37 0 0 0-.906-.302c-.37 0-.678.101-.923.302s-.425.472-.546.812-.178.715-.178 1.132a3.39 3.39 0 0 0 .178 1.127c.121.337.303.607.546.808s.553.297.923.297zm8.076-5.664v1.243h-4.031v-1.243h4.031zm-3.023 6.818v-7.462c0-.459.095-.84.284-1.145a1.8 1.8 0 0 1 .772-.684c.322-.151.681-.226 1.074-.226.278 0 .525.022.741.066l.479.12h0l-.32 1.243c-.068-.021-.154-.041-.257-.062a1.56 1.56 0 0 0-.346-.035c-.299 0-.511.072-.635.217s-.182.346-.182.613h0v7.355h-1.611zm7.453 0v-9.091h3.409c.698 0 1.284.13 1.758.391s.836.619 1.079 1.074.368.968.368 1.545c0 .583-.123 1.101-.368 1.554s-.608.809-1.088 1.07-1.07.386-1.771.386h0-2.26v-1.354h2.037c.408 0 .743-.071 1.003-.213s.453-.337.577-.586.191-.534.191-.857-.064-.607-.191-.852-.318-.436-.582-.573-.596-.209-1.008-.209h0-1.509v7.715h-1.647zm9.813.138c-.432 0-.821-.077-1.167-.231s-.616-.388-.817-.692-.297-.681-.297-1.128c0-.385.071-.703.213-.954s.336-.453.581-.604a2.93 2.93 0 0 1 .83-.342 6.75 6.75 0 0 1 .963-.173l.972-.111c.249-.036.429-.089.542-.16s.173-.188.173-.342h0v-.027c0-.334-.099-.593-.297-.777s-.484-.275-.857-.275c-.394 0-.706.086-.937.258s-.382.374-.462.608h0l-1.5-.213c.118-.414.314-.761.586-1.039a2.55 2.55 0 0 1 .999-.63c.394-.142.829-.213 1.305-.213a4.25 4.25 0 0 1 .981.116 2.76 2.76 0 0 1 .892.382c.269.175.485.413.648.715s.249.679.249 1.132h0v4.563h-1.545v-.937h-.053c-.098.189-.235.367-.413.533s-.395.294-.661.395-.573.146-.928.146zm.417-1.181c.322 0 .602-.064.839-.191a1.41 1.41 0 0 0 .546-.515 1.31 1.31 0 0 0 .195-.697h0v-.803c-.05.041-.136.08-.257.115s-.252.067-.4.093l-.439.071-.377.053a2.81 2.81 0 0 0-.644.16 1.07 1.07 0 0 0-.448.311c-.109.13-.164.299-.164.506 0 .296.108.519.324.67s.491.226.826.226zm5.553 3.6c-.219 0-.422-.018-.608-.053s-.33-.071-.439-.116h0l.373-1.252c.234.068.442.101.626.098s.345-.061.484-.173.262-.293.359-.55h0l.138-.368-2.472-6.96h1.705l1.571 5.149h.071l1.576-5.149h1.709l-2.73 7.644c-.127.361-.296.67-.506.928s-.467.459-.772.595-.663.209-1.083.209zm6.204-2.557v-6.818h1.536v1.159h.08a1.81 1.81 0 0 1 .705-.914c.329-.222.721-.333 1.177-.333s.851.113 1.167.337a1.76 1.76 0 0 1 .675.91h0 .071c.151-.379.405-.681.763-.906s.789-.342 1.283-.342c.628 0 1.14.198 1.536.595s.595.975.595 1.736h0v4.576h-1.611v-4.328c0-.423-.113-.732-.338-.928s-.5-.297-.825-.297c-.388 0-.691.121-.91.364s-.324.552-.324.937h0v4.252h-1.576v-4.394c0-.352-.107-.633-.32-.843s-.485-.315-.825-.315a1.17 1.17 0 0 0-.631.178c-.189.115-.34.28-.453.493s-.168.456-.168.737h0v4.146h-1.607zm14.237.133c-.684 0-1.274-.142-1.772-.426s-.874-.692-1.14-1.216-.4-1.147-.4-1.86c0-.701.133-1.317.4-1.847a3.02 3.02 0 0 1 1.127-1.243c.482-.299 1.049-.448 1.7-.448.42 0 .817.068 1.19.204s.707.34.994.622.518.639.684 1.074.248.947.248 1.545h0v.493h-5.588v-1.083h4.048a1.72 1.72 0 0 0-.2-.821 1.45 1.45 0 0 0-.546-.573c-.231-.139-.5-.209-.808-.209-.328 0-.617.08-.865.24a1.65 1.65 0 0 0-.582.622 1.79 1.79 0 0 0-.208.839h0v.945c0 .397.072.737.217 1.021s.348.497.608.648.566.222.915.222c.234 0 .445-.033.635-.098s.353-.167.492-.297a1.24 1.24 0 0 0 .315-.484h0l1.501.169c-.095.396-.275.743-.542 1.039a2.64 2.64 0 0 1-1.012.684c-.411.16-.882.24-1.411.24zm5.998-4.128v3.995h-1.607v-6.818h1.536v1.159h.08a1.94 1.94 0 0 1 .75-.91c.346-.225.774-.337 1.283-.337.47 0 .88.101 1.229.302s.625.493.817.875.291.845.288 1.389h0v4.341h-1.606v-4.093c0-.456-.119-.812-.356-1.07s-.557-.386-.972-.386c-.281 0-.531.062-.75.186a1.29 1.29 0 0 0-.51.528c-.122.231-.182.511-.182.839zm9.415-2.823v1.243h-3.92v-1.243h3.92zm-2.952-1.634h1.607v6.401c0 .216.032.382.097.497s.157.189.267.231.23.062.364.062c.1 0 .192-.007.275-.022l.195-.04h0l.271 1.256c-.086.03-.209.062-.369.098s-.349.056-.577.062c-.402.012-.765-.049-1.087-.182s-.579-.346-.768-.63-.278-.639-.275-1.065h0v-6.667zm9.587 3.436l-1.465.16a1.18 1.18 0 0 0-.218-.417 1.07 1.07 0 0 0-.408-.315c-.172-.08-.382-.12-.63-.12-.335 0-.616.072-.844.217s-.336.333-.333.564a.59.59 0 0 0 .218.484c.151.124.399.226.746.306h0l1.163.249c.645.139 1.124.36 1.438.661s.476.697.479 1.185c-.003.429-.129.808-.377 1.136s-.588.58-1.026.764-.941.275-1.509.275c-.834 0-1.506-.175-2.015-.524s-.812-.842-.91-1.469h0l1.567-.151c.071.308.222.54.453.697s.531.235.901.235c.382 0 .688-.078.919-.235s.35-.351.35-.582c0-.195-.075-.357-.226-.484s-.379-.225-.693-.293h0l-1.163-.244c-.654-.136-1.137-.365-1.451-.688s-.469-.737-.466-1.234c-.003-.42.111-.784.342-1.092s.557-.55.972-.719.898-.258 1.442-.258c.799 0 1.428.17 1.887.511s.747.8.857 1.381z" fill="#fff"/></svg>