<svg xmlns="http://www.w3.org/2000/svg" width="133" height="14"><path d="M.887 1.025h1.934l2.313 4.183h.092l2.313-4.183h1.934L6.034 6.953v3.527H4.326V6.953L.887 1.025zm11.498 9.593c-.692 0-1.293-.152-1.8-.457s-.902-.731-1.182-1.279-.415-1.188-.415-1.92.138-1.374.415-1.925.674-.979 1.182-1.283 1.108-.457 1.8-.457 1.293.152 1.8.457.9.732 1.177 1.283.42 1.193.42 1.925-.14 1.373-.42 1.92-.669.974-1.177 1.279-1.108.457-1.8.457zm.009-1.339c.375 0 .689-.103.942-.309s.44-.489.563-.84.189-.742.189-1.173a3.46 3.46 0 0 0-.189-1.177c-.123-.354-.311-.636-.563-.845s-.566-.314-.942-.314c-.385 0-.705.105-.96.314s-.442.491-.568.845-.185.743-.185 1.177.062.822.185 1.173.316.631.568.84.576.309.96.309zm9.326-1.782V3.389h1.671v7.091h-1.62V9.22h-.074c-.16.397-.423.722-.789.974s-.811.379-1.343.379c-.465 0-.876-.103-1.233-.309a2.15 2.15 0 0 1-.831-.909c-.2-.4-.3-.883-.3-1.45h0V3.389h1.671v4.256c0 .449.123.806.369 1.071s.569.397.97.397c.246 0 .485-.06.716-.18s.42-.299.568-.536.226-.54.226-.9zm3.39 2.982V3.389h1.62v1.182h.074c.129-.409.351-.725.665-.946a1.83 1.83 0 0 1 1.085-.337l.309.014c.117.006.214.017.291.032h0v1.537c-.071-.025-.183-.046-.337-.065a3.1 3.1 0 0 0-.439-.032 1.69 1.69 0 0 0-.822.199c-.24.129-.429.309-.568.54s-.208.497-.208.799h0v4.169H25.11zm8.037-8.019V1.025h7.543v1.436h-2.922v8.019H36.07V2.461h-2.922zm8.924 8.019V3.389h1.671v7.091h-1.671zm.84-8.097c-.265 0-.492-.088-.683-.263s-.286-.392-.286-.642a.84.84 0 0 1 .286-.642c.191-.179.419-.268.683-.268s.495.089.683.268a.84.84 0 0 1 .286.642c0 .249-.095.463-.286.642s-.416.263-.683.263zm5.643 8.236c-.708 0-1.316-.155-1.824-.466s-.894-.74-1.168-1.288-.406-1.185-.406-1.902.139-1.356.416-1.907a3.1 3.1 0 0 1 1.173-1.293c.508-.311 1.108-.466 1.8-.466.576 0 1.085.106 1.528.319a2.61 2.61 0 0 1 1.066.891c.265.382.415.828.452 1.339h0-1.597c-.065-.342-.219-.626-.462-.854s-.562-.346-.965-.346c-.342 0-.642.092-.9.277s-.46.443-.605.785-.212.751-.212 1.228c0 .483.071.899.212 1.246s.34.611.596.799.562.277.909.277c.246 0 .466-.046.66-.138s.362-.232.494-.411.223-.395.272-.651h0 1.597c-.04.502-.188.946-.443 1.334s-.603.686-1.043.905-.957.323-1.551.323zm5.933-2.364l-.005-2.017h.268l2.548-2.848h1.953l-3.135 3.49h-.346l-1.283 1.376zm-1.523 2.225V1.025h1.671v9.455h-1.671zm4.45 0l-2.308-3.227 1.126-1.177 3.181 4.404h-1.999zm5.798.138c-.711 0-1.325-.148-1.842-.443a3 3 0 0 1-1.187-1.265c-.277-.548-.415-1.193-.415-1.934 0-.729.138-1.37.415-1.92s.671-.985 1.173-1.293 1.091-.466 1.768-.466a3.58 3.58 0 0 1 1.237.212c.391.138.736.354 1.034.646s.539.665.711 1.117.258.985.258 1.607h0v.512h-5.812V6.265h4.21c-.003-.32-.072-.605-.208-.854a1.51 1.51 0 0 0-.568-.596c-.24-.145-.52-.217-.84-.217-.342 0-.642.083-.9.249a1.72 1.72 0 0 0-.605.646 1.86 1.86 0 0 0-.217.873h0v.983c0 .412.075.766.226 1.062s.362.517.632.674.588.231.951.231c.243 0 .463-.034.66-.102s.368-.174.512-.309.254-.303.328-.503h0l1.56.175a2.43 2.43 0 0 1-.563 1.08c-.274.305-.625.542-1.053.711s-.917.249-1.468.249zm8.108-7.229v1.293h-4.076V3.389h4.076zM68.25 1.69h1.671v6.657c0 .225.034.397.102.517s.163.197.277.24a1.06 1.06 0 0 0 .379.065c.105 0 .2-.008.286-.023l.203-.042h0l.282 1.306a3.75 3.75 0 0 1-.383.101c-.163.037-.363.059-.6.065-.419.012-.796-.051-1.131-.189a1.76 1.76 0 0 1-.799-.656c-.194-.295-.289-.665-.286-1.108h0V1.69zm11.233 1.699v1.293h-4.076V3.389h4.076zm-3.07-1.699h1.671v6.657c0 .225.034.397.102.517s.163.197.277.24a1.06 1.06 0 0 0 .379.065 1.63 1.63 0 0 0 .286-.023l.203-.042h0l.282 1.306a3.75 3.75 0 0 1-.383.101c-.163.037-.363.059-.6.065-.419.012-.796-.051-1.131-.189a1.76 1.76 0 0 1-.799-.656c-.194-.295-.289-.665-.286-1.108h0V1.69zm7.484 8.928c-.692 0-1.293-.152-1.8-.457s-.902-.731-1.182-1.279-.415-1.188-.415-1.92.138-1.374.415-1.925.674-.979 1.182-1.283 1.108-.457 1.8-.457 1.293.152 1.8.457.9.732 1.177 1.283.42 1.193.42 1.925-.14 1.373-.42 1.92a3.07 3.07 0 0 1-1.177 1.279c-.508.305-1.108.457-1.8.457zm.009-1.339c.375 0 .689-.103.942-.309s.44-.489.563-.84.189-.742.189-1.173a3.46 3.46 0 0 0-.189-1.177c-.123-.354-.311-.636-.563-.845s-.566-.314-.942-.314c-.385 0-.705.105-.96.314s-.442.491-.568.845-.185.743-.185 1.177.062.822.185 1.173.316.631.568.84.575.309.96.309zm13.243-5.655a1.26 1.26 0 0 0-.545-.942c-.317-.225-.729-.337-1.237-.337-.357 0-.663.054-.919.162s-.451.254-.586.439-.205.395-.208.632c0 .197.045.368.134.512s.217.268.374.369.331.182.522.249.383.125.577.171h0l.886.222c.357.083.7.195 1.029.337a3.63 3.63 0 0 1 .891.536c.265.215.474.476.628.78s.231.662.231 1.071c0 .554-.142 1.042-.425 1.463s-.693.746-1.228.983-1.177.351-1.934.351c-.736 0-1.374-.114-1.916-.342s-.96-.56-1.265-.997-.465-.969-.489-1.597h0 1.685c.025.329.126.603.305.822s.411.382.697.489.612.162.969.162a2.65 2.65 0 0 0 .979-.166c.283-.114.505-.271.665-.471s.242-.44.245-.711c-.003-.246-.075-.449-.217-.609s-.34-.299-.595-.406a5.74 5.74 0 0 0-.886-.295h0l-1.076-.277c-.779-.2-1.394-.503-1.847-.909s-.674-.953-.674-1.63c0-.557.151-1.045.452-1.463s.719-.743 1.242-.974S94.73.896 95.392.896c.671 0 1.259.117 1.764.351s.906.552 1.196.965.438.88.448 1.413h0-1.648zm5.271 6.999c-.449 0-.854-.08-1.214-.24a1.98 1.98 0 0 1-.849-.72c-.206-.317-.31-.708-.31-1.173 0-.4.074-.731.222-.993s.349-.471.605-.628.543-.275.863-.355.657-.143 1.002-.18l1.011-.115c.258-.037.446-.092.563-.166s.18-.195.18-.355h0V5.67c0-.348-.103-.617-.309-.808s-.503-.286-.891-.286c-.409 0-.734.089-.974.268s-.397.389-.48.632h0l-1.561-.222c.123-.431.327-.791.61-1.08a2.65 2.65 0 0 1 1.038-.656c.41-.148.862-.222 1.358-.222.341 0 .681.04 1.02.12s.648.212.928.397.505.429.674.743.258.706.258 1.177h0v4.746h-1.606v-.974h-.056a2.02 2.02 0 0 1-.429.554 2.07 2.07 0 0 1-.688.411c-.274.101-.595.152-.965.152zm.434-1.228c.336 0 .627-.066.873-.199s.435-.314.568-.536.203-.463.203-.725h0v-.836c-.053.043-.142.083-.268.12a3.82 3.82 0 0 1-.415.097l-.458.074-.392.055a2.92 2.92 0 0 0-.669.166c-.197.077-.353.185-.467.323s-.17.311-.17.526c0 .308.112.54.337.697s.511.235.858.235zm11.071-6.006L111.4 10.48h-1.846l-2.525-7.091h1.782l1.629 5.267h.074l1.634-5.267h1.778zm1.156 7.091V3.389h1.671v7.091h-1.671zm.84-8.097c-.264 0-.492-.088-.683-.263s-.286-.392-.286-.642.095-.466.286-.642.419-.268.683-.268.496.089.683.268a.84.84 0 0 1 .287.642c0 .249-.096.463-.287.642a.96.96 0 0 1-.683.263zm4.221 3.942v4.155h-1.671V3.389h1.597v1.205h.083c.163-.397.423-.712.78-.946s.805-.351 1.334-.351c.49 0 .916.105 1.279.314s.65.512.85.909.303.879.3 1.445h0v4.515h-1.671V6.224c0-.474-.124-.845-.37-1.113s-.58-.402-1.011-.402c-.292 0-.552.065-.78.194a1.34 1.34 0 0 0-.531.549c-.126.24-.189.531-.189.873zm9.334 6.962c-.6 0-1.115-.082-1.546-.245s-.777-.375-1.039-.646a2.25 2.25 0 0 1-.545-.9h0l1.505-.365c.068.138.167.275.296.411a1.45 1.45 0 0 0 .521.342c.222.092.501.139.836.139.474 0 .866-.115 1.177-.346s.467-.603.467-1.126h0V9.206h-.084a2.37 2.37 0 0 1-.378.531c-.163.182-.38.334-.651.457s-.605.185-1.011.185c-.545 0-1.039-.128-1.482-.383s-.791-.643-1.053-1.154-.387-1.157-.387-1.93c0-.779.129-1.436.387-1.971s.614-.946 1.058-1.223.937-.42 1.482-.42c.415 0 .757.071 1.024.212s.487.306.647.503.281.377.364.549h0 .093V3.389h1.648v7.206c0 .606-.145 1.108-.434 1.505s-.685.694-1.187.891-1.071.295-1.708.295zm.014-4.219c.354 0 .656-.086.905-.259s.439-.42.568-.743.194-.711.194-1.163c0-.446-.065-.837-.194-1.173s-.314-.596-.563-.78-.55-.282-.91-.282c-.372 0-.683.097-.932.291s-.437.46-.564.799a3.24 3.24 0 0 0-.189 1.145c0 .434.063.814.189 1.14a1.69 1.69 0 0 0 .568.757c.253.179.562.268.928.268z" fill="#fff"/></svg>