<svg xmlns="http://www.w3.org/2000/svg" width="107" height="12"><path d="M3.046 9.08l-2.219-8h1.27l1.559 6.195h.074L5.35 1.08h1.258l1.621 6.199h.074L9.858 1.08h1.273l-2.223 8H7.694L6.01 3.088h-.062L4.264 9.08H3.046zm11.029.121c-.562 0-1.053-.129-1.473-.387s-.745-.618-.977-1.082-.348-1.005-.348-1.625.116-1.167.348-1.633.557-.828.977-1.086.91-.387 1.473-.387 1.053.129 1.473.387.745.62.977 1.086.348 1.01.348 1.633-.116 1.161-.348 1.625-.557.824-.977 1.082-.91.387-1.473.387zm.004-.98c.365 0 .667-.096.906-.289s.417-.449.531-.77a3.06 3.06 0 0 0 .176-1.059c0-.383-.059-.734-.176-1.055s-.292-.582-.531-.777-.542-.293-.906-.293-.672.098-.914.293-.418.454-.535.777a3.11 3.11 0 0 0-.172 1.055c0 .385.057.738.172 1.059a1.72 1.72 0 0 0 .535.77c.242.193.547.289.914.289zm4.097.859v-6h1.129v.953h.063a1.45 1.45 0 0 1 .578-.762c.279-.187.594-.281.945-.281l.258.008.238.02h0v1.117a2.09 2.09 0 0 0-.25-.043c-.12-.018-.239-.027-.359-.027-.276 0-.522.059-.738.176s-.383.275-.508.48a1.3 1.3 0 0 0-.187.695h0V9.08h-1.168zm6.253.117c-.484 0-.917-.124-1.297-.371s-.674-.605-.891-1.066-.32-1.02-.32-1.668.108-1.203.324-1.664.518-.814.898-1.059.811-.367 1.293-.367c.372 0 .672.063.899.188s.406.266.531.43.227.309.297.434h0 .07V1.08h1.168v8h-1.141v-.934h-.098a3.09 3.09 0 0 1-.305.438c-.13.164-.31.307-.539.43s-.526.184-.891.184zm.258-.996c.336 0 .62-.089.852-.266s.412-.428.531-.746.184-.687.184-1.109c0-.417-.06-.781-.18-1.094s-.296-.556-.527-.73-.518-.262-.859-.262c-.351 0-.645.091-.879.273s-.411.431-.531.746-.176.671-.176 1.066c0 .401.06.762.18 1.082s.297.574.531.762.529.277.875.277zm14.031-4.52h-1.219c-.047-.26-.134-.49-.262-.687s-.284-.366-.469-.504a2.02 2.02 0 0 0-.621-.312c-.227-.07-.468-.105-.723-.105-.461 0-.874.116-1.238.348s-.648.572-.859 1.02-.312.995-.312 1.641c0 .651.104 1.201.313 1.648s.499.786.863 1.016.775.344 1.23.344c.253 0 .492-.034.719-.102a2.07 2.07 0 0 0 .621-.309 1.89 1.89 0 0 0 .469-.496 1.87 1.87 0 0 0 .27-.68h0l1.219.004c-.065.393-.191.755-.379 1.086s-.423.612-.715.852a3.23 3.23 0 0 1-.992.551 3.67 3.67 0 0 1-1.219.195c-.693 0-1.31-.164-1.852-.492s-.969-.803-1.281-1.418-.465-1.348-.465-2.199.156-1.587.469-2.199.74-1.086 1.281-1.414 1.158-.496 1.848-.496c.425 0 .82.061 1.188.184s.702.297.996.531a2.92 2.92 0 0 1 .73.852c.193.333.323.715.391 1.145zm2.519-2.602v8h-1.168v-8h1.168zm3.317 8.133a2.45 2.45 0 0 1-1.031-.211c-.307-.143-.551-.35-.73-.621s-.266-.603-.266-.996c0-.339.065-.617.195-.836a1.44 1.44 0 0 1 .527-.52c.221-.128.469-.224.742-.289a7.38 7.38 0 0 1 .836-.148l.875-.102c.224-.029.387-.074.488-.137s.152-.164.152-.305h0v-.027c0-.341-.096-.605-.289-.793s-.474-.281-.852-.281c-.393 0-.703.087-.93.262a1.4 1.4 0 0 0-.465.574h0l-1.098-.25c.13-.365.32-.659.57-.883s.543-.391.871-.492a3.4 3.4 0 0 1 1.035-.156c.24 0 .493.029.762.086a2.23 2.23 0 0 1 .758.305c.237.148.431.361.582.637s.227.629.227 1.066h0V9.08h-1.141v-.82h-.047a1.66 1.66 0 0 1-.34.445c-.151.146-.345.267-.582.363s-.521.145-.852.145zm.254-.937c.323 0 .599-.064.828-.191a1.34 1.34 0 0 0 .527-.5c.122-.208.184-.431.184-.668h0v-.773c-.042.042-.122.081-.242.117a3.77 3.77 0 0 1-.402.09l-.441.066-.359.047c-.227.029-.434.077-.621.145s-.333.165-.445.293-.164.292-.164.5c0 .289.107.508.32.656s.486.219.816.219zm8.759-3.73l-1.059.188a1.25 1.25 0 0 0-.211-.387c-.094-.122-.221-.223-.383-.301s-.363-.117-.605-.117c-.331 0-.607.074-.828.223s-.332.335-.332.566c0 .201.074.362.223.484s.388.223.719.301h0l.953.219c.552.128.963.324 1.234.59s.406.611.406 1.035a1.57 1.57 0 0 1-.312.961c-.206.279-.494.497-.863.656s-.793.238-1.277.238c-.672 0-1.22-.143-1.645-.43s-.685-.699-.781-1.23h0l1.129-.172a1.08 1.08 0 0 0 .434.668c.219.148.504.223.855.223.383 0 .689-.079.918-.238s.344-.358.344-.59c0-.187-.07-.345-.211-.473s-.35-.224-.637-.289h0l-1.016-.223c-.56-.128-.974-.331-1.242-.609s-.398-.632-.398-1.059c0-.354.099-.664.297-.93s.471-.473.82-.621.749-.227 1.199-.227c.648 0 1.159.141 1.531.422s.618.652.738 1.121zm5.898 0l-1.059.188c-.044-.135-.115-.264-.211-.387s-.221-.223-.383-.301-.363-.117-.605-.117c-.331 0-.607.074-.828.223s-.332.335-.332.566c0 .201.074.362.223.484s.388.223.719.301h0l.953.219c.552.128.964.324 1.234.59s.406.611.406 1.035c0 .359-.104.68-.312.961s-.494.497-.863.656-.793.238-1.277.238c-.672 0-1.22-.143-1.645-.43s-.685-.699-.781-1.23h0l1.129-.172a1.08 1.08 0 0 0 .434.668c.219.148.504.223.855.223.383 0 .689-.079.918-.238s.344-.358.344-.59c0-.187-.07-.345-.211-.473s-.35-.224-.637-.289h0l-1.016-.223c-.56-.128-.974-.331-1.242-.609s-.398-.632-.398-1.059c0-.354.099-.664.297-.93s.471-.473.82-.621.749-.227 1.199-.227c.648 0 1.159.141 1.531.422s.619.652.738 1.121zm8.769-1.363a1.14 1.14 0 0 0-.516-.859c-.302-.206-.682-.309-1.141-.309-.328 0-.612.052-.852.156a1.31 1.31 0 0 0-.559.422c-.13.177-.195.379-.195.605 0 .19.044.354.133.492s.21.254.355.348.307.168.477.23l.488.148h0l.781.203c.255.063.517.147.785.254s.517.247.746.422a2.02 2.02 0 0 1 .555.648c.143.258.215.566.215.926 0 .453-.117.855-.352 1.207s-.569.629-1.012.832-.973.305-1.598.305c-.599 0-1.117-.095-1.555-.285s-.78-.46-1.027-.809-.384-.768-.41-1.25h0 1.211c.023.289.117.53.281.723a1.52 1.52 0 0 0 .637.426c.261.091.546.137.856.137.341 0 .644-.053.91-.16s.479-.26.633-.453.23-.423.23-.684c0-.237-.068-.431-.203-.582a1.5 1.5 0 0 0-.543-.375 5.31 5.31 0 0 0-.77-.262h0l-.945-.258c-.641-.174-1.148-.431-1.523-.77s-.559-.786-.559-1.344c0-.461.125-.863.375-1.207s.589-.611 1.016-.801.909-.289 1.445-.289c.542 0 1.019.095 1.434.285s.745.452.984.785a1.98 1.98 0 0 1 .375 1.141h0-1.164zm5.208 6.02c-.591 0-1.1-.126-1.527-.379a2.57 2.57 0 0 1-.984-1.074c-.229-.464-.344-1.007-.344-1.629 0-.615.114-1.156.344-1.625a2.67 2.67 0 0 1 .969-1.098c.417-.263.904-.395 1.461-.395a2.94 2.94 0 0 1 .984.168c.318.112.603.288.855.527s.452.551.598.934.219.842.219 1.387h0v.414h-4.77v-.875h3.625c0-.307-.062-.579-.187-.816a1.42 1.42 0 0 0-.527-.566c-.224-.138-.487-.207-.789-.207-.328 0-.615.081-.859.242s-.43.367-.562.625-.195.533-.195.832h0v.684c0 .401.07.742.211 1.023s.342.496.598.645.553.219.895.219c.221 0 .423-.031.605-.094s.34-.161.473-.289.234-.285.305-.473h0l1.105.199a2 2 0 0 1-.477.855 2.31 2.31 0 0 1-.856.566c-.341.133-.73.199-1.168.199zm6.397 0c-.581 0-1.081-.132-1.5-.395a2.61 2.61 0 0 1-.961-1.098c-.224-.466-.336-1-.336-1.602 0-.609.115-1.147.344-1.613s.552-.835.969-1.098.908-.395 1.473-.395a2.81 2.81 0 0 1 1.219.254c.357.167.645.401.863.703s.353.655.394 1.059h0-1.137a1.36 1.36 0 0 0-.43-.727c-.221-.203-.518-.305-.891-.305a1.45 1.45 0 0 0-.856.258c-.242.169-.431.411-.566.727s-.203.682-.203 1.109c0 .438.066.815.199 1.133s.32.564.563.738.533.262.863.262a1.45 1.45 0 0 0 .602-.121 1.23 1.23 0 0 0 .457-.355c.125-.154.212-.339.262-.555h0 1.137c-.042.388-.168.734-.379 1.039a2.18 2.18 0 0 1-.848.719c-.352.174-.764.262-1.238.262zm7.515-2.609V3.08h1.172v6h-1.148V8.041h-.062c-.138.32-.359.587-.664.801s-.678.316-1.129.316c-.385 0-.727-.085-1.023-.254s-.526-.426-.695-.762-.25-.751-.25-1.246h0V3.08h1.168v3.676c0 .409.113.734.34.977s.521.363.883.363c.219 0 .436-.055.652-.164s.4-.275.543-.496.217-.503.215-.844zm2.741 2.488v-6h1.129v.953h.063a1.45 1.45 0 0 1 .578-.762c.279-.187.594-.281.945-.281l.258.008.238.02h0v1.117c-.047-.013-.13-.027-.25-.043s-.24-.027-.359-.027c-.276 0-.522.059-.738.176s-.383.275-.508.48a1.3 1.3 0 0 0-.187.695h0V9.08h-1.168zm4.222 0v-6h1.168v6h-1.168zm.59-6.926c-.203 0-.378-.068-.524-.203a.66.66 0 0 1-.215-.492.65.65 0 0 1 .215-.492c.146-.138.32-.207.524-.207a.72.72 0 0 1 .519.207c.146.135.219.299.219.492s-.073.354-.219.492a.73.73 0 0 1-.519.203zm4.95.926v.938h-3.277V3.08h3.277zm-2.398-1.437h1.168v5.676c0 .227.034.397.102.512a.53.53 0 0 0 .262.23 1.05 1.05 0 0 0 .355.059c.094 0 .176-.007.246-.02l.164-.031h0l.211.965c-.068.026-.164.052-.289.078s-.281.044-.469.047c-.307.005-.594-.049-.859-.164s-.48-.292-.645-.531-.246-.54-.246-.902h0V1.643zm4.428 9.688a2.43 2.43 0 0 1-.476-.043c-.143-.026-.25-.055-.32-.086h0l.281-.957a1.88 1.88 0 0 0 .57.074c.167-.008.314-.07.442-.187s.244-.309.343-.574h0l.145-.398-2.195-6.078h1.25l1.519 4.656h.063l1.519-4.656h1.254l-2.473 6.801c-.114.313-.26.577-.437.793s-.388.383-.633.492-.529.164-.852.164z" fill="#fff"/></svg>