<svg xmlns="http://www.w3.org/2000/svg" width="107" height="10"><path d="M3.069 9.08H.479v-8h2.672c.784 0 1.457.16 2.02.48s.993.775 1.293 1.371.453 1.306.453 2.137-.152 1.549-.457 2.148-.74 1.06-1.312 1.383-1.266.48-2.078.48zM1.686 8.025h1.316c.609 0 1.116-.115 1.52-.344s.706-.566.906-1.004.301-.977.301-1.609c0-.628-.1-1.16-.301-1.598s-.493-.77-.887-.996-.882-.34-1.465-.34h0-1.391v5.891zm9.224 1.176c-.591 0-1.1-.126-1.527-.379a2.57 2.57 0 0 1-.984-1.074c-.229-.464-.344-1.007-.344-1.629 0-.615.115-1.156.344-1.625a2.67 2.67 0 0 1 .969-1.098c.417-.263.904-.395 1.461-.395a2.94 2.94 0 0 1 .984.168c.318.112.603.288.855.527s.452.551.598.934.219.842.219 1.387h0v.414h-4.77v-.875h3.625c0-.307-.062-.579-.187-.816s-.301-.428-.527-.566-.487-.207-.789-.207c-.328 0-.615.081-.859.242s-.43.367-.562.625-.195.533-.195.832h0v.684c0 .401.07.742.211 1.023s.342.496.598.645.553.219.894.219c.221 0 .423-.031.606-.094s.34-.161.473-.289.234-.285.305-.473h0l1.106.199a2 2 0 0 1-.477.855 2.31 2.31 0 0 1-.855.566c-.341.133-.73.199-1.168.199zm5.616.012a2.45 2.45 0 0 1-1.031-.211c-.307-.143-.551-.35-.73-.621s-.266-.603-.266-.996c0-.339.065-.617.195-.836a1.44 1.44 0 0 1 .527-.52c.221-.128.469-.224.742-.289s.552-.115.836-.148l.875-.102c.224-.029.387-.074.488-.137s.152-.164.152-.305h0v-.027c0-.341-.096-.605-.289-.793s-.474-.281-.852-.281c-.393 0-.703.087-.93.262a1.4 1.4 0 0 0-.465.574h0l-1.098-.25c.13-.365.32-.659.57-.883s.543-.391.871-.492a3.4 3.4 0 0 1 1.035-.156 3.65 3.65 0 0 1 .762.086 2.23 2.23 0 0 1 .758.305c.237.148.431.361.582.637s.226.629.226 1.066h0V9.08h-1.141v-.82H18.3c-.075.151-.189.299-.34.445s-.345.267-.582.363-.521.145-.852.145zm.254-.937c.323 0 .599-.064.828-.191a1.34 1.34 0 0 0 .527-.5c.122-.208.184-.431.184-.668h0v-.773c-.042.042-.122.081-.242.117s-.251.064-.402.09l-.441.066-.359.047c-.226.029-.433.077-.621.145s-.333.165-.445.293-.164.292-.164.5c0 .289.107.508.32.656s.486.219.816.219zm5.431-7.195v8h-1.168v-8h1.168zm6.067 3.465l-1.058.188c-.044-.135-.115-.264-.211-.387s-.221-.223-.383-.301-.363-.117-.605-.117c-.331 0-.607.074-.828.223s-.332.335-.332.566c0 .201.074.362.223.484s.388.223.719.301h0l.953.219c.552.128.964.324 1.234.59s.406.611.406 1.035a1.57 1.57 0 0 1-.312.961c-.206.279-.493.497-.863.656s-.793.238-1.277.238c-.672 0-1.22-.143-1.645-.43s-.685-.699-.781-1.23h0l1.129-.172a1.08 1.08 0 0 0 .434.668c.219.148.504.223.855.223.383 0 .689-.079.918-.238s.344-.358.344-.59c0-.187-.07-.345-.211-.473s-.35-.224-.637-.289h0l-1.016-.223c-.56-.128-.974-.331-1.242-.609s-.398-.632-.398-1.059c0-.354.099-.664.297-.93s.471-.473.82-.621.749-.227 1.199-.227c.648 0 1.159.141 1.531.422a1.96 1.96 0 0 1 .738 1.121zm6.059 4.668a2.45 2.45 0 0 1-1.031-.211c-.307-.143-.551-.35-.73-.621s-.266-.603-.266-.996c0-.339.065-.617.195-.836a1.44 1.44 0 0 1 .527-.52c.221-.128.469-.224.742-.289a7.38 7.38 0 0 1 .836-.148l.875-.102c.224-.029.387-.074.488-.137s.152-.164.152-.305h0v-.027c0-.341-.096-.605-.289-.793s-.474-.281-.851-.281c-.393 0-.703.087-.93.262a1.4 1.4 0 0 0-.465.574h0l-1.098-.25c.13-.365.32-.659.57-.883s.543-.391.871-.492a3.4 3.4 0 0 1 1.035-.156c.24 0 .493.029.762.086a2.23 2.23 0 0 1 .758.305c.237.148.431.361.582.637s.227.629.227 1.066h0V9.08h-1.141v-.82h-.047a1.66 1.66 0 0 1-.34.445c-.151.146-.345.267-.582.363s-.521.145-.852.145zm.254-.937c.323 0 .599-.064.828-.191a1.34 1.34 0 0 0 .527-.5c.122-.208.184-.431.184-.668h0v-.773c-.042.042-.122.081-.242.117a3.77 3.77 0 0 1-.402.09l-.441.066-.359.047c-.227.029-.434.077-.621.145s-.333.165-.445.293-.164.292-.164.5c0 .289.107.508.32.656s.486.219.816.219zm5.431-2.758V9.08h-1.168v-6h1.121v.977h.074c.138-.318.354-.573.648-.766s.671-.289 1.121-.289c.409 0 .767.086 1.074.258s.546.422.715.758.254.751.254 1.246h0V9.08h-1.168V5.404c0-.435-.113-.775-.34-1.02s-.538-.371-.934-.371c-.271 0-.512.059-.723.176s-.374.289-.496.516-.18.495-.18.813zm7.652 3.68c-.484 0-.917-.124-1.297-.371s-.675-.605-.891-1.066-.32-1.02-.32-1.668.108-1.203.324-1.664.518-.814.898-1.059.811-.367 1.293-.367c.372 0 .672.063.898.188s.406.266.531.43.227.309.297.434h0 .07V1.08h1.168v8h-1.141v-.934h-.098c-.07.128-.172.273-.305.438s-.31.307-.539.43-.526.184-.891.184zm.258-.996c.336 0 .62-.089.852-.266s.412-.428.531-.746.184-.687.184-1.109c0-.417-.06-.781-.18-1.094s-.296-.556-.527-.73-.518-.262-.859-.262c-.352 0-.645.091-.879.273s-.412.431-.531.746-.176.671-.176 1.066c0 .401.06.762.18 1.082s.297.574.531.762.529.277.875.277zm9.977.879h-2.59v-8h2.672c.784 0 1.457.16 2.02.48s.993.775 1.293 1.371.453 1.306.453 2.137-.152 1.549-.457 2.148-.74 1.06-1.312 1.383-1.266.48-2.078.48zm-1.383-1.055h1.316c.609 0 1.116-.115 1.52-.344s.706-.566.906-1.004.301-.977.301-1.609c0-.628-.1-1.16-.301-1.598s-.493-.77-.887-.996-.882-.34-1.465-.34h0-1.391v5.891zm6.638 1.055v-6h1.168v6h-1.168zm.59-6.926c-.203 0-.378-.068-.523-.203a.66.66 0 0 1-.215-.492.65.65 0 0 1 .215-.492c.146-.138.32-.207.523-.207a.72.72 0 0 1 .52.207c.146.135.219.299.219.492s-.073.354-.219.492a.73.73 0 0 1-.52.203zm6.646 2.391l-1.059.188c-.044-.135-.115-.264-.211-.387s-.221-.223-.383-.301-.363-.117-.605-.117c-.331 0-.607.074-.828.223s-.332.335-.332.566c0 .201.074.362.223.484s.388.223.719.301h0l.953.219c.552.128.964.324 1.234.59s.406.611.406 1.035c0 .359-.104.68-.312.961s-.493.497-.863.656-.793.238-1.277.238c-.672 0-1.22-.143-1.645-.43s-.685-.699-.781-1.23h0l1.129-.172a1.08 1.08 0 0 0 .433.668c.219.148.504.223.856.223.383 0 .689-.079.918-.238s.344-.358.344-.59c0-.187-.07-.345-.211-.473s-.35-.224-.637-.289h0l-1.016-.223c-.56-.128-.974-.331-1.242-.609s-.398-.632-.398-1.059c0-.354.099-.664.297-.93s.471-.473.82-.621.749-.227 1.199-.227c.648 0 1.159.141 1.531.422s.619.652.738 1.121zm3.929 4.656c-.581 0-1.081-.132-1.5-.395s-.737-.632-.961-1.098-.336-1-.336-1.602c0-.609.115-1.147.344-1.613s.552-.835.969-1.098.908-.395 1.473-.395a2.81 2.81 0 0 1 1.219.254c.357.167.644.401.863.703s.353.655.395 1.059h0-1.137a1.36 1.36 0 0 0-.43-.727c-.221-.203-.518-.305-.891-.305a1.45 1.45 0 0 0-.855.258c-.242.169-.431.411-.566.727s-.203.682-.203 1.109c0 .438.066.815.199 1.133s.32.564.563.738.533.262.863.262a1.45 1.45 0 0 0 .602-.121 1.23 1.23 0 0 0 .457-.355c.125-.154.212-.339.262-.555h0 1.137c-.042.388-.168.734-.379 1.039a2.18 2.18 0 0 1-.848.719c-.352.174-.764.262-1.238.262zm6.241 0c-.562 0-1.053-.129-1.473-.387s-.745-.618-.977-1.082-.348-1.005-.348-1.625.116-1.167.348-1.633.557-.828.977-1.086.91-.387 1.473-.387 1.053.129 1.473.387.745.62.977 1.086.348 1.01.348 1.633-.116 1.161-.348 1.625-.557.824-.977 1.082-.91.387-1.473.387zm.004-.98c.365 0 .667-.096.906-.289s.417-.449.531-.77a3.06 3.06 0 0 0 .176-1.059c0-.383-.059-.734-.176-1.055s-.292-.582-.531-.777-.542-.293-.906-.293-.672.098-.914.293-.418.454-.535.777a3.11 3.11 0 0 0-.172 1.055c0 .385.057.738.172 1.059a1.72 1.72 0 0 0 .535.77c.242.193.547.289.914.289zm7.897-1.629V3.08h1.172v6h-1.148V8.041h-.062c-.138.32-.359.587-.664.801s-.678.316-1.129.316a2.03 2.03 0 0 1-1.023-.254c-.294-.172-.526-.426-.695-.762s-.25-.751-.25-1.246h0V3.08h1.168v3.676c0 .409.113.734.34.977s.521.363.883.363c.219 0 .436-.055.652-.164s.4-.275.543-.496.218-.503.215-.844zm3.909-1.074V9.08h-1.168v-6h1.121v.977h.074c.138-.318.354-.573.648-.766s.671-.289 1.121-.289c.409 0 .767.086 1.074.258s.546.422.715.758.254.751.254 1.246h0V9.08h-1.168V5.404c0-.435-.113-.775-.34-1.02s-.538-.371-.934-.371c-.271 0-.512.059-.723.176s-.374.289-.496.516-.18.495-.18.813zm8.207-2.437v.938h-3.278V3.08h3.278zm-2.399-1.437h1.168v5.676c0 .227.034.397.102.512a.53.53 0 0 0 .262.23 1.05 1.05 0 0 0 .355.059 1.36 1.36 0 0 0 .246-.02l.164-.031h0l.211.965c-.068.026-.164.052-.289.078s-.281.044-.469.047c-.307.005-.594-.049-.859-.164s-.481-.292-.645-.531-.246-.54-.246-.902h0V1.643zm8.09 2.902l-1.059.188c-.044-.135-.114-.264-.21-.387a1.05 1.05 0 0 0-.383-.301c-.162-.078-.364-.117-.606-.117-.33 0-.607.074-.828.223s-.332.335-.332.566c0 .201.074.362.223.484s.388.223.719.301h0l.953.219c.552.128.963.324 1.234.59s.406.611.406 1.035c0 .359-.104.68-.312.961s-.494.497-.864.656-.792.238-1.277.238c-.672 0-1.22-.143-1.644-.43s-.685-.699-.782-1.23h0l1.129-.172c.071.294.215.517.434.668s.504.223.855.223c.383 0 .689-.079.918-.238s.344-.358.344-.59a.61.61 0 0 0-.211-.473c-.138-.128-.35-.224-.637-.289h0l-1.015-.223c-.56-.128-.974-.331-1.242-.609s-.399-.632-.399-1.059c0-.354.099-.664.297-.93s.471-.473.82-.621.749-.227 1.2-.227c.648 0 1.158.141 1.531.422s.618.652.738 1.121z" fill="#fff"/></svg>