<svg xmlns="http://www.w3.org/2000/svg" width="131" height="29"><path d="M1.533 10.24V.785h3.619c.683 0 1.251.108 1.703.323s.796.503 1.02.873.342.788.342 1.256c0 .385-.074.714-.222.988s-.346.491-.596.66a2.52 2.52 0 0 1-.836.365h0v.092c.335.018.657.122.965.309s.565.446.762.785.295.748.295 1.228c0 .489-.118.929-.355 1.32s-.594.694-1.071.919-1.077.337-1.8.337h0-3.827zm1.713-1.431h1.842c.622 0 1.069-.118 1.343-.355s.415-.548.415-.923c0-.28-.069-.532-.208-.757s-.335-.406-.591-.536-.56-.199-.914-.199h0-1.888v2.77zm0-4.002H4.94c.295 0 .562-.054.799-.162s.423-.266.559-.466.208-.443.208-.72c0-.366-.129-.668-.388-.905s-.636-.355-1.14-.355h0-1.731v2.608zm11.277 2.451V3.149h1.671v7.091h-1.62V8.98h-.074c-.16.397-.423.722-.789.974s-.811.379-1.343.379c-.465 0-.876-.103-1.233-.309a2.15 2.15 0 0 1-.831-.909c-.2-.4-.3-.883-.3-1.45h0V3.149h1.671v4.256c0 .449.123.806.369 1.071s.569.397.97.397c.246 0 .485-.06.716-.18s.42-.299.568-.536.226-.54.226-.9zm4.428 5.641c-.228 0-.439-.019-.632-.055a2.35 2.35 0 0 1-.457-.12h0l.388-1.302c.243.071.46.105.651.102a.8.8 0 0 0 .503-.18c.148-.114.272-.305.374-.572h0l.143-.383-2.571-7.239h1.773l1.634 5.355h.074l1.639-5.355h1.777l-2.839 7.95c-.132.375-.308.697-.526.965a2.14 2.14 0 0 1-.803.619c-.314.145-.689.217-1.126.217zm7.969-3.952l-.06.508a7.55 7.55 0 0 1-.231 1.182l-.342 1.113-.291.799h0-1.126l.175-.766.222-1.09c.071-.403.119-.812.143-1.228h0l.032-.517h1.477zm4.463-6.726V.785h7.543v1.436h-2.922v8.019h-1.699V2.221h-2.922zm8.187 8.019V3.149h1.62v1.182h.074c.129-.409.351-.725.665-.946a1.83 1.83 0 0 1 1.085-.337l.309.014c.117.006.214.017.291.032h0v1.537c-.071-.025-.183-.046-.337-.065a3.1 3.1 0 0 0-.439-.032 1.69 1.69 0 0 0-.822.199c-.24.129-.429.309-.568.54s-.208.497-.208.799h0v4.169H39.57zm7.068.143c-.449 0-.854-.08-1.214-.24a1.98 1.98 0 0 1-.849-.72c-.206-.317-.309-.708-.309-1.173 0-.4.074-.731.222-.993s.349-.471.605-.628a3.05 3.05 0 0 1 .863-.355 7.02 7.02 0 0 1 1.002-.18l1.011-.115c.258-.037.446-.092.563-.166s.18-.195.18-.355h0V5.43c0-.348-.103-.617-.309-.808s-.503-.286-.891-.286c-.409 0-.734.089-.974.268s-.397.389-.48.632h0l-1.56-.222a2.49 2.49 0 0 1 .609-1.08 2.65 2.65 0 0 1 1.039-.656c.409-.148.862-.222 1.357-.222a4.42 4.42 0 0 1 1.02.12 2.87 2.87 0 0 1 .928.397c.28.182.505.429.674.743s.258.706.258 1.177h0v4.746h-1.607v-.974h-.055c-.102.197-.245.382-.429.554s-.411.306-.688.411-.596.152-.965.152zm.434-1.228c.336 0 .626-.066.873-.199s.435-.314.568-.536.203-.463.203-.725h0v-.836c-.052.043-.142.083-.268.12a3.79 3.79 0 0 1-.416.097l-.457.074-.392.055a2.92 2.92 0 0 0-.669.166 1.11 1.11 0 0 0-.466.323c-.114.135-.171.311-.171.526 0 .308.112.54.337.697s.511.235.859.235zm7.622 1.21c-.557 0-1.056-.143-1.496-.429s-.788-.702-1.043-1.246-.383-1.206-.383-1.985c0-.788.129-1.453.388-1.994s.614-.956 1.057-1.233.937-.42 1.482-.42c.415 0 .757.071 1.025.212s.48.306.637.503a3.08 3.08 0 0 1 .365.549h0 .069V.785h1.676v9.455h-1.643V9.123h-.102c-.086.172-.211.355-.374.549s-.378.354-.646.489-.605.203-1.011.203zm.466-1.371c.354 0 .655-.095.905-.286s.439-.463.568-.808.194-.746.194-1.205-.065-.857-.194-1.196-.314-.602-.563-.789-.549-.282-.909-.282c-.372 0-.683.097-.933.291s-.437.462-.563.803-.189.732-.189 1.173.063.839.189 1.186.319.617.568.817.562.295.928.295zm8.23 1.385c-.711 0-1.325-.148-1.842-.443a3 3 0 0 1-1.186-1.265c-.277-.548-.416-1.193-.416-1.934 0-.729.139-1.37.416-1.92s.671-.985 1.173-1.293 1.091-.466 1.768-.466a3.58 3.58 0 0 1 1.237.212c.391.139.736.354 1.034.646a3.03 3.03 0 0 1 .711 1.117c.172.449.259.985.259 1.607h0v.512h-5.812V6.025h4.21c-.003-.32-.072-.605-.208-.854a1.51 1.51 0 0 0-.568-.596c-.24-.145-.52-.217-.84-.217-.342 0-.642.083-.9.249s-.46.379-.605.646a1.86 1.86 0 0 0-.217.873h0v.983c0 .412.075.766.226 1.062s.362.517.633.674.588.231.951.231a2.02 2.02 0 0 0 .66-.102c.197-.071.368-.174.512-.309s.254-.303.328-.503h0l1.56.175c-.099.412-.286.772-.563 1.08s-.625.542-1.053.711-.917.249-1.468.249zm9.832.005c-.449 0-.854-.08-1.214-.24a1.98 1.98 0 0 1-.849-.72c-.206-.317-.309-.708-.309-1.173 0-.4.074-.731.222-.993s.349-.471.605-.628a3.05 3.05 0 0 1 .863-.355 7.02 7.02 0 0 1 1.002-.18l1.011-.115c.258-.037.446-.092.563-.166s.18-.195.18-.355h0V5.43c0-.348-.103-.617-.309-.808s-.503-.286-.891-.286c-.409 0-.734.089-.974.268s-.397.389-.48.632h0l-1.56-.222a2.49 2.49 0 0 1 .609-1.08 2.65 2.65 0 0 1 1.039-.656c.409-.148.862-.222 1.357-.222a4.42 4.42 0 0 1 1.02.12 2.87 2.87 0 0 1 .928.397c.28.182.505.429.674.743s.258.706.258 1.177h0v4.746H75.36v-.974h-.055a2.04 2.04 0 0 1-.429.554c-.181.169-.411.306-.688.411s-.596.152-.965.152zm.434-1.228c.336 0 .626-.066.873-.199s.436-.314.568-.536.203-.463.203-.725h0v-.836c-.052.043-.142.083-.268.12a3.79 3.79 0 0 1-.416.097l-.457.074-.392.055a2.92 2.92 0 0 0-.669.166c-.197.077-.352.185-.466.323a.79.79 0 0 0-.171.526c0 .308.112.54.337.697s.511.235.859.235zm6.662-3.07v4.155h-1.671V3.149h1.597v1.205h.083c.163-.397.423-.712.78-.946s.805-.351 1.334-.351c.489 0 .916.105 1.279.314s.649.512.849.909.303.879.3 1.445h0v4.515h-1.671V5.984c0-.474-.123-.845-.369-1.113s-.58-.402-1.011-.402c-.292 0-.552.065-.78.194s-.402.309-.531.549-.189.531-.189.873zm8.882 4.28c-.557 0-1.056-.143-1.496-.429s-.788-.702-1.043-1.246-.383-1.206-.383-1.985c0-.788.129-1.453.388-1.994s.614-.956 1.057-1.233.937-.42 1.482-.42c.415 0 .757.071 1.025.212s.48.306.637.503.279.377.365.549h0 .069V.785h1.676v9.455h-1.644V9.123h-.102c-.086.172-.211.355-.374.549s-.379.354-.646.489-.605.203-1.011.203zm.466-1.371c.354 0 .656-.095.905-.286s.439-.463.568-.808.194-.746.194-1.205-.065-.857-.194-1.196-.314-.602-.563-.789-.549-.282-.91-.282c-.372 0-.683.097-.932.291s-.437.462-.563.803a3.37 3.37 0 0 0-.189 1.173c0 .443.063.839.189 1.186s.319.617.568.817.562.295.928.295zm14.723-5.189a2.46 2.46 0 0 0-.318-.669 2.07 2.07 0 0 0-.481-.512 1.93 1.93 0 0 0-.637-.319c-.24-.074-.501-.111-.784-.111-.508 0-.961.128-1.358.383s-.709.631-.937 1.126-.337 1.093-.337 1.8c0 .714.112 1.319.337 1.814s.537.873.937 1.131.865.383 1.395.383c.48 0 .895-.092 1.246-.277s.626-.446.817-.785.286-.742.286-1.2h0l.388.06h-2.567V5.291h3.837v1.136c0 .809-.173 1.51-.517 2.1s-.819 1.046-1.422 1.366-1.296.476-2.078.476c-.871 0-1.635-.196-2.294-.586s-1.168-.953-1.537-1.676-.549-1.588-.549-2.585c0-.763.108-1.445.323-2.045s.523-1.109.914-1.528a3.89 3.89 0 0 1 1.376-.96c.526-.222 1.099-.332 1.718-.332.523 0 1.011.077 1.463.231s.854.366 1.205.646.645.612.872.997.377.809.448 1.274h0-1.745zm3.406 6.435V3.149h1.62v1.182h.074c.129-.409.351-.725.665-.946a1.83 1.83 0 0 1 1.085-.337l.309.014c.117.006.214.017.291.032h0v1.537c-.071-.025-.183-.046-.337-.065s-.297-.032-.439-.032a1.69 1.69 0 0 0-.821.199 1.45 1.45 0 0 0-.568.54c-.139.231-.208.497-.208.799h0v4.169h-1.671zm7.955.139c-.692 0-1.292-.152-1.8-.457s-.902-.731-1.182-1.279-.415-1.188-.415-1.92.138-1.374.415-1.925.674-.979 1.182-1.283 1.108-.457 1.8-.457 1.293.152 1.801.457.9.732 1.177 1.283.42 1.193.42 1.925-.14 1.373-.42 1.92a3.07 3.07 0 0 1-1.177 1.279c-.508.305-1.108.457-1.801.457zm.01-1.339c.375 0 .689-.103.941-.309s.44-.489.563-.84.19-.742.19-1.173a3.44 3.44 0 0 0-.19-1.177c-.123-.354-.31-.636-.563-.845s-.566-.314-.941-.314c-.385 0-.705.105-.961.314s-.441.491-.568.845-.184.743-.184 1.177.061.822.184 1.173.316.631.568.84.576.309.961.309zm6.067 1.2l-2.004-7.091h1.704l1.246 4.986h.065l1.274-4.986h1.685l1.274 4.958h.069l1.228-4.958h1.708l-2.008 7.091h-1.74l-1.33-4.792h-.097l-1.329 4.792h-1.745zM2.498 28.899c-.228 0-.439-.018-.632-.055a2.35 2.35 0 0 1-.457-.12h0l.388-1.302c.243.071.46.105.651.102a.8.8 0 0 0 .503-.18c.148-.114.272-.305.374-.572h0l.143-.383-2.571-7.239h1.773l1.634 5.355h.074l1.639-5.355h1.777l-2.839 7.95c-.132.375-.308.697-.526.965a2.14 2.14 0 0 1-.803.619c-.314.145-.689.217-1.126.217zm9.303-2.521c-.693 0-1.293-.152-1.8-.457s-.902-.731-1.182-1.279-.415-1.188-.415-1.921.139-1.374.415-1.925.674-.979 1.182-1.283 1.108-.457 1.8-.457 1.293.152 1.8.457.9.733 1.177 1.283.42 1.193.42 1.925-.14 1.373-.42 1.921-.669.974-1.177 1.279-1.108.457-1.8.457zm.009-1.339c.376 0 .689-.103.942-.309s.44-.489.563-.84.189-.742.189-1.173a3.46 3.46 0 0 0-.189-1.177c-.123-.354-.311-.636-.563-.845s-.566-.314-.942-.314c-.385 0-.705.105-.96.314s-.442.491-.568.845a3.54 3.54 0 0 0-.185 1.177c0 .431.062.822.185 1.173s.316.631.568.84.575.309.96.309zm9.326-1.782v-4.109h1.671v7.091h-1.62v-1.26h-.074c-.16.397-.423.722-.79.974s-.811.378-1.343.378a2.42 2.42 0 0 1-1.233-.309c-.354-.209-.631-.512-.831-.909s-.3-.883-.3-1.45h0v-4.515h1.671v4.256c0 .449.123.806.369 1.071s.569.397.97.397c.246 0 .485-.06.716-.18s.42-.299.568-.535.226-.54.226-.9zm3.39 2.982v-7.091h1.62v1.182h.074c.129-.409.351-.725.665-.946a1.83 1.83 0 0 1 1.085-.337l.309.014a2.07 2.07 0 0 1 .291.032h0v1.537c-.071-.025-.183-.046-.337-.065s-.297-.032-.439-.032a1.69 1.69 0 0 0-.822.199c-.24.129-.429.309-.568.54s-.208.497-.208.799h0v4.169h-1.671zm8.453-9.454h2.096l2.807 6.851h.111l2.807-6.851h2.096v9.455h-1.644v-6.495h-.088l-2.613 6.468h-1.228l-2.613-6.482h-.088v6.509h-1.643v-9.454zm14.8 9.593c-.693 0-1.293-.152-1.8-.457s-.902-.731-1.182-1.279-.415-1.188-.415-1.921.139-1.374.415-1.925.674-.979 1.182-1.283 1.108-.457 1.8-.457 1.293.152 1.8.457.9.733 1.177 1.283.42 1.193.42 1.925-.14 1.373-.42 1.921-.669.974-1.177 1.279-1.108.457-1.8.457zm.009-1.339c.375 0 .689-.103.942-.309s.44-.489.563-.84.189-.742.189-1.173a3.46 3.46 0 0 0-.189-1.177c-.123-.354-.311-.636-.563-.845s-.566-.314-.942-.314c-.385 0-.705.105-.96.314s-.442.491-.568.845a3.54 3.54 0 0 0-.185 1.177c0 .431.062.822.185 1.173s.315.631.568.84.575.309.96.309zm6.478-2.954v4.155h-1.671v-7.091h1.597v1.205h.083c.163-.397.423-.712.78-.946s.805-.351 1.334-.351c.489 0 .916.105 1.279.314s.649.512.85.909.303.879.3 1.445h0v4.515h-1.671v-4.256c0-.474-.123-.845-.369-1.113s-.58-.402-1.011-.402c-.292 0-.552.065-.78.194s-.402.309-.531.549-.189.531-.189.872zm9.39 4.293c-.711 0-1.325-.148-1.842-.443a3 3 0 0 1-1.186-1.265c-.277-.548-.416-1.193-.416-1.934 0-.729.139-1.37.416-1.921s.671-.985 1.173-1.293 1.091-.466 1.768-.466a3.58 3.58 0 0 1 1.237.212c.391.138.736.354 1.034.646a3.03 3.03 0 0 1 .711 1.117c.172.449.259.985.259 1.607h0v.512h-5.812v-1.126h4.21c-.003-.32-.072-.605-.208-.854a1.51 1.51 0 0 0-.568-.595c-.24-.145-.52-.217-.84-.217-.342 0-.642.083-.9.249a1.72 1.72 0 0 0-.605.646 1.86 1.86 0 0 0-.217.872h0v.983c0 .412.075.766.226 1.062s.362.517.633.674.588.231.951.231a2.02 2.02 0 0 0 .66-.102c.197-.071.368-.174.513-.309a1.29 1.29 0 0 0 .328-.503h0l1.56.175c-.099.412-.286.772-.563 1.08s-.625.542-1.053.711-.917.249-1.468.249zm5.402 2.521c-.228 0-.439-.018-.632-.055s-.343-.074-.457-.12h0l.388-1.302c.243.071.46.105.651.102a.8.8 0 0 0 .503-.18c.148-.114.272-.305.374-.572h0l.143-.383-2.571-7.239h1.773l1.634 5.355h.074l1.639-5.355h1.777l-2.839 7.95c-.132.375-.308.697-.526.965a2.14 2.14 0 0 1-.803.619c-.314.145-.689.217-1.126.217z" fill="#00b15a"/></svg>