<svg xmlns="http://www.w3.org/2000/svg" width="70" height="11"><path d="M3.523 10.24L.854.785h1.842L4.4 7.733h.088L6.306.785h1.676l1.824 6.952h.083L11.592.785h1.842l-2.668 9.455h-1.69L7.183 3.606H7.11L5.212 10.24h-1.69zm11.025 0V3.149h1.671v7.091h-1.671zm.84-8.097c-.265 0-.492-.088-.683-.263s-.286-.392-.286-.642a.84.84 0 0 1 .286-.642c.191-.179.419-.268.683-.268s.495.089.683.268a.84.84 0 0 1 .286.642c0 .249-.095.463-.286.642s-.416.263-.683.263zm2.55 8.097V3.149h1.62v1.182h.074c.129-.409.351-.725.665-.946a1.83 1.83 0 0 1 1.085-.337l.309.014a2.08 2.08 0 0 1 .291.032h0v1.537c-.071-.025-.183-.046-.337-.065a3.1 3.1 0 0 0-.439-.032 1.69 1.69 0 0 0-.822.199c-.24.129-.429.309-.568.54s-.208.497-.208.799h0v4.169h-1.671zm8.002.139c-.711 0-1.325-.148-1.842-.443a3 3 0 0 1-1.186-1.265c-.277-.548-.415-1.193-.415-1.934 0-.729.139-1.37.415-1.92s.671-.985 1.173-1.293 1.091-.466 1.768-.466a3.58 3.58 0 0 1 1.237.212c.391.139.736.354 1.034.646a3.03 3.03 0 0 1 .711 1.117c.172.449.259.985.259 1.607h0v.512H23.28V6.025h4.21c-.003-.32-.072-.605-.208-.854a1.51 1.51 0 0 0-.568-.596c-.24-.145-.52-.217-.84-.217-.342 0-.642.083-.9.249s-.46.379-.605.646a1.86 1.86 0 0 0-.217.873h0v.983c0 .412.075.766.226 1.062s.362.517.633.674.588.231.951.231a2.02 2.02 0 0 0 .66-.102c.197-.071.368-.174.512-.309s.254-.303.328-.503h0l1.56.175c-.099.412-.286.772-.563 1.08s-.625.542-1.053.711-.917.249-1.468.249zm5.781-7.229l1.431 2.618 1.454-2.618h1.768l-2.137 3.545 2.174 3.545h-1.759l-1.5-2.553-1.486 2.553h-1.773l2.16-3.545-2.105-3.545h1.773zm17.337.826h-1.727c-.049-.283-.14-.534-.272-.752s-.297-.409-.494-.563a2.06 2.06 0 0 0-.674-.346 2.63 2.63 0 0 0-.808-.12c-.514 0-.969.129-1.367.388s-.708.631-.932 1.126-.337 1.094-.337 1.805c0 .723.112 1.333.337 1.828s.539.865.932 1.117.851.374 1.362.374a2.75 2.75 0 0 0 .794-.111c.249-.077.472-.189.669-.337a1.98 1.98 0 0 0 .503-.545c.138-.215.234-.462.286-.739h0l1.727.009a3.72 3.72 0 0 1-.42 1.265 3.73 3.73 0 0 1-.836 1.043c-.345.299-.748.532-1.209.702s-.974.249-1.537.249c-.831 0-1.573-.192-2.225-.577s-1.166-.94-1.542-1.667-.563-1.597-.563-2.613.189-1.89.568-2.613.894-1.282 1.547-1.667S44.23.656 45.055.656c.526 0 1.016.074 1.468.222a3.76 3.76 0 0 1 1.209.651c.354.283.645.631.873 1.043s.382.877.452 1.403zm3.535 6.408c-.449 0-.854-.08-1.214-.24a1.98 1.98 0 0 1-.849-.72c-.206-.317-.309-.708-.309-1.173 0-.4.074-.731.222-.993s.349-.471.605-.628a3.05 3.05 0 0 1 .863-.355 7.02 7.02 0 0 1 1.002-.18l1.011-.115c.259-.037.446-.092.563-.166s.18-.195.18-.355h0V5.43c0-.348-.103-.617-.309-.808s-.503-.286-.891-.286c-.409 0-.734.089-.974.268s-.397.389-.48.632h0l-1.56-.222a2.49 2.49 0 0 1 .609-1.08 2.65 2.65 0 0 1 1.039-.656c.409-.148.862-.222 1.357-.222a4.42 4.42 0 0 1 1.02.12 2.87 2.87 0 0 1 .928.397c.28.182.505.429.674.743s.258.706.258 1.177h0v4.746H54.73v-.974h-.055a2.04 2.04 0 0 1-.429.554c-.182.169-.411.306-.688.411s-.596.152-.965.152zm.434-1.228c.335 0 .626-.066.872-.199s.436-.314.568-.536.203-.463.203-.725h0v-.836c-.052.043-.142.083-.268.12a3.79 3.79 0 0 1-.415.097l-.457.074-.392.055a2.92 2.92 0 0 0-.669.166c-.197.077-.352.185-.466.323a.79.79 0 0 0-.171.526c0 .308.112.54.337.697s.511.235.859.235zm4.99 1.085V3.149h1.62v1.182h.074c.129-.409.351-.725.665-.946a1.83 1.83 0 0 1 1.085-.337l.309.014a2.08 2.08 0 0 1 .291.032h0v1.537c-.071-.025-.183-.046-.337-.065a3.1 3.1 0 0 0-.438-.032 1.69 1.69 0 0 0-.822.199c-.24.129-.429.309-.568.54s-.208.497-.208.799h0v4.169h-1.671zm7.494.125c-.557 0-1.056-.143-1.496-.429s-.788-.702-1.043-1.246-.383-1.206-.383-1.985c0-.788.129-1.453.388-1.994s.614-.956 1.057-1.233.937-.42 1.482-.42c.416 0 .757.071 1.025.212s.48.306.637.503a3.07 3.07 0 0 1 .365.549h0 .069V.785h1.676v9.455h-1.644V9.123h-.102c-.086.172-.211.355-.374.549s-.378.354-.646.489-.605.203-1.011.203zm.466-1.371c.354 0 .655-.095.905-.286s.439-.463.568-.808.194-.746.194-1.205-.065-.857-.194-1.196-.314-.602-.563-.789-.549-.282-.909-.282c-.372 0-.683.097-.933.291s-.437.462-.563.803a3.37 3.37 0 0 0-.189 1.173c0 .443.063.839.189 1.186s.319.617.568.817.562.295.928.295z" fill="#00b15a"/></svg>