<svg xmlns="http://www.w3.org/2000/svg" width="121" height="9"><path d="M6.936.08v8H5.827L1.76 2.213h-.074V8.08H.479v-8h1.117l4.07 5.875h.074V.08h1.195zm4.194 8.121c-.562 0-1.053-.129-1.473-.387s-.745-.618-.977-1.082-.348-1.005-.348-1.625.116-1.167.348-1.633.557-.828.977-1.086.91-.387 1.473-.387 1.053.129 1.473.387.745.62.977 1.086.348 1.01.348 1.633-.116 1.161-.348 1.625-.557.824-.977 1.082-.91.387-1.473.387zm.004-.98c.365 0 .667-.096.906-.289s.417-.449.531-.77a3.06 3.06 0 0 0 .176-1.059c0-.383-.059-.734-.176-1.055s-.292-.582-.531-.777-.542-.293-.906-.293-.672.098-.914.293-.418.454-.535.777a3.11 3.11 0 0 0-.172 1.055c0 .385.057.738.172 1.059a1.72 1.72 0 0 0 .535.77c.242.193.547.289.914.289zm7.777.859h-1.281l2.879-8h1.395l2.879 8h-1.281L21.24 1.533h-.062L18.912 8.08zm.215-3.133h4.156v1.016h-4.156V4.947zm7.886-.43V8.08h-1.168v-6h1.121v.977h.074c.138-.318.354-.573.648-.766s.671-.289 1.121-.289c.409 0 .767.086 1.074.258s.546.422.715.758.254.751.254 1.246h0V8.08h-1.168V4.404c0-.435-.113-.775-.34-1.02s-.538-.371-.934-.371c-.271 0-.512.059-.723.176s-.374.289-.496.516-.18.495-.18.813zm6.574 0V8.08h-1.168v-6h1.121v.977h.074c.138-.318.354-.573.648-.766s.671-.289 1.121-.289c.409 0 .767.086 1.074.258s.546.422.715.758.254.751.254 1.246h0V8.08h-1.168V4.404c0-.435-.113-.775-.34-1.02s-.538-.371-.934-.371c-.271 0-.512.059-.723.176s-.374.289-.496.516-.18.495-.18.813zm9.207 1.074V2.08h1.172v6h-1.148V7.041h-.062c-.138.32-.359.587-.664.801s-.678.316-1.129.316a2.03 2.03 0 0 1-1.023-.254c-.294-.172-.526-.426-.695-.762s-.25-.751-.25-1.246h0V2.08h1.168v3.676c0 .409.113.734.34.977s.521.363.883.363c.219 0 .436-.055.652-.164s.4-.275.543-.496.218-.503.215-.844zm4.487 2.621a2.45 2.45 0 0 1-1.031-.211c-.307-.143-.551-.35-.73-.621s-.266-.603-.266-.996c0-.339.065-.617.195-.836a1.44 1.44 0 0 1 .527-.52c.221-.128.469-.224.742-.289s.552-.115.836-.148l.875-.102c.224-.029.387-.074.488-.137s.152-.164.152-.305h0v-.027c0-.341-.096-.605-.289-.793s-.474-.281-.852-.281c-.393 0-.703.087-.93.262a1.4 1.4 0 0 0-.465.574h0l-1.098-.25c.13-.365.32-.659.57-.883s.543-.391.871-.492a3.4 3.4 0 0 1 1.035-.156 3.65 3.65 0 0 1 .762.086 2.23 2.23 0 0 1 .758.305c.237.148.431.361.582.637s.227.629.227 1.066h0V8.08h-1.141v-.82h-.047c-.075.151-.189.299-.34.445s-.345.267-.582.363-.521.145-.852.145zm.254-.937c.323 0 .599-.064.828-.191a1.34 1.34 0 0 0 .527-.5c.122-.208.184-.431.184-.668h0v-.773c-.042.042-.122.081-.242.117s-.251.064-.402.09l-.441.066-.359.047c-.227.029-.434.077-.621.145s-.333.165-.445.293-.164.292-.164.5c0 .289.107.508.32.656s.486.219.816.219zM52.966.08v8h-1.168v-8h1.168zm6.229 8.133a2.45 2.45 0 0 1-1.031-.211c-.307-.143-.551-.35-.73-.621s-.266-.603-.266-.996c0-.339.065-.617.195-.836a1.44 1.44 0 0 1 .527-.52c.221-.128.469-.224.742-.289s.552-.115.836-.148l.875-.102c.224-.029.387-.074.488-.137s.152-.164.152-.305h0v-.027c0-.341-.096-.605-.289-.793s-.474-.281-.852-.281c-.393 0-.703.087-.93.262a1.4 1.4 0 0 0-.465.574h0l-1.098-.25c.13-.365.32-.659.57-.883s.543-.391.871-.492a3.4 3.4 0 0 1 1.035-.156 3.65 3.65 0 0 1 .762.086 2.23 2.23 0 0 1 .758.305c.237.148.431.361.582.637s.227.629.227 1.066h0V8.08h-1.141v-.82h-.047c-.075.151-.189.299-.34.445s-.345.267-.582.363-.521.145-.852.145zm.254-.937c.323 0 .599-.064.828-.191a1.34 1.34 0 0 0 .527-.5c.122-.208.184-.431.184-.668h0v-.773c-.042.042-.122.081-.242.117s-.251.064-.402.09l-.441.066-.359.047c-.227.029-.434.077-.621.145s-.333.165-.445.293-.164.292-.164.5c0 .289.107.508.32.656s.486.219.816.219zm5.431-2.758V8.08h-1.168v-6h1.121v.977h.074c.138-.318.354-.573.648-.766s.671-.289 1.121-.289c.409 0 .767.086 1.074.258s.546.422.715.758.254.751.254 1.246h0V8.08h-1.168V4.404c0-.435-.113-.775-.34-1.02s-.538-.371-.934-.371c-.271 0-.512.059-.723.176s-.374.289-.496.516-.18.495-.18.813zm7.652 3.68c-.484 0-.917-.124-1.297-.371s-.674-.605-.891-1.066-.32-1.02-.32-1.668.108-1.203.324-1.664.518-.814.898-1.059.811-.367 1.293-.367c.372 0 .672.063.898.188s.406.266.531.43.226.309.297.434h0 .07V.08h1.168v8h-1.141v-.934h-.098a3.1 3.1 0 0 1-.305.438c-.13.164-.31.307-.539.43s-.526.184-.891.184zm.258-.996c.336 0 .62-.089.852-.266s.411-.428.531-.746.184-.687.184-1.109c0-.417-.06-.781-.18-1.094s-.296-.556-.527-.73-.518-.262-.859-.262c-.352 0-.644.091-.879.273s-.411.431-.531.746-.176.671-.176 1.066c0 .401.06.762.18 1.082s.297.574.531.762.529.277.875.277zm7.387.879v-8h4.961v1.039h-3.754v2.438h3.399v1.035h-3.399V8.08h-1.207zm7.285-8l1.914 3.129h.063L91.351.08h1.398l-2.492 4 2.508 4h-1.406l-1.922-3.086h-.062L87.453 8.08h-1.406l2.551-4-2.535-4h1.398zm9.397 8v-8h4.961v1.039h-3.754v2.438h3.399v1.035h-3.399V8.08h-1.207zm8.497.121c-.591 0-1.1-.126-1.527-.379a2.57 2.57 0 0 1-.985-1.074c-.229-.464-.343-1.007-.343-1.629 0-.615.114-1.156.343-1.625s.555-.835.969-1.098.904-.395 1.461-.395c.339 0 .667.056.985.168a2.39 2.39 0 0 1 .855.527c.253.24.452.551.598.934s.218.842.218 1.387h0v.414h-4.769v-.875h3.625c0-.307-.063-.579-.188-.816s-.3-.428-.527-.566-.487-.207-.789-.207c-.328 0-.615.081-.859.242a1.62 1.62 0 0 0-.563.625c-.13.255-.195.533-.195.832h0v.684c0 .401.07.742.211 1.023s.342.496.597.645.554.219.895.219c.221 0 .423-.031.605-.094s.34-.161.473-.289.234-.285.305-.473h0l1.105.199c-.088.326-.247.611-.476.855s-.512.431-.856.566-.73.199-1.168.199zm6.456 0c-.591 0-1.1-.126-1.527-.379a2.56 2.56 0 0 1-.984-1.074c-.23-.464-.344-1.007-.344-1.629 0-.615.114-1.156.344-1.625s.554-.835.968-1.098.904-.395 1.461-.395c.339 0 .667.056.985.168a2.39 2.39 0 0 1 .855.527c.253.24.452.551.598.934s.218.842.218 1.387h0v.414h-4.769v-.875h3.625c0-.307-.063-.579-.188-.816s-.3-.428-.527-.566-.487-.207-.789-.207c-.328 0-.615.081-.859.242a1.62 1.62 0 0 0-.563.625c-.13.255-.195.533-.195.832h0v.684c0 .401.07.742.211 1.023s.342.496.597.645.554.219.895.219c.221 0 .423-.031.605-.094s.34-.161.473-.289.234-.285.305-.473h0l1.105.199c-.088.326-.247.611-.476.855s-.512.431-.856.566-.73.199-1.168.199zm8.366-4.656l-1.058.188c-.044-.135-.115-.264-.211-.387s-.221-.223-.383-.301-.363-.117-.605-.117c-.331 0-.607.074-.828.223s-.333.335-.333.566c0 .201.075.362.223.484s.388.223.719.301h0l.953.219c.552.128.964.324 1.234.59s.407.611.407 1.035c0 .359-.105.68-.313.961s-.493.497-.863.656-.793.238-1.277.238c-.672 0-1.221-.143-1.645-.43s-.685-.699-.781-1.23h0l1.129-.172c.07.294.214.517.433.668s.504.223.856.223c.383 0 .689-.079.918-.238s.343-.358.343-.59a.61.61 0 0 0-.211-.473c-.138-.128-.35-.224-.636-.289h0l-1.016-.223c-.56-.128-.974-.331-1.242-.609s-.398-.632-.398-1.059c0-.354.098-.664.296-.93s.472-.473.821-.621.748-.227 1.199-.227c.648 0 1.159.141 1.531.422s.619.652.738 1.121z" fill="#fff"/></svg>