<svg xmlns="http://www.w3.org/2000/svg" width="98" height="25"><path d="M.479 9.08v-8h5.016v1.039H1.686v2.438h3.547v1.035H1.686v2.449h3.855V9.08H.479zm8.28.133a2.45 2.45 0 0 1-1.031-.211c-.307-.143-.551-.35-.73-.621s-.266-.603-.266-.996c0-.339.065-.617.195-.836a1.44 1.44 0 0 1 .527-.52c.221-.128.469-.224.742-.289s.552-.115.836-.148l.875-.102c.224-.029.387-.074.488-.137s.152-.164.152-.305h0v-.027c0-.341-.096-.605-.289-.793s-.474-.281-.852-.281c-.393 0-.703.087-.93.262a1.4 1.4 0 0 0-.465.574h0l-1.098-.25c.13-.365.32-.659.57-.883s.543-.391.871-.492a3.4 3.4 0 0 1 1.035-.156c.24 0 .493.029.762.086a2.23 2.23 0 0 1 .758.305c.237.148.431.361.582.637s.227.629.227 1.066h0V9.08H10.58v-.82h-.047c-.076.151-.189.299-.34.445s-.345.267-.582.363-.521.145-.852.145zm.254-.937c.323 0 .599-.064.828-.191a1.34 1.34 0 0 0 .527-.5c.122-.208.184-.431.184-.668h0v-.773c-.042.042-.122.081-.242.117a3.77 3.77 0 0 1-.402.09l-.441.066-.359.047c-.227.029-.434.077-.621.145s-.333.165-.445.293-.164.292-.164.5c0 .289.107.508.32.656s.486.219.816.219zm4.263.805v-6h1.129v.953h.063a1.45 1.45 0 0 1 .578-.762c.279-.187.594-.281.945-.281l.258.008.238.02h0v1.117c-.047-.013-.13-.027-.25-.043s-.24-.027-.359-.027c-.276 0-.522.059-.738.176s-.383.275-.508.48a1.3 1.3 0 0 0-.187.695h0V9.08h-1.168zm5.39-3.562V9.08h-1.168v-6h1.121v.977h.074c.138-.318.354-.573.648-.766s.671-.289 1.121-.289c.409 0 .767.086 1.074.258s.546.422.715.758.254.751.254 1.246h0V9.08h-1.168V5.404c0-.435-.113-.775-.34-1.02s-.538-.371-.934-.371c-.271 0-.512.059-.723.176s-.374.289-.496.516-.18.495-.18.813zm12.118 1.074V3.08h1.172v6h-1.148V8.041h-.062c-.138.32-.359.587-.664.801s-.678.316-1.129.316c-.385 0-.727-.085-1.023-.254s-.526-.426-.695-.762-.25-.751-.25-1.246h0V3.08h1.168v3.676c0 .409.113.734.34.977s.521.363.883.363c.219 0 .436-.055.652-.164s.4-.275.543-.496.217-.503.215-.844zm2.741 4.738V3.08h1.141v.973h.098c.068-.125.165-.27.293-.434s.305-.307.531-.43.526-.187.898-.187c.484 0 .917.122 1.297.367s.678.598.895 1.059.328 1.016.328 1.664-.108 1.204-.324 1.668-.513.816-.891 1.066-.809.371-1.293.371c-.365 0-.663-.061-.895-.184s-.409-.266-.539-.43-.23-.31-.301-.437h0-.07v3.184h-1.168zm1.145-5.25c0 .422.061.792.184 1.109s.3.566.531.746.516.266.852.266c.349 0 .641-.092.875-.277a1.72 1.72 0 0 0 .531-.762c.122-.32.184-.681.184-1.082 0-.396-.06-.751-.18-1.066s-.294-.564-.531-.746-.527-.273-.879-.273c-.339 0-.625.087-.859.262s-.407.418-.527.73-.18.677-.18 1.094zm11.356-3v.938h-3.277V3.08h3.277zm-2.398-1.437h1.168v5.676c0 .227.034.397.102.512a.53.53 0 0 0 .262.23 1.05 1.05 0 0 0 .355.059c.094 0 .176-.007.246-.02l.164-.031h0l.211.965c-.068.026-.164.052-.289.078s-.281.044-.469.047c-.307.005-.594-.049-.859-.164s-.481-.292-.645-.531-.246-.54-.246-.902h0V1.643zm6.153 7.559c-.562 0-1.053-.129-1.473-.387s-.745-.618-.977-1.082-.348-1.005-.348-1.625.116-1.167.348-1.633.557-.828.977-1.086.91-.387 1.473-.387 1.053.129 1.473.387.745.62.977 1.086.348 1.01.348 1.633-.116 1.161-.348 1.625-.557.824-.977 1.082-.91.387-1.473.387zm.004-.98c.365 0 .667-.096.906-.289s.417-.449.531-.77a3.06 3.06 0 0 0 .176-1.059c0-.383-.059-.734-.176-1.055s-.292-.582-.531-.777-.542-.293-.906-.293-.672.098-.914.293-.418.454-.535.777a3.11 3.11 0 0 0-.172 1.055c0 .385.057.738.172 1.059a1.72 1.72 0 0 0 .535.77c.242.193.547.289.914.289zm9.777.969c-.581 0-1.096-.098-1.547-.293s-.8-.462-1.055-.801a1.88 1.88 0 0 1-.375-1.16 1.92 1.92 0 0 1 .219-.926c.148-.281.349-.516.602-.703a1.94 1.94 0 0 1 .852-.363h0v-.055a1.69 1.69 0 0 1-1-.629c-.253-.331-.378-.712-.375-1.145a1.82 1.82 0 0 1 .344-1.102c.232-.323.549-.577.953-.762s.865-.281 1.383-.281c.513 0 .97.094 1.371.281s.721.439.953.762.352.69.352 1.102a1.81 1.81 0 0 1-.387 1.145c-.255.328-.585.538-.988.629h0v.055c.313.052.594.173.844.363s.453.422.602.703.227.59.227.926c0 .432-.128.819-.383 1.16s-.607.605-1.055.801-.957.293-1.535.293zm0-1.117c.299 0 .56-.051.781-.152s.393-.25.516-.437.185-.404.188-.648c-.003-.255-.069-.48-.199-.676a1.31 1.31 0 0 0-.527-.465c-.221-.112-.474-.168-.758-.168a1.69 1.69 0 0 0-.766.168c-.224.112-.401.267-.531.465s-.19.421-.187.676c-.003.245.057.461.18.648s.294.329.516.434.487.156.789.156zm0-3.645a1.37 1.37 0 0 0 .648-.148 1.13 1.13 0 0 0 .449-.414 1.17 1.17 0 0 0 .168-.613 1.14 1.14 0 0 0-.164-.602 1.06 1.06 0 0 0-.445-.402c-.19-.096-.409-.145-.656-.145-.253 0-.475.048-.668.145a1.06 1.06 0 0 0-.445.402c-.104.172-.155.372-.152.602-.003.232.05.436.156.613a1.17 1.17 0 0 0 .449.414c.193.099.413.148.66.148zm8.534 3.152v-.422c0-.31.065-.595.195-.855a1.58 1.58 0 0 1 .578-.629c.253-.159.559-.238.918-.238.37 0 .68.079.93.238s.439.365.566.625.195.547.195.859h0v.422c0 .31-.065.595-.195.855a1.55 1.55 0 0 1-.574.629c-.25.159-.557.238-.922.238s-.673-.079-.926-.238a1.55 1.55 0 0 1-.574-.629c-.128-.26-.191-.546-.191-.855zm1.02-.422v.422c0 .206.049.395.148.566s.273.258.523.258.426-.085.52-.254.144-.362.144-.57h0v-.422a1.2 1.2 0 0 0-.137-.57c-.091-.174-.267-.262-.527-.262-.245 0-.418.087-.52.262a1.1 1.1 0 0 0-.152.57zM64.03 3.002V2.58c0-.312.066-.599.199-.859s.326-.469.578-.625.559-.238.918-.238c.367 0 .676.079.926.238a1.5 1.5 0 0 1 .57.625c.128.26.191.547.191.859h0v.422c0 .313-.065.599-.195.859s-.318.465-.57.621-.56.234-.922.234c-.367 0-.677-.078-.93-.234s-.44-.365-.57-.625-.195-.546-.195-.855zm1.027-.422v.422c0 .208.048.398.144.57s.273.254.523.254.422-.085.516-.254.144-.362.144-.57h0V2.58a1.2 1.2 0 0 0-.137-.57c-.091-.174-.266-.262-.523-.262-.247 0-.421.087-.52.262s-.148.365-.148.57zm-.582 6.5l5.5-8h.977l-5.5 8h-.977zm12.911 0l-1.766-6h1.207l1.176 4.406h.059l1.18-4.406h1.207l1.172 4.387h.059l1.168-4.387h1.207l-1.762 6h-1.191l-1.219-4.332h-.09L78.574 9.08h-1.187zm7.776 0v-6h1.168v6h-1.168zm.59-6.926c-.203 0-.378-.068-.523-.203a.66.66 0 0 1-.215-.492.65.65 0 0 1 .215-.492c.146-.138.32-.207.523-.207a.72.72 0 0 1 .519.207c.146.135.219.299.219.492s-.073.354-.219.492a.73.73 0 0 1-.519.203zm4.95.926v.938h-3.277V3.08h3.277zm-2.398-1.437h1.168v5.676c0 .227.034.397.102.512a.53.53 0 0 0 .262.23 1.05 1.05 0 0 0 .355.059c.094 0 .176-.007.246-.02l.164-.031h0l.211.965c-.068.026-.164.052-.289.078s-.281.044-.469.047c-.307.005-.594-.049-.859-.164s-.48-.292-.645-.531-.246-.54-.246-.902h0V1.643zm4.987 3.875V9.08h-1.168v-8h1.152v2.977h.074c.141-.323.355-.579.645-.77s.667-.285 1.133-.285c.411 0 .771.085 1.078.254s.55.422.719.758.258.75.258 1.25h0V9.08h-1.168V5.404c0-.44-.113-.781-.34-1.023s-.542-.367-.945-.367c-.276 0-.523.059-.742.176s-.387.289-.512.516-.184.495-.184.813zM7.124 16.682H5.905c-.047-.261-.134-.49-.262-.687a1.92 1.92 0 0 0-.469-.504c-.185-.138-.392-.242-.621-.312a2.42 2.42 0 0 0-.723-.105 2.26 2.26 0 0 0-1.238.348c-.362.232-.648.572-.859 1.02s-.312.995-.312 1.641c0 .651.104 1.201.313 1.648s.499.787.863 1.016.775.344 1.23.344c.253 0 .492-.034.719-.102s.436-.173.621-.309.341-.301.469-.496a1.87 1.87 0 0 0 .27-.68h0l1.219.004c-.065.393-.191.755-.379 1.086s-.423.612-.715.852-.62.421-.992.551a3.67 3.67 0 0 1-1.219.195c-.693 0-1.31-.164-1.852-.492s-.969-.803-1.281-1.418-.465-1.348-.465-2.199.156-1.587.469-2.199.74-1.086 1.281-1.414 1.158-.496 1.848-.496c.424 0 .82.061 1.188.184s.702.297.996.531a2.92 2.92 0 0 1 .73.852c.193.333.323.715.391 1.145zm1.351 5.398v-6h1.129v.953h.063a1.45 1.45 0 0 1 .578-.762c.279-.187.594-.281.945-.281l.258.008.238.019h0v1.117a2.09 2.09 0 0 0-.25-.043 2.39 2.39 0 0 0-.359-.027c-.276 0-.522.059-.738.176s-.383.275-.508.48a1.3 1.3 0 0 0-.187.695h0v3.664H8.474zm5.143 2.25a2.43 2.43 0 0 1-.476-.043 1.5 1.5 0 0 1-.32-.086h0l.281-.957c.214.057.404.082.57.074s.314-.07.441-.187.245-.309.344-.574h0l.145-.398-2.195-6.078h1.25l1.519 4.656h.063l1.52-4.656h1.254l-2.473 6.801c-.115.313-.26.577-.437.793a1.7 1.7 0 0 1-.633.492 2.07 2.07 0 0 1-.852.164zm5.492 0v-8.25h1.141v.973h.098a3.26 3.26 0 0 1 .293-.434c.128-.164.305-.307.531-.43s.526-.187.898-.187c.484 0 .917.122 1.297.367s.678.598.895 1.059.328 1.016.328 1.664-.108 1.204-.324 1.668-.513.816-.891 1.066-.809.371-1.293.371c-.365 0-.663-.061-.895-.184s-.409-.266-.539-.43-.23-.31-.301-.437h0-.07v3.184h-1.168zm1.145-5.25c0 .422.061.792.184 1.109s.299.566.531.746.516.266.852.266c.349 0 .641-.093.875-.277s.411-.442.531-.762.184-.681.184-1.082c0-.396-.06-.751-.18-1.066s-.294-.564-.531-.746-.527-.273-.879-.273c-.339 0-.625.087-.859.262s-.408.418-.527.73-.18.677-.18 1.094zm8.445-3v.938h-3.277v-.937h3.277zm-2.399-1.437h1.168v5.676c0 .226.034.397.102.512a.53.53 0 0 0 .262.231 1.05 1.05 0 0 0 .355.059c.094 0 .176-.006.246-.02l.164-.031h0l.211.965a1.96 1.96 0 0 1-.289.078c-.125.029-.281.044-.469.047-.307.005-.594-.05-.859-.164s-.48-.292-.645-.531-.246-.54-.246-.902h0v-5.918zm6.153 7.559c-.562 0-1.053-.129-1.473-.387s-.745-.618-.977-1.082-.348-1.005-.348-1.625.116-1.167.348-1.633.557-.828.977-1.086.91-.387 1.473-.387 1.053.129 1.473.387.745.62.977 1.086.348 1.01.348 1.633-.116 1.162-.348 1.625-.557.824-.977 1.082-.91.387-1.473.387zm.004-.98c.364 0 .667-.096.906-.289s.417-.449.531-.77a3.06 3.06 0 0 0 .176-1.059c0-.383-.058-.734-.176-1.055s-.292-.582-.531-.777-.542-.293-.906-.293-.672.098-.914.293-.418.454-.535.777-.172.672-.172 1.055.057.738.172 1.059a1.72 1.72 0 0 0 .535.77c.242.193.547.289.914.289zm4.19.859v-8h1.168v2.973h.07a3.26 3.26 0 0 1 .293-.434c.128-.164.305-.307.531-.43s.526-.187.898-.187c.484 0 .917.122 1.297.367s.678.598.895 1.059.328 1.016.328 1.664-.108 1.204-.324 1.668-.513.816-.891 1.066-.809.371-1.293.371c-.364 0-.663-.061-.895-.184s-.409-.266-.539-.43-.23-.31-.301-.437h0-.098v.934h-1.141zm1.145-3c0 .422.061.792.184 1.109s.299.566.531.746.516.266.852.266c.349 0 .641-.093.875-.277s.412-.442.531-.762.184-.681.184-1.082c0-.396-.06-.751-.18-1.066s-.294-.564-.531-.746-.527-.273-.879-.273c-.338 0-.625.087-.859.262s-.408.418-.527.73-.18.677-.18 1.094zm7.394 3.133a2.45 2.45 0 0 1-1.031-.211c-.307-.143-.551-.35-.73-.621s-.266-.603-.266-.996c0-.339.065-.617.195-.836a1.44 1.44 0 0 1 .527-.52c.221-.128.469-.224.742-.289a7.39 7.39 0 0 1 .836-.149l.875-.101c.224-.029.387-.074.488-.137s.152-.164.152-.305h0v-.027c0-.341-.096-.605-.289-.793s-.474-.281-.852-.281c-.393 0-.703.087-.93.262a1.4 1.4 0 0 0-.465.574h0l-1.098-.25c.13-.365.32-.659.57-.883s.543-.391.871-.492.673-.156 1.035-.156a3.65 3.65 0 0 1 .762.086 2.23 2.23 0 0 1 .758.305c.237.148.431.361.582.637s.227.629.227 1.066h0v3.984h-1.141v-.82h-.047c-.075.151-.189.3-.34.445s-.345.267-.582.363-.521.145-.851.145zm.254-.937c.323 0 .599-.064.828-.191a1.34 1.34 0 0 0 .527-.5c.122-.208.184-.431.184-.668h0v-.773c-.042.042-.122.081-.242.117a3.77 3.77 0 0 1-.402.09l-.441.066-.359.047a2.9 2.9 0 0 0-.621.144c-.185.068-.333.165-.445.293s-.164.292-.164.5c0 .289.107.508.32.656s.486.219.816.219zm6.79.926c-.581 0-1.081-.131-1.5-.395s-.737-.631-.961-1.098-.336-1-.336-1.602c0-.609.115-1.147.344-1.613s.552-.835.969-1.098.908-.395 1.473-.395a2.81 2.81 0 0 1 1.219.254c.357.167.645.401.863.703s.353.655.395 1.059h0-1.137c-.062-.281-.206-.523-.43-.727s-.518-.305-.891-.305a1.45 1.45 0 0 0-.855.258c-.242.169-.431.411-.566.727s-.203.682-.203 1.109c0 .438.066.815.199 1.133s.32.564.563.738.532.262.863.262c.221 0 .422-.04.602-.121a1.23 1.23 0 0 0 .457-.355c.125-.154.212-.339.262-.555h0 1.137a2.21 2.21 0 0 1-.379 1.039 2.18 2.18 0 0 1-.848.719c-.352.175-.764.262-1.238.262zm4.788-2.156l-.008-1.426h.203l2.391-2.539h1.398l-2.727 2.891h-.184l-1.074 1.074zm-1.074 2.035v-8h1.168v8h-1.168zm3.789 0l-2.148-2.852.805-.816 2.777 3.668h-1.434z" fill="#fff"/></svg>