<svg xmlns="http://www.w3.org/2000/svg" width="77" height="10" fill="none"><path d="M.007 9V.273h1.581v7.402h3.844V9H.007zm6.797 0V.273h5.676v1.325H8.385v2.369h3.801v1.325H8.385v2.382h4.129V9h-5.71zm8.41 0h-1.687L16.599.273h1.952L21.627 9H19.94l-2.331-6.937h-.068L15.214 9zm.055-3.422h4.602v1.27h-4.602v-1.27zM22.777 9V.273h3.273c.671 0 1.233.116 1.688.349s.803.56 1.036.98.354.905.354 1.462-.119 1.045-.358 1.457-.584.726-1.044.95-1.026.332-1.696.332h-2.331V4.491h2.118c.392 0 .713-.054.963-.162s.435-.271.554-.482.183-.474.183-.784-.061-.574-.183-.793-.308-.389-.558-.503-.573-.175-.967-.175h-1.449V9h-1.581zm4.508-3.955L29.446 9h-1.764L25.56 5.045h1.726zM37.753.273V9h-1.406l-4.112-5.945h-.072V9h-1.581V.273h1.415l4.108 5.949h.077V.273h1.572zm4.699 0h1.935l2.591 6.324h.102L49.671.273h1.935V9h-1.517V3.004h-.081l-2.412 5.97h-1.134l-2.412-5.983h-.081V9h-1.517V.273zm18.673 4.364c0 .94-.176 1.746-.528 2.416s-.827 1.179-1.432 1.534-1.286.533-2.05.533-1.449-.178-2.054-.533-1.08-.871-1.432-1.538-.524-1.474-.524-2.412.175-1.744.524-2.412.83-1.183 1.432-1.538 1.29-.533 2.054-.533 1.447.178 2.05.533 1.082.868 1.432 1.538.528 1.472.528 2.412zm-1.59 0c0-.662-.104-1.22-.311-1.675s-.489-.803-.852-1.036-.783-.354-1.257-.354-.893.118-1.257.354-.649.578-.857 1.036-.307 1.013-.307 1.675.102 1.222.307 1.679.493.8.857 1.036.783.349 1.257.349.893-.116 1.257-.349.648-.581.852-1.036.311-1.017.311-1.679zM62.621 9V.273h3.273c.67 0 1.233.116 1.688.349s.803.56 1.035.98.354.905.354 1.462-.119 1.045-.358 1.457-.584.726-1.044.95-1.026.332-1.696.332h-2.331V4.491h2.118c.392 0 .713-.054.963-.162s.435-.271.554-.482.183-.474.183-.784-.061-.574-.183-.793-.308-.389-.558-.503-.572-.175-.967-.175h-1.449V9h-1.581zm4.508-3.955L69.29 9h-1.764l-2.122-3.955h1.726zM70.425 9V.273h5.676v1.325h-4.095v2.369h3.801v1.325h-3.801v2.382h4.129V9h-5.71z" fill="#fff"/></svg>