<svg xmlns="http://www.w3.org/2000/svg" width="81" height="19" fill="none"><path fill-rule="evenodd" d="M61.835 3.35c.639.755 1.117 1.633 1.436 2.632s.479 2.068.479 3.205l-.029 1.961H52.085c.044 1.084.399 1.961 1.052 2.633.696.717 1.901 1.076 3.279 1.076 1.059 0 1.995-.206 2.67-.626.667-.42 1.262-.946 1.791-1.595l2.271 2.434c-.704.946-1.654 1.694-2.88 2.228-1.219.542-2.706.809-4.309.809-1.27 0-2.488-.206-3.489-.618-.994-.412-1.835-.984-2.532-1.732-.689-.748-1.219-1.648-1.596-2.709s-.559-2.258-.559-3.579c0-1.305.181-2.48.544-3.533a7.6 7.6 0 0 1 1.56-2.694c.682-.748 1.516-1.32 2.503-1.732.994-.412 2.191-.618 3.439-.618 1.342 0 2.583.221 3.562.664.993.435 1.806 1.038 2.444 1.793zm-9.749 4.494h7.624.014V7.76c0-1.137-.333-1.74-.994-2.457s-1.705-1.122-2.829-1.122-2.169.404-2.829 1.122-.987 1.32-.987 2.457v.084zM24.258 1.282l-2.372 8.164c-.312 1.068-.559 2.152-.74 3.251v.015h-.073c-.045-.423-.139-.846-.227-1.239l-.107-.501-2.611-9.691h-5.332l-2.59 9.683-.107.501-.227 1.239H9.8v-.015c-.181-1.099-.428-2.182-.74-3.251L6.696 1.282H2.916l1.11 3.838H0v2.747h4.817l.791 2.732H0v2.755h6.398l1.262 4.403h4.512l3.054-11.545c.102-.427.189-.893.21-1.221h.072c.022.32.109.794.203 1.221l3.054 11.545h4.519l4.752-16.474h-3.78zm9.982 0h-4.019v16.474h4.019V1.282zm3.061 16.474V1.282h9.815v3.266h-6.123v13.208h-3.692zM69.496 9.37l-5.884 8.386h4.491l3.634-5.708h.138l3.641 5.7h4.817L74.45 9.431l5.818-8.149h-4.49l-3.504 5.433h-.138l-3.547-5.433h-4.817l5.724 8.088z" fill="#fff"/></svg>