<svg xmlns="http://www.w3.org/2000/svg" width="266" height="18" fill="none"><path d="M.977 14V.909h8.207v1.7H2.952v3.989h5.804v1.694H2.952V12.3h6.309V14H.977zm13.55.217c-.622 0-1.185-.115-1.687-.345s-.901-.573-1.195-1.016-.435-.986-.435-1.63c0-.554.107-1.01.32-1.368a2.36 2.36 0 0 1 .863-.85c.362-.209.767-.366 1.215-.473s.903-.187 1.368-.243l1.432-.166c.367-.047.633-.121.799-.224s.249-.268.249-.499v-.045c0-.558-.158-.991-.473-1.298s-.776-.46-1.394-.46c-.643 0-1.151.143-1.521.428s-.62.594-.761.94L11.51 6.56c.213-.597.524-1.078.933-1.445s.889-.639 1.425-.805 1.102-.256 1.694-.256c.392 0 .808.047 1.247.141a3.65 3.65 0 0 1 1.24.499c.388.243.705.59.952 1.042s.371 1.029.371 1.745V14h-1.866v-1.342h-.077c-.124.247-.309.49-.556.729s-.565.437-.952.594-.852.236-1.393.236zm.415-1.534c.528 0 .98-.104 1.355-.313s.667-.481.863-.818a2.12 2.12 0 0 0 .3-1.093V9.193c-.068.068-.2.132-.396.192s-.411.104-.658.147l-.722.109-.588.077c-.371.047-.71.126-1.016.237s-.546.271-.729.479-.268.477-.268.818c0 .473.175.831.524 1.074s.795.358 1.336.358zM21.918 14V4.182h1.847v1.56h.102c.179-.528.494-.944.946-1.246s.972-.46 1.547-.46l.422.013.39.032v1.828c-.077-.021-.213-.045-.409-.07s-.392-.045-.588-.045c-.452 0-.854.096-1.208.288s-.626.45-.831.786-.307.712-.307 1.138V14h-1.911zm8.819-5.83V14h-1.911V4.182h1.834V5.78h.122c.226-.52.579-.937 1.061-1.253s1.097-.473 1.834-.473c.669 0 1.255.141 1.758.422s.893.69 1.17 1.24.416 1.229.416 2.039V14h-1.911V7.985c0-.712-.185-1.268-.556-1.668s-.88-.607-1.528-.607c-.443 0-.837.096-1.182.288s-.611.473-.812.844-.294.81-.294 1.33zm19.83 1.758V4.182h1.918V14h-1.879v-1.7h-.102c-.226.524-.588.961-1.087 1.31s-1.11.518-1.847.518c-.631 0-1.189-.139-1.675-.415s-.861-.697-1.138-1.247-.409-1.229-.409-2.039V4.182h1.911v6.015c0 .669.185 1.202.556 1.598s.852.595 1.445.595c.358 0 .714-.09 1.068-.269s.654-.449.889-.812.356-.822.352-1.381zm4.486 7.754v-13.5h1.867v1.592h.16c.111-.205.271-.441.479-.71s.498-.503.869-.703.861-.307 1.47-.307c.793 0 1.5.2 2.122.601s1.11.978 1.464 1.732.537 1.662.537 2.723-.177 1.971-.53 2.729-.84 1.336-1.457 1.745-1.323.607-2.116.607c-.597 0-1.084-.1-1.464-.301s-.669-.435-.882-.703-.377-.507-.492-.716h-.115v5.209h-1.911zm1.873-8.591c0 .69.1 1.295.301 1.815s.49.927.869 1.221.844.435 1.394.435c.571 0 1.048-.151 1.432-.454s.673-.722.869-1.247.3-1.114.3-1.771c0-.648-.098-1.229-.294-1.745s-.481-.923-.869-1.221-.863-.447-1.438-.447c-.554 0-1.023.143-1.406.428s-.667.684-.863 1.195-.294 1.108-.294 1.79zm18.583-4.909v1.534h-5.363V4.182h5.363zM71.584 1.83h1.911v9.288c0 .371.055.65.166.837s.254.309.428.377a1.72 1.72 0 0 0 .582.096c.153 0 .288-.011.403-.032l.268-.051.345 1.579c-.111.043-.269.085-.473.128s-.46.072-.767.077c-.503.009-.972-.081-1.406-.268a2.41 2.41 0 0 1-1.055-.869c-.269-.392-.403-.884-.403-1.477V1.83zm10.069 12.369c-.921 0-1.724-.211-2.41-.633s-1.219-1.012-1.598-1.771-.569-1.645-.569-2.659.19-1.909.569-2.672.912-1.355 1.598-1.777 1.489-.633 2.41-.633 1.724.211 2.41.633 1.219 1.014 1.598 1.777.569 1.653.569 2.672-.19 1.901-.569 2.659-.912 1.349-1.598 1.771-1.489.633-2.41.633zm.006-1.604c.597 0 1.091-.158 1.483-.473a2.77 2.77 0 0 0 .869-1.259c.192-.524.288-1.102.288-1.732s-.096-1.202-.288-1.726-.477-.952-.869-1.272-.886-.479-1.483-.479-1.1.16-1.496.479-.684.744-.876 1.272-.281 1.099-.281 1.726.094 1.208.281 1.732.484.944.876 1.259.895.473 1.496.473zm15.999 1.585c-.95 0-1.794-.16-2.531-.479s-1.308-.756-1.726-1.31-.618-1.191-.614-1.898c-.004-.55.115-1.055.358-1.515s.571-.844.984-1.151.882-.509 1.394-.594v-.089a2.77 2.77 0 0 1-1.636-1.029 2.97 2.97 0 0 1-.614-1.873 2.98 2.98 0 0 1 .563-1.803c.379-.528.899-.944 1.56-1.246s1.415-.46 2.263-.46c.839 0 1.587.153 2.244.46s1.181.718 1.56 1.246.575 1.129.575 1.803a2.96 2.96 0 0 1-.633 1.873 2.76 2.76 0 0 1-1.617 1.029v.089c.511.085.972.283 1.381.594a3.38 3.38 0 0 1 .984 1.151c.247.46.371.965.371 1.515 0 .707-.209 1.34-.627 1.898s-.992.991-1.725 1.31-1.566.479-2.512.479zm0-1.828c.49 0 .916-.083 1.278-.249s.643-.409.844-.716.302-.661.307-1.061a1.99 1.99 0 0 0-.326-1.106 2.14 2.14 0 0 0-.863-.761c-.362-.183-.776-.275-1.24-.275s-.886.092-1.253.275-.656.437-.869.761-.311.688-.307 1.106a1.86 1.86 0 0 0 .294 1.061 2.01 2.01 0 0 0 .844.71c.366.17.797.256 1.291.256zm0-5.964a2.24 2.24 0 0 0 1.061-.243 1.85 1.85 0 0 0 .735-.678c.179-.29.271-.624.275-1.004-.004-.375-.094-.703-.269-.984a1.73 1.73 0 0 0-.729-.658c-.311-.158-.669-.236-1.074-.236-.413 0-.778.079-1.093.236a1.73 1.73 0 0 0-.729.658c-.17.281-.254.609-.249.984-.004.379.081.714.256 1.004s.424.511.735.678.675.243 1.08.243zm13.965 5.158v-.69c0-.507.106-.974.319-1.4a2.59 2.59 0 0 1 .946-1.029c.414-.26.914-.39 1.502-.39.605 0 1.113.13 1.522.39s.718.597.926 1.023c.214.426.32.895.32 1.406v.69c0 .507-.106.974-.32 1.4a2.54 2.54 0 0 1-.939 1.029c-.409.26-.912.39-1.509.39s-1.101-.13-1.515-.39a2.54 2.54 0 0 1-.939-1.029c-.209-.426-.313-.893-.313-1.4zm1.668-.69v.69c0 .337.081.646.243.927s.447.422.856.422.697-.139.85-.415.237-.592.237-.933v-.69c0-.341-.075-.652-.224-.933s-.437-.428-.863-.428c-.4 0-.684.143-.85.428a1.8 1.8 0 0 0-.249.933zm-8.323-6.801v-.69c0-.511.109-.98.326-1.406s.533-.767.946-1.023.915-.39 1.503-.39c.6 0 1.105.13 1.515.39s.724.597.933 1.023a3.15 3.15 0 0 1 .313 1.406v.69a3.1 3.1 0 0 1-.32 1.406c-.208.422-.52.761-.933 1.016s-.916.384-1.508.384c-.601 0-1.108-.128-1.522-.384a2.51 2.51 0 0 1-.933-1.023c-.213-.426-.32-.893-.32-1.4zm1.682-.69v.69a1.87 1.87 0 0 0 .236.933c.162.277.448.415.857.415s.69-.139.843-.415.237-.592.237-.933v-.69c0-.341-.075-.652-.224-.933s-.435-.428-.856-.428c-.405 0-.689.143-.851.428a1.87 1.87 0 0 0-.242.933zM105.698 14l9-13.091h1.598l-9 13.091h-1.598zm21.127 0l-2.889-9.818h1.975l1.924 7.21h.096l1.931-7.21h1.975l1.917 7.178h.096l1.912-7.178h1.975L134.854 14h-1.95l-1.994-7.089h-.147L128.769 14h-1.944zm12.725 0V4.182h1.912V14h-1.912zm.966-11.333c-.333 0-.618-.111-.857-.332a1.08 1.08 0 0 1-.351-.805c0-.315.117-.584.351-.805.239-.226.524-.339.857-.339a1.18 1.18 0 0 1 .85.339 1.06 1.06 0 0 1 .358.805c0 .311-.12.58-.358.805s-.518.332-.85.332zm8.1 1.515v1.534h-5.363V4.182h5.363zm-3.925-2.352h1.911v9.288c0 .371.056.65.167.837s.253.309.428.377a1.72 1.72 0 0 0 .582.096 2.23 2.23 0 0 0 .402-.032l.269-.051.345 1.579a3.24 3.24 0 0 1-.473.128 3.74 3.74 0 0 1-.767.077 3.36 3.36 0 0 1-1.406-.268 2.41 2.41 0 0 1-1.055-.869c-.269-.392-.403-.884-.403-1.477V1.83zm8.161 6.341V14h-1.911V.909h1.886V5.78h.121a2.82 2.82 0 0 1 1.055-1.259c.473-.311 1.091-.467 1.854-.467.673 0 1.261.138 1.764.415s.899.69 1.176 1.24.422 1.227.422 2.045V14h-1.911V7.985c0-.72-.186-1.278-.557-1.675s-.886-.601-1.546-.601c-.452 0-.857.096-1.215.288s-.633.473-.837.844-.301.81-.301 1.33zm24.707-3.004h-1.994c-.077-.426-.22-.801-.428-1.125s-.465-.599-.768-.825-.641-.396-1.016-.511a3.97 3.97 0 0 0-1.182-.173c-.755 0-1.43.19-2.027.569s-1.061.935-1.406 1.668-.511 1.628-.511 2.685c0 1.065.17 1.964.511 2.697s.816 1.287 1.413 1.662 1.268.563 2.013.563a4.08 4.08 0 0 0 1.176-.166c.375-.115.714-.283 1.017-.505s.558-.492.767-.812.36-.695.441-1.112l1.994.006c-.106.643-.313 1.236-.62 1.777a4.88 4.88 0 0 1-1.17 1.393 5.29 5.29 0 0 1-1.623.901c-.61.213-1.274.32-1.995.32-1.133 0-2.143-.268-3.029-.805s-1.586-1.315-2.097-2.32-.761-2.205-.761-3.599.256-2.597.767-3.599 1.211-1.777 2.097-2.314 1.894-.812 3.023-.812c.695 0 1.343.1 1.944.3s1.148.486 1.63.869.88.844 1.195 1.393.528 1.17.639 1.873zm2.21 8.834V4.182h1.847v1.56h.103a2.37 2.37 0 0 1 .946-1.246c.456-.307.971-.46 1.547-.46l.422.013.389.032v1.828c-.076-.021-.213-.045-.409-.07s-.392-.045-.588-.045c-.451 0-.854.096-1.208.288s-.626.45-.831.786-.307.712-.307 1.138V14h-1.911zm8.415 3.682c-.285 0-.545-.023-.78-.07s-.409-.09-.524-.141l.461-1.566a3.08 3.08 0 0 0 .933.121c.273-.013.513-.115.722-.307s.401-.505.563-.94l.236-.652-3.592-9.946h2.045l2.487 7.619h.102l2.487-7.619h2.051l-4.046 11.129c-.187.511-.426.944-.716 1.298s-.635.626-1.035.805-.865.268-1.394.268zm8.988 0v-13.5h1.866v1.592h.16c.111-.205.27-.441.479-.71s.499-.503.87-.703.86-.307 1.47-.307c.792 0 1.5.2 2.122.601s1.11.978 1.464 1.732.537 1.662.537 2.723-.177 1.971-.531 2.729-.839 1.336-1.457 1.745-1.324.607-2.116.607c-.597 0-1.085-.1-1.464-.301s-.669-.435-.882-.703-.377-.507-.492-.716h-.115v5.209h-1.911zm1.872-8.591c0 .69.101 1.295.301 1.815s.49.927.869 1.221.844.435 1.394.435c.571 0 1.048-.151 1.431-.454s.674-.722.87-1.247.3-1.114.3-1.771c0-.648-.098-1.229-.294-1.745s-.481-.923-.869-1.221-.863-.447-1.438-.447c-.554 0-1.023.143-1.407.428-.379.286-.667.684-.863 1.195s-.294 1.108-.294 1.79zm13.82-4.909v1.534h-5.363V4.182h5.363zm-3.925-2.352h1.911v9.288c0 .371.056.65.167.837s.253.309.428.377a1.72 1.72 0 0 0 .582.096 2.23 2.23 0 0 0 .402-.032l.269-.051.345 1.579c-.111.043-.268.085-.473.128a3.74 3.74 0 0 1-.767.077 3.36 3.36 0 0 1-1.406-.268 2.41 2.41 0 0 1-1.055-.869c-.268-.392-.403-.884-.403-1.477V1.83zm10.069 12.369c-.92 0-1.723-.211-2.409-.633s-1.219-1.012-1.598-1.771-.569-1.645-.569-2.659.189-1.909.569-2.672a4.25 4.25 0 0 1 1.598-1.777c.686-.422 1.489-.633 2.409-.633s1.724.211 2.41.633 1.219 1.014 1.598 1.777.569 1.653.569 2.672-.19 1.901-.569 2.659-.912 1.349-1.598 1.771-1.489.633-2.41.633zm.007-1.604c.596 0 1.091-.158 1.483-.473s.682-.735.869-1.259c.192-.524.288-1.102.288-1.732s-.096-1.202-.288-1.726c-.187-.528-.477-.952-.869-1.272s-.887-.479-1.483-.479-1.1.16-1.496.479-.684.744-.876 1.272-.281 1.099-.281 1.726.094 1.208.281 1.732.484.944.876 1.259.895.473 1.496.473zM225.872 14V.909h1.911v4.864h.115c.111-.205.271-.441.479-.71s.499-.503.87-.703.861-.307 1.47-.307c.793 0 1.5.2 2.122.601s1.11.978 1.464 1.732.537 1.662.537 2.723-.177 1.971-.531 2.729-.839 1.336-1.457 1.745-1.323.607-2.116.607c-.596 0-1.084-.1-1.464-.301s-.669-.435-.882-.703-.377-.507-.492-.716h-.16V14h-1.866zm1.873-4.909c0 .69.1 1.295.3 1.815s.49.927.869 1.221.844.435 1.394.435c.571 0 1.048-.151 1.432-.454s.673-.722.869-1.247.3-1.114.3-1.771c0-.648-.098-1.229-.294-1.745s-.481-.923-.869-1.221-.863-.447-1.438-.447c-.554 0-1.023.143-1.406.428s-.667.684-.863 1.195-.294 1.108-.294 1.79zm12.098 5.126c-.622 0-1.184-.115-1.687-.345s-.902-.573-1.196-1.016-.434-.986-.434-1.63c0-.554.106-1.01.319-1.368a2.36 2.36 0 0 1 .863-.85 4.5 4.5 0 0 1 1.215-.473 12.04 12.04 0 0 1 1.368-.243l1.431-.166c.367-.047.633-.121.799-.224s.25-.268.25-.499v-.045c0-.558-.158-.991-.473-1.298s-.776-.46-1.394-.46c-.643 0-1.15.143-1.521.428s-.62.594-.761.94l-1.796-.409c.213-.597.524-1.078.933-1.445a3.79 3.79 0 0 1 1.426-.805c.537-.17 1.101-.256 1.694-.256.392 0 .807.047 1.246.141s.857.256 1.24.499.705.59.953 1.042.37 1.029.37 1.745V14h-1.866v-1.342h-.077c-.123.247-.309.49-.556.729s-.565.437-.952.594-.853.236-1.394.236zm.416-1.534c.528 0 .98-.104 1.355-.313s.667-.481.863-.818.3-.705.3-1.093V9.193c-.068.068-.2.132-.396.192s-.411.104-.659.147l-.722.109-.588.077c-.371.047-.709.126-1.016.237s-.546.271-.729.479-.268.477-.268.818c0 .473.174.831.524 1.074s.795.358 1.336.358zm11.111 1.515c-.951 0-1.769-.215-2.455-.646s-1.206-1.033-1.572-1.796-.55-1.636-.55-2.621c0-.997.187-1.877.562-2.64s.904-1.366 1.586-1.796 1.485-.646 2.409-.646c.746 0 1.411.138 1.995.415s1.055.656 1.412 1.151c.363.494.578 1.072.646 1.732h-1.86a2.23 2.23 0 0 0-.703-1.189c-.362-.332-.848-.499-1.458-.499-.532 0-.999.141-1.399.422s-.706.673-.927 1.189-.333 1.116-.333 1.815c0 .716.109 1.334.326 1.854s.525.923.921 1.208.871.428 1.412.428c.363 0 .691-.066.985-.198a2.02 2.02 0 0 0 .748-.582c.204-.251.347-.554.428-.908h1.86c-.068.635-.275 1.202-.62 1.7a3.57 3.57 0 0 1-1.387 1.176c-.575.286-1.251.428-2.026.428zm7.835-3.528l-.013-2.333h.332l3.912-4.155h2.289l-4.462 4.73h-.3l-1.758 1.758zM257.447 14V.909h1.911V14h-1.911zm6.2 0l-3.515-4.666 1.316-1.336L265.993 14h-2.346z" fill="#fff"/></svg>