<svg xmlns="http://www.w3.org/2000/svg" width="269" height="53" fill="none" xmlns:v="https://vecta.io/nano"><path d="M1.261 19V1.545h11.352v2.651h-8.19v4.739h7.602v2.651H4.423v4.764h8.259V19H1.261zM18.225 5.909l2.642 4.832 2.685-4.832h3.264l-3.946 6.545L26.884 19h-3.247l-2.77-4.713L18.123 19H14.85l3.989-6.546-3.886-6.545h3.273zm10.977 18v-18h3.034v2.165h.179c.159-.318.383-.656.673-1.014.29-.364.682-.673 1.176-.929.494-.261 1.125-.392 1.892-.392 1.011 0 1.923.259 2.736.776.818.511 1.466 1.27 1.943 2.276.483 1 .724 2.227.724 3.682 0 1.438-.236 2.659-.707 3.665s-1.114 1.773-1.926 2.301-1.733.793-2.761.793c-.75 0-1.372-.125-1.867-.375s-.892-.551-1.193-.903c-.295-.358-.526-.696-.69-1.014h-.128v6.972h-3.085zm3.026-11.455c0 .847.119 1.588.358 2.225.244.636.594 1.133 1.048 1.492.46.352 1.017.528 1.67.528.682 0 1.253-.182 1.713-.545.46-.369.807-.872 1.04-1.509.239-.642.358-1.372.358-2.19 0-.812-.117-1.534-.349-2.165s-.58-1.125-1.04-1.483-1.034-.537-1.722-.537c-.659 0-1.219.173-1.679.52s-.81.832-1.048 1.457c-.233.625-.349 1.361-.349 2.207zm17.77 6.801c-1.312 0-2.446-.273-3.401-.818a5.54 5.54 0 0 1-2.19-2.335c-.511-1.011-.767-2.202-.767-3.571 0-1.347.256-2.528.767-3.545.517-1.023 1.239-1.818 2.165-2.386.926-.574 2.014-.861 3.264-.861.807 0 1.568.131 2.284.392a5.16 5.16 0 0 1 1.909 1.193c.557.54.994 1.227 1.313 2.063.318.83.477 1.818.477 2.966v.946h-10.73v-2.079h7.773c-.006-.591-.133-1.117-.383-1.577a2.79 2.79 0 0 0-1.048-1.099c-.443-.267-.96-.401-1.551-.401-.631 0-1.185.153-1.662.46A3.17 3.17 0 0 0 47.1 9.795c-.261.489-.395 1.026-.401 1.611v1.815c0 .761.139 1.415.418 1.96.278.54.668.955 1.168 1.244.5.284 1.085.426 1.756.426.449 0 .855-.062 1.219-.187.364-.131.679-.321.946-.571a2.38 2.38 0 0 0 .605-.929l2.881.324c-.182.761-.529 1.426-1.04 1.994-.506.563-1.153 1-1.943 1.313-.79.307-1.693.46-2.71.46zM58.429 19V5.909h2.991v2.182h.136c.239-.756.648-1.338 1.227-1.747.585-.415 1.253-.622 2.003-.622l.571.026c.216.011.395.031.537.06v2.838c-.131-.045-.338-.085-.622-.119-.278-.04-.548-.06-.81-.06-.562 0-1.068.122-1.517.366a2.68 2.68 0 0 0-1.048.997c-.256.426-.383.918-.383 1.474V19h-3.085zm9.516 0V5.909h3.085V19h-3.085zm1.551-14.949a1.8 1.8 0 0 1-1.261-.486c-.352-.33-.528-.724-.528-1.185 0-.466.176-.861.528-1.185a1.78 1.78 0 0 1 1.261-.494c.494 0 .915.165 1.261.494.352.324.528.719.528 1.185 0 .46-.176.855-.528 1.185a1.78 1.78 0 0 1-1.261.486zm10.502 15.205c-1.312 0-2.446-.273-3.401-.818a5.54 5.54 0 0 1-2.19-2.335c-.511-1.011-.767-2.202-.767-3.571 0-1.347.256-2.528.767-3.545.517-1.023 1.239-1.818 2.165-2.386.926-.574 2.014-.861 3.264-.861.807 0 1.568.131 2.284.392a5.16 5.16 0 0 1 1.909 1.193c.557.54.994 1.227 1.313 2.063.318.83.477 1.818.477 2.966v.946h-10.73v-2.079h7.773c-.006-.591-.134-1.117-.384-1.577a2.79 2.79 0 0 0-1.048-1.099c-.443-.267-.96-.401-1.551-.401-.631 0-1.185.153-1.662.46A3.17 3.17 0 0 0 77.1 9.795c-.261.489-.395 1.026-.4 1.611v1.815c0 .761.139 1.415.418 1.96.278.54.668.955 1.168 1.244.5.284 1.085.426 1.756.426.449 0 .855-.062 1.219-.187.364-.131.679-.321.946-.571a2.38 2.38 0 0 0 .605-.929l2.881.324c-.182.761-.529 1.426-1.04 1.994-.506.563-1.153 1-1.943 1.313-.79.307-1.693.46-2.71.46zm11.516-7.926V19h-3.085V5.909h2.949v2.224h.153a3.74 3.74 0 0 1 1.44-1.747c.665-.432 1.486-.648 2.463-.648.903 0 1.69.193 2.361.58.676.386 1.199.946 1.568 1.679.375.733.56 1.622.554 2.668V19h-3.085v-7.858c0-.875-.227-1.56-.682-2.054-.449-.494-1.071-.741-1.867-.741-.54 0-1.02.119-1.44.358-.415.233-.742.571-.98 1.014-.233.443-.349.98-.349 1.611zm17.25 7.926c-1.307 0-2.429-.287-3.366-.861a5.75 5.75 0 0 1-2.157-2.378c-.5-1.017-.75-2.187-.75-3.511 0-1.33.256-2.503.768-3.52.511-1.023 1.232-1.818 2.164-2.386.938-.574 2.046-.861 3.324-.861 1.063 0 2.003.196 2.821.588.824.386 1.48.935 1.969 1.645.489.705.767 1.528.835 2.472h-2.949c-.119-.631-.403-1.156-.852-1.577-.443-.426-1.037-.639-1.781-.639-.631 0-1.185.17-1.662.511-.477.335-.85.818-1.117 1.449-.261.631-.392 1.386-.392 2.267 0 .892.131 1.659.392 2.301.262.636.628 1.128 1.1 1.474.477.341 1.037.511 1.679.511.454 0 .861-.085 1.219-.256a2.45 2.45 0 0 0 .911-.759c.245-.33.412-.73.503-1.202h2.949c-.074.926-.346 1.747-.818 2.463-.472.71-1.114 1.267-1.926 1.67-.813.398-1.767.597-2.864.597zm13.937 0c-1.313 0-2.446-.273-3.401-.818-.948-.551-1.679-1.329-2.19-2.335-.511-1.011-.767-2.202-.767-3.571 0-1.347.256-2.528.767-3.545.517-1.023 1.239-1.818 2.165-2.386.926-.574 2.014-.861 3.264-.861.807 0 1.568.131 2.284.392.722.256 1.358.653 1.909 1.193.557.54.995 1.227 1.313 2.063.318.83.477 1.818.477 2.966v.946h-10.73v-2.079h7.773c-.006-.591-.134-1.117-.384-1.577-.25-.466-.599-.832-1.048-1.099-.443-.267-.96-.401-1.551-.401-.631 0-1.185.153-1.662.46-.478.301-.85.699-1.117 1.193a3.43 3.43 0 0 0-.4 1.611v1.815c0 .761.139 1.415.417 1.96.279.54.668.955 1.168 1.244.5.284 1.085.426 1.756.426a3.73 3.73 0 0 0 1.218-.187 2.7 2.7 0 0 0 .946-.571c.267-.25.469-.56.605-.929l2.881.324c-.182.761-.528 1.426-1.04 1.994-.505.563-1.153 1-1.943 1.313-.79.307-1.693.46-2.71.46z" fill="#00b15a"/><path d="M7.661 34.909v2.386H.136v-2.386h7.526zm-5.668-3.136h3.085v12.29c0 .415.063.733.188.955a1.01 1.01 0 0 0 .511.443 1.96 1.96 0 0 0 .699.119c.193 0 .369-.014.528-.043l.375-.077.52 2.412c-.165.057-.401.119-.707.188-.301.068-.67.108-1.108.119-.773.023-1.469-.094-2.088-.349-.619-.261-1.111-.665-1.474-1.21-.358-.545-.534-1.227-.528-2.045V31.773zm11.614 8.557V48h-3.085V30.546h3.017v6.588h.153c.307-.739.781-1.321 1.423-1.747.648-.432 1.472-.648 2.472-.648.909 0 1.702.19 2.378.571a3.85 3.85 0 0 1 1.568 1.67c.375.733.563 1.628.563 2.685V48h-3.085v-7.858c0-.881-.227-1.565-.682-2.054-.449-.494-1.079-.741-1.892-.741-.546 0-1.034.119-1.466.358-.426.233-.761.571-1.006 1.014-.239.443-.358.98-.358 1.611zm17.429 7.926c-1.312 0-2.446-.273-3.401-.818a5.54 5.54 0 0 1-2.19-2.335c-.511-1.011-.767-2.202-.767-3.571 0-1.346.256-2.528.767-3.545.517-1.023 1.239-1.818 2.165-2.386.926-.574 2.014-.861 3.264-.861.807 0 1.568.131 2.284.392.722.256 1.358.653 1.909 1.193.557.54.994 1.227 1.313 2.063.318.829.477 1.818.477 2.966v.946h-10.73v-2.079h7.773c-.006-.591-.134-1.117-.384-1.577a2.79 2.79 0 0 0-1.048-1.099c-.443-.267-.96-.401-1.551-.401-.631 0-1.185.153-1.662.46a3.17 3.17 0 0 0-1.117 1.193c-.261.489-.395 1.026-.401 1.611v1.815c0 .761.139 1.415.418 1.96a2.98 2.98 0 0 0 1.168 1.244c.5.284 1.085.426 1.756.426.449 0 .855-.062 1.219-.187.364-.131.679-.321.946-.571s.469-.56.605-.929l2.881.324a4.49 4.49 0 0 1-1.04 1.994c-.506.563-1.153 1-1.943 1.313-.79.307-1.693.46-2.71.46zM45.558 48V30.546h11.182v2.65h-8.02v4.739h7.253v2.651H48.72V48h-3.162zm21.45-5.506v-7.585h3.085V48h-2.991v-2.327h-.136c-.296.733-.781 1.332-1.457 1.798-.67.466-1.497.699-2.48.699-.858 0-1.617-.19-2.276-.571-.653-.386-1.165-.946-1.534-1.679-.369-.739-.554-1.631-.554-2.676v-8.335h3.085v7.858c0 .83.227 1.489.682 1.977s1.051.733 1.79.733a2.83 2.83 0 0 0 1.321-.332c.426-.222.776-.551 1.048-.989.278-.443.418-.997.418-1.662zm12.795-7.585v2.386h-7.525v-2.386h7.525zm-5.668-3.136h3.085v12.29c0 .415.063.733.188.955a1.01 1.01 0 0 0 .511.443 1.96 1.96 0 0 0 .699.119c.193 0 .369-.014.528-.043l.375-.077.52 2.412a6.9 6.9 0 0 1-.707.188c-.301.068-.671.108-1.108.119-.773.023-1.469-.094-2.088-.349-.619-.261-1.111-.665-1.475-1.21-.358-.545-.534-1.227-.528-2.045V31.773zm16.592 10.722v-7.585h3.085V48H90.82v-2.327h-.136c-.295.733-.781 1.332-1.457 1.798-.67.466-1.497.699-2.48.699-.858 0-1.616-.19-2.275-.571-.653-.386-1.165-.946-1.534-1.679-.369-.739-.554-1.631-.554-2.676v-8.335h3.085v7.858c0 .83.227 1.489.682 1.977s1.051.733 1.79.733a2.83 2.83 0 0 0 1.321-.332c.426-.222.776-.551 1.048-.989.278-.443.418-.997.418-1.662zM96.984 48V34.909h2.991v2.182h.137c.238-.756.647-1.338 1.227-1.747.585-.415 1.253-.622 2.003-.622l.571.026c.216.011.395.031.537.06v2.838c-.131-.045-.338-.085-.623-.119a5.71 5.71 0 0 0-.809-.06 3.12 3.12 0 0 0-1.517.367c-.443.239-.793.571-1.049.997s-.383.918-.383 1.474V48h-3.085zm14.772.256c-1.313 0-2.446-.273-3.401-.818-.949-.551-1.679-1.33-2.19-2.335-.512-1.011-.767-2.202-.767-3.571 0-1.346.255-2.528.767-3.545.517-1.023 1.238-1.818 2.165-2.386.926-.574 2.014-.861 3.264-.861.807 0 1.568.131 2.284.392.721.256 1.358.653 1.909 1.193.557.54.994 1.227 1.312 2.063.319.829.478 1.818.478 2.966v.946h-10.73v-2.079h7.772c-.005-.591-.133-1.117-.383-1.577-.25-.466-.6-.832-1.048-1.099s-.961-.401-1.552-.401c-.63 0-1.184.153-1.662.46a3.17 3.17 0 0 0-1.116 1.193 3.44 3.44 0 0 0-.401 1.611v1.815c0 .761.14 1.415.418 1.96.278.54.668.955 1.168 1.244.5.284 1.085.426 1.755.426.449 0 .855-.062 1.219-.187a2.7 2.7 0 0 0 .946-.571c.267-.25.469-.56.605-.929l2.881.324c-.182.761-.529 1.426-1.04 1.994-.506.563-1.153 1-1.943 1.313-.79.307-1.693.46-2.71.46zm20.094 0c-1.278 0-2.386-.281-3.324-.844s-1.664-1.349-2.182-2.361c-.511-1.011-.767-2.193-.767-3.545s.256-2.537.767-3.554c.518-1.017 1.245-1.807 2.182-2.369s2.046-.844 3.324-.844 2.387.281 3.324.844 1.662 1.352 2.173 2.369c.517 1.017.776 2.202.776 3.554s-.259 2.534-.776 3.545c-.511 1.011-1.235 1.798-2.173 2.361s-2.045.844-3.324.844zm.017-2.472c.693 0 1.273-.19 1.739-.571.466-.386.812-.903 1.04-1.551.233-.648.349-1.369.349-2.165 0-.801-.116-1.526-.349-2.173-.228-.653-.574-1.173-1.04-1.56s-1.046-.58-1.739-.58c-.71 0-1.301.193-1.773.58-.465.386-.815.906-1.048 1.56-.227.648-.341 1.372-.341 2.173 0 .795.114 1.517.341 2.165.233.648.583 1.165 1.048 1.551.472.381 1.063.571 1.773.571zm15.505-10.875v2.386h-7.738v-2.386h7.738zM141.568 48V33.673c0-.881.182-1.614.546-2.199s.863-1.023 1.483-1.312 1.306-.435 2.062-.435c.534 0 1.009.043 1.423.128l.921.23-.614 2.386c-.13-.04-.295-.08-.494-.119a2.99 2.99 0 0 0-.665-.068c-.574 0-.98.139-1.219.418-.233.273-.349.665-.349 1.176V48h-3.094zm14.31 0V30.546h6.545c1.341 0 2.466.25 3.375.75.915.5 1.605 1.187 2.071 2.062.472.869.708 1.858.708 2.966 0 1.119-.236 2.114-.708 2.983s-1.167 1.554-2.088 2.054c-.92.494-2.054.742-3.4.742h-4.338v-2.599h3.912c.784 0 1.426-.136 1.926-.409s.869-.648 1.108-1.125.366-1.026.366-1.645-.122-1.165-.366-1.636a2.49 2.49 0 0 0-1.117-1.099c-.5-.267-1.145-.401-1.934-.401h-2.898V48h-3.162zm18.841.264c-.829 0-1.576-.148-2.241-.443-.659-.301-1.182-.744-1.568-1.329s-.571-1.307-.571-2.165c0-.739.136-1.349.409-1.832a3.17 3.17 0 0 1 1.116-1.159c.472-.29 1.003-.508 1.594-.656.597-.153 1.213-.264 1.85-.332l1.866-.213c.477-.068.824-.17 1.04-.307.221-.142.332-.361.332-.656v-.051c0-.642-.19-1.139-.571-1.492s-.929-.528-1.645-.528c-.755 0-1.355.165-1.798.494s-.733.719-.886 1.168l-2.881-.409c.227-.795.602-1.46 1.125-1.994.523-.54 1.162-.943 1.918-1.21.755-.273 1.59-.409 2.505-.409.631 0 1.259.074 1.884.222a5.3 5.3 0 0 1 1.713.733c.517.335.932.793 1.244 1.372.318.58.477 1.304.477 2.173V48h-2.966v-1.798h-.102c-.187.364-.451.704-.792 1.023-.336.313-.759.565-1.27.759-.506.188-1.1.281-1.782.281zm.802-2.267c.619 0 1.156-.122 1.61-.367.455-.25.804-.58 1.049-.989s.375-.855.375-1.338v-1.543c-.097.079-.262.153-.495.222-.227.068-.483.128-.767.179l-.843.136-.725.102c-.46.063-.872.165-1.236.307s-.65.341-.86.597c-.211.25-.316.574-.316.972 0 .568.208.997.622 1.287s.944.435 1.586.435zm10.662 6.912c-.421 0-.81-.034-1.168-.102-.352-.062-.634-.136-.844-.222l.716-2.403c.449.131.85.193 1.202.188s.662-.117.929-.332c.272-.21.503-.562.69-1.057l.264-.707-4.747-13.364h3.273l3.017 9.886h.136l3.026-9.886h3.281l-5.241 14.676c-.245.693-.569 1.287-.972 1.781-.403.5-.898.881-1.483 1.142-.579.267-1.273.401-2.079.401zM198.093 48V34.909h2.949v2.224h.153c.273-.75.725-1.335 1.355-1.756.631-.426 1.384-.639 2.259-.639.886 0 1.633.216 2.241.648.614.426 1.046 1.008 1.296 1.747h.136c.29-.727.779-1.307 1.466-1.739.693-.437 1.514-.656 2.463-.656 1.205 0 2.188.381 2.949 1.142s1.142 1.872 1.142 3.332V48h-3.094v-8.31c0-.812-.216-1.406-.647-1.781-.432-.381-.961-.571-1.586-.571-.744 0-1.326.233-1.747.699-.415.46-.622 1.06-.622 1.798V48h-3.025v-8.437c0-.676-.205-1.216-.614-1.619s-.932-.605-1.585-.605a2.24 2.24 0 0 0-1.211.341c-.363.222-.653.537-.869.946-.216.403-.324.875-.324 1.415V48h-3.085zm27.335.256c-1.313 0-2.446-.273-3.401-.818-.949-.551-1.679-1.33-2.19-2.335-.512-1.011-.767-2.202-.767-3.571 0-1.346.255-2.528.767-3.545.517-1.023 1.238-1.818 2.164-2.386.927-.574 2.015-.861 3.265-.861a6.61 6.61 0 0 1 2.284.392c.721.256 1.358.653 1.909 1.193.557.54.994 1.227 1.312 2.063.318.829.478 1.818.478 2.966v.946h-10.731v-2.079h7.773c-.005-.591-.133-1.117-.383-1.577a2.79 2.79 0 0 0-1.049-1.099c-.443-.267-.96-.401-1.551-.401-.63 0-1.184.153-1.662.46a3.17 3.17 0 0 0-1.116 1.193 3.43 3.43 0 0 0-.401 1.611v1.815c0 .761.139 1.415.418 1.96.278.54.667.955 1.167 1.244.5.284 1.086.426 1.756.426.449 0 .855-.062 1.219-.187a2.7 2.7 0 0 0 .946-.571c.267-.25.469-.56.605-.929l2.881.324c-.182.761-.529 1.426-1.04 1.994-.506.563-1.153 1-1.943 1.313-.79.307-1.693.46-2.71.46zm11.516-7.926V48h-3.085V34.909h2.949v2.224h.153a3.74 3.74 0 0 1 1.44-1.747c.665-.432 1.486-.648 2.463-.648.904 0 1.691.193 2.361.58.676.386 1.199.946 1.568 1.679.375.733.56 1.622.554 2.668V48h-3.085v-7.858c0-.875-.227-1.56-.682-2.054-.449-.494-1.071-.741-1.866-.741a2.87 2.87 0 0 0-1.441.358c-.414.233-.741.571-.98 1.014-.233.443-.349.98-.349 1.611zm18.077-5.42v2.386h-7.526v-2.386h7.526zm-5.668-3.136h3.085v12.29c0 .415.063.733.188.955.13.216.301.364.511.443s.443.119.699.119c.193 0 .369-.014.528-.043l.375-.077.52 2.412c-.165.057-.4.119-.707.188-.301.068-.671.108-1.108.119-.773.023-1.469-.094-2.088-.349a3.25 3.25 0 0 1-1.475-1.21c-.358-.545-.534-1.227-.528-2.045V31.773zm18.407 6.597l-2.813.307c-.079-.284-.218-.551-.417-.801-.193-.25-.455-.452-.784-.605s-.733-.23-1.21-.23c-.643 0-1.182.139-1.62.418-.432.278-.645.639-.639 1.082a1.13 1.13 0 0 0 .418.929c.289.239.767.435 1.431.588l2.233.477c1.239.267 2.159.69 2.762 1.27s.915 1.338.92 2.276c-.005.824-.247 1.551-.724 2.182-.472.625-1.128 1.114-1.969 1.466s-1.807.528-2.898.528c-1.602 0-2.892-.335-3.869-1.006-.977-.676-1.56-1.617-1.747-2.821l3.008-.29c.137.591.426 1.037.87 1.338s1.02.452 1.73.452c.733 0 1.321-.151 1.764-.452.449-.301.673-.673.673-1.117 0-.375-.145-.685-.434-.929s-.728-.432-1.33-.562l-2.233-.469c-1.256-.261-2.185-.702-2.787-1.321-.602-.625-.9-1.415-.895-2.369-.005-.807.213-1.506.657-2.097.448-.597 1.071-1.057 1.866-1.381.801-.33 1.724-.494 2.77-.494 1.534 0 2.741.327 3.622.98s1.435 1.537 1.645 2.651z" fill="#fff"/></svg>