<svg xmlns="http://www.w3.org/2000/svg" width="244" height="25" fill="none" ><path d="M.067 1.545h3.571l4.27 7.722h.17l4.27-7.722h3.571L9.57 12.489V19H6.417v-6.511L.067 1.545zm21.228 17.71c-1.279 0-2.386-.281-3.324-.844s-1.665-1.349-2.182-2.361c-.511-1.011-.767-2.193-.767-3.545s.256-2.537.767-3.554c.517-1.017 1.244-1.807 2.182-2.369s2.045-.844 3.324-.844 2.386.281 3.324.844a5.66 5.66 0 0 1 2.173 2.369c.517 1.017.776 2.202.776 3.554s-.259 2.534-.776 3.545c-.511 1.011-1.236 1.798-2.173 2.361s-2.045.844-3.324.844zm.017-2.472c.693 0 1.273-.19 1.739-.571.466-.386.813-.903 1.04-1.551.233-.648.349-1.369.349-2.165 0-.801-.116-1.526-.349-2.173-.227-.653-.574-1.173-1.04-1.56s-1.045-.58-1.739-.58c-.71 0-1.301.193-1.773.58-.466.386-.815.906-1.048 1.56-.227.648-.341 1.372-.341 2.173 0 .795.114 1.517.341 2.165.233.648.582 1.165 1.048 1.551.472.381 1.063.571 1.773.571zm17.218-3.29V5.909h3.085V19h-2.992v-2.327h-.136c-.295.733-.781 1.332-1.457 1.798-.67.466-1.497.699-2.48.699-.858 0-1.617-.19-2.276-.571-.654-.386-1.165-.946-1.534-1.679-.369-.739-.554-1.631-.554-2.676V5.909h3.085v7.858c0 .83.227 1.489.682 1.977s1.051.733 1.79.733a2.83 2.83 0 0 0 1.321-.332c.426-.222.776-.551 1.048-.989.278-.443.418-.997.418-1.662zM44.788 19V5.909h2.991v2.182h.136c.239-.756.648-1.338 1.227-1.747.585-.415 1.253-.622 2.003-.622l.571.026c.216.011.395.031.537.06v2.838c-.131-.045-.338-.085-.622-.119-.278-.04-.548-.06-.81-.06a3.12 3.12 0 0 0-1.517.366 2.68 2.68 0 0 0-1.048.997c-.256.426-.383.918-.383 1.474V19h-3.085zM59.626 4.196V1.545h13.926v2.651h-5.395V19h-3.136V4.196h-5.395zM76.101 19V5.909h3.085V19h-3.085zm1.551-14.949a1.8 1.8 0 0 1-1.261-.486c-.352-.33-.528-.724-.528-1.185 0-.466.176-.861.528-1.185a1.78 1.78 0 0 1 1.261-.494c.494 0 .915.165 1.261.494.352.324.528.719.528 1.185 0 .46-.176.855-.528 1.185a1.78 1.78 0 0 1-1.261.486zm10.417 15.205c-1.307 0-2.429-.287-3.367-.861-.932-.574-1.651-1.366-2.156-2.378-.5-1.017-.75-2.187-.75-3.511 0-1.33.256-2.503.767-3.52.511-1.023 1.233-1.818 2.165-2.386.938-.574 2.045-.861 3.324-.861 1.063 0 2.003.196 2.821.588.824.386 1.48.935 1.969 1.645.489.705.767 1.528.835 2.472h-2.949c-.119-.631-.403-1.156-.852-1.577-.443-.426-1.037-.639-1.781-.639-.631 0-1.185.17-1.662.511-.477.335-.849.818-1.116 1.449-.261.631-.392 1.386-.392 2.267 0 .892.131 1.659.392 2.301.261.636.628 1.128 1.099 1.474.477.341 1.037.511 1.679.511.455 0 .861-.085 1.219-.256a2.45 2.45 0 0 0 .912-.759c.244-.33.412-.73.503-1.202h2.949c-.074.926-.347 1.747-.818 2.463-.472.71-1.114 1.267-1.926 1.67-.812.398-1.767.597-2.864.597zm10.954-4.364l-.008-3.724h.494l4.704-5.259h3.605l-5.787 6.443h-.639l-2.369 2.54zM96.21 19V1.545h3.085V19H96.21zm8.216 0l-4.261-5.957 2.079-2.173L108.116 19h-3.69zm10.705.256c-1.313 0-2.446-.273-3.401-.818-.949-.551-1.679-1.329-2.19-2.335-.512-1.011-.767-2.202-.767-3.571 0-1.347.255-2.528.767-3.545.517-1.023 1.238-1.818 2.165-2.386.926-.574 2.014-.861 3.264-.861.807 0 1.568.131 2.284.392.721.256 1.358.653 1.909 1.193.557.54.994 1.227 1.312 2.063.319.83.478 1.818.478 2.966v.946h-10.73v-2.079h7.772a3.31 3.31 0 0 0-.383-1.577 2.79 2.79 0 0 0-1.049-1.099c-.443-.267-.96-.401-1.551-.401-.63 0-1.184.153-1.662.46a3.17 3.17 0 0 0-1.116 1.193c-.261.489-.395 1.026-.401 1.611v1.815c0 .761.14 1.415.418 1.96.278.54.668.955 1.168 1.244.5.284 1.085.426 1.755.426.449 0 .855-.062 1.219-.187a2.7 2.7 0 0 0 .946-.571c.267-.25.469-.56.605-.929l2.881.324c-.182.761-.529 1.426-1.04 1.994-.506.563-1.153 1-1.943 1.313-.79.307-1.693.46-2.71.46zm14.968-13.347v2.386h-7.526V5.909h7.526zm-5.668-3.136h3.085v12.29c0 .415.063.733.188.954.131.216.301.364.511.443s.443.119.699.119c.193 0 .369-.014.528-.043l.375-.077.52 2.412c-.164.057-.4.119-.707.188-.301.068-.67.108-1.108.119-.773.023-1.469-.094-2.088-.349-.619-.261-1.111-.665-1.474-1.21-.358-.545-.535-1.227-.529-2.045V2.773zm20.738 3.136v2.386h-7.526V5.909h7.526zm-5.668-3.136h3.086v12.29c0 .415.062.733.187.954a1.01 1.01 0 0 0 .512.443c.21.08.443.119.698.119.194 0 .37-.014.529-.043l.375-.077.52 2.412c-.165.057-.401.119-.708.188-.301.068-.67.108-1.108.119-.772.023-1.468-.094-2.088-.349-.619-.261-1.111-.665-1.474-1.21s-.534-1.227-.529-2.045V2.773zm13.818 16.483c-1.279 0-2.386-.281-3.324-.844s-1.665-1.349-2.182-2.361c-.511-1.011-.767-2.193-.767-3.545s.256-2.537.767-3.554a5.72 5.72 0 0 1 2.182-2.369c.938-.562 2.045-.844 3.324-.844s2.386.281 3.324.844 1.662 1.352 2.173 2.369c.517 1.017.776 2.202.776 3.554s-.259 2.534-.776 3.545c-.511 1.011-1.236 1.798-2.173 2.361s-2.046.844-3.324.844zm.017-2.472c.693 0 1.273-.19 1.739-.571.465-.386.812-.903 1.039-1.551.233-.648.35-1.369.35-2.165 0-.801-.117-1.526-.35-2.173-.227-.653-.574-1.173-1.039-1.56s-1.046-.58-1.739-.58c-.71 0-1.301.193-1.773.58-.466.386-.815.906-1.048 1.56-.227.648-.341 1.372-.341 2.173 0 .795.114 1.517.341 2.165.233.648.582 1.165 1.048 1.551.472.381 1.063.571 1.773.571zm24.45-10.44c-.08-.744-.415-1.324-1.006-1.739-.585-.415-1.347-.622-2.284-.622-.659 0-1.225.099-1.696.298s-.833.469-1.083.81-.378.73-.383 1.168c0 .364.082.679.247.946.17.267.401.494.69.682a4.88 4.88 0 0 0 .963.46 10.42 10.42 0 0 0 1.066.315l1.636.409a11.28 11.28 0 0 1 1.901.622c.613.261 1.162.591 1.645.989s.875.878 1.159 1.44.426 1.222.426 1.977c0 1.023-.262 1.923-.784 2.702-.523.773-1.279 1.378-2.267 1.815-.983.432-2.174.648-3.571.648-1.358 0-2.537-.21-3.537-.631-.995-.42-1.773-1.034-2.336-1.841-.556-.807-.858-1.79-.903-2.949h3.111c.045.608.233 1.114.562 1.517s.759.705 1.287.903c.534.199 1.131.298 1.79.298.688 0 1.29-.102 1.807-.307.523-.21.932-.5 1.227-.869.296-.375.446-.812.452-1.312-.006-.455-.139-.83-.401-1.125-.261-.301-.628-.551-1.099-.75-.466-.205-1.012-.386-1.637-.546l-1.985-.511c-1.438-.369-2.574-.929-3.409-1.679-.83-.756-1.245-1.759-1.245-3.009 0-1.028.279-1.929.835-2.702.563-.773 1.327-1.372 2.293-1.798.966-.432 2.06-.648 3.281-.648 1.239 0 2.324.216 3.256.648.938.426 1.673 1.02 2.207 1.781.535.756.81 1.625.827 2.608h-3.042zm9.73 12.92c-.829 0-1.576-.148-2.241-.443-.659-.301-1.182-.744-1.568-1.33s-.571-1.307-.571-2.165c0-.739.136-1.349.409-1.832s.645-.869 1.116-1.159 1.003-.508 1.594-.656a12.98 12.98 0 0 1 1.849-.332l1.867-.213c.477-.068.824-.17 1.04-.307.221-.142.332-.361.332-.656v-.051c0-.642-.19-1.139-.571-1.491s-.929-.528-1.645-.528c-.756 0-1.355.165-1.798.494s-.733.719-.887 1.168l-2.88-.409c.227-.795.602-1.46 1.125-1.994.523-.54 1.162-.943 1.917-1.21.756-.273 1.591-.409 2.506-.409.631 0 1.259.074 1.884.222a5.3 5.3 0 0 1 1.713.733c.517.335.931.793 1.244 1.372.318.58.477 1.304.477 2.173V19h-2.966v-1.798h-.102c-.187.364-.452.704-.793 1.023-.335.313-.758.565-1.269.759-.506.188-1.1.281-1.782.281zm.801-2.267c.62 0 1.157-.122 1.611-.366.455-.25.804-.58 1.049-.989s.375-.855.375-1.338v-1.543c-.097.079-.262.153-.495.222-.227.068-.483.128-.767.179l-.844.136-.724.102c-.46.063-.872.165-1.236.307s-.65.341-.861.597c-.21.25-.315.574-.315.972 0 .568.207.997.622 1.287s.943.435 1.585.435zm20.438-11.088L204.093 19h-3.409l-4.662-13.091h3.29l3.008 9.724h.137l3.017-9.724h3.281zM210.89 19V5.909h3.085V19h-3.085zm1.551-14.949c-.489 0-.909-.162-1.261-.486-.353-.33-.529-.724-.529-1.185 0-.466.176-.861.529-1.185a1.78 1.78 0 0 1 1.261-.494 1.76 1.76 0 0 1 1.261.494c.353.324.529.719.529 1.185 0 .46-.176.855-.529 1.185-.346.324-.767.486-1.261.486zm7.792 7.278V19h-3.085V5.909h2.949v2.224h.153a3.74 3.74 0 0 1 1.44-1.747c.665-.432 1.486-.648 2.463-.648.904 0 1.691.193 2.361.58.676.386 1.199.946 1.568 1.679.375.733.56 1.622.554 2.668V19h-3.085v-7.858c0-.875-.227-1.56-.682-2.054-.449-.494-1.071-.741-1.866-.741-.54 0-1.02.119-1.441.358-.414.233-.741.571-.98 1.014-.233.443-.349.98-.349 1.611zm17.233 12.852c-1.108 0-2.06-.15-2.855-.452-.796-.295-1.435-.693-1.918-1.193s-.818-1.054-1.005-1.662l2.778-.673c.125.256.307.509.545.759.239.256.56.466.963.631.41.17.924.256 1.543.256.875 0 1.599-.213 2.173-.639.574-.421.861-1.114.861-2.08v-2.48h-.153c-.159.318-.392.645-.699.98-.301.335-.702.616-1.202.844-.494.227-1.116.341-1.866.341-1.006 0-1.918-.236-2.736-.707-.813-.477-1.46-1.187-1.943-2.131-.478-.949-.716-2.136-.716-3.562 0-1.437.238-2.651.716-3.639.483-.994 1.133-1.747 1.951-2.259a5.02 5.02 0 0 1 2.736-.776c.767 0 1.398.131 1.892.392.5.256.898.565 1.193.929.296.358.52.696.674 1.014h.17V5.909h3.043v13.304c0 1.119-.267 2.045-.801 2.778s-1.265 1.281-2.191 1.645-1.977.545-3.153.545zm.025-7.79c.654 0 1.211-.159 1.671-.477s.81-.776 1.048-1.372.358-1.312.358-2.148c0-.824-.119-1.546-.358-2.165-.233-.619-.579-1.099-1.04-1.44-.454-.347-1.014-.52-1.679-.52-.687 0-1.261.179-1.721.537s-.807.849-1.04 1.474c-.233.619-.349 1.324-.349 2.114 0 .801.116 1.503.349 2.105.239.597.588 1.063 1.048 1.398.466.33 1.037.494 1.713.494z" fill="#fff"/></svg>