<svg xmlns="http://www.w3.org/2000/svg" width="176" height="13" fill="none"><path d="M10.21.364V12H8.596L2.681 3.466h-.108V12H.817V.364h1.625l5.92 8.545h.108V.364h1.739zm6.101 11.812c-.818 0-1.532-.187-2.142-.562s-1.083-.9-1.42-1.574-.506-1.462-.506-2.364.168-1.697.506-2.375.811-1.205 1.42-1.58 1.324-.562 2.142-.562 1.532.188 2.142.563 1.083.902 1.421 1.58.506 1.47.506 2.375-.169 1.689-.506 2.364-.811 1.199-1.421 1.574-1.324.563-2.142.563zm.006-1.426c.53 0 .97-.14 1.318-.421s.606-.653.773-1.119.256-.979.256-1.54-.085-1.068-.256-1.534-.424-.847-.773-1.131-.788-.426-1.318-.426-.977.142-1.33.426-.608.661-.778 1.131-.25.977-.25 1.534.083 1.074.25 1.54.43.839.778 1.119.796.421 1.33.421zM27.629 12h-1.864L29.952.364h2.028L36.168 12h-1.864l-3.29-9.523h-.091L27.629 12zm.313-4.557h6.045V8.92h-6.045V7.443zm11.47-.625V12h-1.699V3.273h1.631v1.42h.108c.201-.462.515-.833.943-1.114s.975-.42 1.631-.42c.595 0 1.115.125 1.563.375s.793.614 1.04 1.102.369 1.093.369 1.813V12h-1.699V6.653c0-.633-.165-1.127-.494-1.483s-.782-.54-1.358-.54c-.394 0-.744.085-1.051.256s-.544.42-.722.75-.261.72-.261 1.182zm9.563 0V12h-1.699V3.273h1.631v1.42h.108c.201-.462.515-.833.943-1.114s.975-.42 1.631-.42c.595 0 1.115.125 1.563.375s.793.614 1.04 1.102.369 1.093.369 1.813V12H52.86V6.653c0-.633-.165-1.127-.494-1.483s-.782-.54-1.358-.54c-.394 0-.744.085-1.051.256s-.544.42-.722.75-.261.72-.261 1.182zm13.392 1.563V3.273h1.705V12H62.4v-1.511h-.091c-.201.466-.523.854-.966 1.165s-.987.46-1.642.46c-.561 0-1.057-.123-1.489-.369s-.765-.619-1.011-1.108-.364-1.093-.364-1.813V3.273h1.699v5.347c0 .595.165 1.068.494 1.42s.758.528 1.284.528c.318 0 .635-.08.949-.239s.581-.4.79-.722.316-.731.313-1.227zm6.527 3.813c-.553 0-1.053-.102-1.5-.307s-.801-.51-1.062-.903-.386-.877-.386-1.449c0-.492.095-.898.284-1.216s.445-.57.767-.756.682-.326 1.08-.42a10.73 10.73 0 0 1 1.216-.216l1.273-.148c.326-.042.563-.108.71-.199s.222-.239.222-.443v-.04c0-.496-.14-.881-.42-1.153s-.689-.409-1.239-.409c-.572 0-1.023.127-1.352.381s-.551.528-.676.835l-1.597-.364c.189-.53.466-.958.83-1.284s.79-.568 1.267-.716.979-.227 1.506-.227c.349 0 .718.042 1.108.125s.761.227 1.102.443.627.525.847.926.33.915.33 1.551V12h-1.659v-1.193h-.068c-.11.22-.275.436-.494.648s-.502.388-.847.529-.758.21-1.239.21zm.369-1.364c.47 0 .871-.093 1.204-.278a1.95 1.95 0 0 0 .767-.727c.178-.303.267-.627.267-.972V7.727c-.061.061-.178.117-.352.17s-.365.093-.585.131l-.642.097-.523.068c-.329.042-.631.112-.903.21s-.485.241-.648.426-.239.424-.239.727c0 .42.155.739.466.955s.706.318 1.188.318zM77.161.364V12h-1.699V.364h1.699zm9.06 11.83c-.553 0-1.053-.102-1.5-.307s-.801-.51-1.062-.903-.386-.877-.386-1.449c0-.492.095-.898.284-1.216s.445-.57.767-.756.682-.326 1.079-.42a10.73 10.73 0 0 1 1.216-.216l1.273-.148c.326-.042.563-.108.71-.199s.222-.239.222-.443v-.04c0-.496-.14-.881-.421-1.153s-.689-.409-1.239-.409c-.572 0-1.023.127-1.352.381s-.551.528-.676.835l-1.597-.364c.189-.53.466-.958.829-1.284s.79-.568 1.267-.716.979-.227 1.506-.227c.349 0 .718.042 1.108.125s.761.227 1.102.443.627.525.847.926.329.915.329 1.551V12h-1.659v-1.193H88.8c-.11.22-.275.436-.494.648s-.502.388-.847.529-.758.21-1.239.21zm.369-1.364c.47 0 .871-.093 1.205-.278a1.95 1.95 0 0 0 .767-.727c.178-.303.267-.627.267-.972V7.727c-.061.061-.178.117-.352.17s-.366.093-.585.131l-.642.097-.523.068a4.21 4.21 0 0 0-.903.21 1.55 1.55 0 0 0-.648.426c-.159.182-.239.424-.239.727 0 .42.155.739.466.955s.706.318 1.188.318zm7.899-4.011V12h-1.699V3.273h1.631v1.42h.108c.201-.462.515-.833.943-1.114s.975-.42 1.631-.42c.595 0 1.116.125 1.563.375s.794.614 1.04 1.102.37 1.093.37 1.813V12h-1.699V6.653c0-.633-.165-1.127-.494-1.483s-.782-.54-1.358-.54c-.394 0-.744.085-1.051.256s-.544.42-.722.75-.261.72-.261 1.182zm11.131 5.352a3.38 3.38 0 0 1-1.886-.54c-.55-.364-.981-.881-1.296-1.551s-.466-1.483-.466-2.426.157-1.75.472-2.42.754-1.184 1.307-1.54 1.18-.534 1.88-.534c.542 0 .978.091 1.307.273s.591.386.773.625.329.449.432.631h.102V.364h1.699V12h-1.659v-1.358h-.142c-.103.186-.25.398-.443.636s-.451.447-.785.625-.765.267-1.295.267zm.375-1.449c.489 0 .902-.129 1.239-.386s.598-.623.772-1.085.267-1 .267-1.614c0-.606-.087-1.136-.261-1.591s-.43-.809-.767-1.062-.754-.381-1.25-.381c-.511 0-.937.133-1.278.398s-.599.627-.773 1.085-.256.975-.256 1.551c0 .583.087 1.108.262 1.574s.431.835.772 1.108.769.403 1.273.403zM116.739 12V.364h7.216v1.511h-5.46V5.42h4.943v1.506h-4.943V12h-1.756zM127.336.364l2.784 4.551h.091l2.784-4.551h2.034l-3.625 5.818L135.052 12h-2.046l-2.795-4.489h-.091L127.325 12h-2.046l3.71-5.818-3.687-5.818h2.034zM141.005 12V.364h7.216v1.511h-5.46V5.42h4.943v1.506h-4.943V12h-1.756zm12.359.176c-.86 0-1.6-.184-2.221-.551s-1.095-.892-1.432-1.562-.5-1.464-.5-2.369c0-.894.167-1.682.5-2.364s.807-1.214 1.409-1.597 1.314-.574 2.125-.574a4.28 4.28 0 0 1 1.432.244c.462.163.877.419 1.244.767s.657.801.869 1.358.319 1.225.319 2.017v.602h-6.938V6.875h5.273c0-.447-.091-.843-.273-1.187a2.06 2.06 0 0 0-.767-.824c-.326-.201-.708-.301-1.148-.301-.477 0-.894.117-1.25.352s-.625.534-.818.909a2.63 2.63 0 0 0-.284 1.21v.994c0 .583.102 1.08.307 1.489s.498.722.869.937.805.318 1.301.318c.322 0 .616-.045.881-.136s.494-.235.688-.421.34-.415.443-.687l1.608.29c-.129.474-.36.888-.693 1.244s-.745.627-1.245.824-1.062.29-1.699.29zm9.391 0c-.86 0-1.6-.184-2.222-.551-.617-.371-1.094-.892-1.431-1.562s-.5-1.464-.5-2.369c0-.894.166-1.682.5-2.364s.806-1.214 1.409-1.597 1.314-.574 2.125-.574c.492 0 .969.081 1.431.244s.877.419 1.245.767.657.801.869 1.358.318 1.225.318 2.017v.602h-6.937V6.875h5.273c0-.447-.091-.843-.273-1.187s-.438-.623-.767-.824-.709-.301-1.148-.301c-.477 0-.894.117-1.25.352s-.625.534-.818.909-.284.775-.284 1.21v.994c0 .583.102 1.08.307 1.489s.498.722.869.937.805.318 1.301.318c.322 0 .616-.045.881-.136a1.9 1.9 0 0 0 .687-.421c.193-.186.341-.415.443-.687l1.608.29c-.128.474-.36.888-.693 1.244s-.744.627-1.244.824-1.063.29-1.699.29zm12.169-6.773l-1.54.273a1.8 1.8 0 0 0-.307-.562c-.136-.178-.322-.324-.556-.437s-.529-.17-.881-.17c-.481 0-.883.108-1.205.324s-.483.487-.483.824c0 .292.108.527.324.705s.565.324 1.046.438l1.386.318c.803.186 1.402.472 1.796.858s.59.888.59 1.506c0 .523-.151.989-.454 1.398s-.718.723-1.256.954-1.153.347-1.858.347c-.977 0-1.774-.208-2.392-.625s-.996-1.017-1.136-1.79l1.642-.25c.102.428.312.752.631.972s.733.324 1.244.324c.557 0 1.002-.116 1.335-.347s.5-.521.5-.858a.89.89 0 0 0-.307-.687c-.2-.186-.509-.326-.926-.42l-1.477-.324c-.814-.186-1.417-.481-1.807-.886s-.579-.919-.579-1.54a2.2 2.2 0 0 1 .431-1.352c.288-.386.686-.688 1.194-.903s1.089-.33 1.744-.33c.943 0 1.685.205 2.227.614a2.85 2.85 0 0 1 1.074 1.631z" fill="#fff"/></svg>