<svg xmlns="http://www.w3.org/2000/svg" width="70" height="9" fill="none" ><path d="M.039 8.685v-8h1.449V7.47h3.523v1.215H.039zm6.23 0v-8h5.203V1.9H7.719v2.172h3.484v1.215H7.719V7.47h3.785v1.215H6.27zm7.709 0h-1.547l2.816-8h1.789l2.82 8h-1.547l-2.137-6.359h-.062l-2.133 6.359zm.051-3.137h4.219v1.164h-4.219V5.548zm6.882 3.137v-8h3c.615 0 1.13.107 1.547.32s.736.513.949.898.324.829.324 1.34-.109.958-.328 1.336-.535.665-.957.871-.94.305-1.555.305h-2.137V4.552h1.941c.359 0 .654-.049.883-.148a1.05 1.05 0 0 0 .508-.441c.112-.195.168-.435.168-.719s-.056-.526-.168-.727-.282-.357-.512-.461-.525-.16-.887-.16H22.36v6.789h-1.449zm4.133-3.625l1.98 3.625h-1.617L23.462 5.06h1.582zM34.64.685v8h-1.289l-3.77-5.449h-.066v5.449h-1.449v-8h1.297l3.766 5.453h.07V.685h1.441zm4.308 0h1.773l2.375 5.797h.094L45.565.685h1.773v8h-1.391V3.189h-.074l-2.211 5.473h-1.039l-2.211-5.484h-.074v5.508h-1.391v-8zm17.117 4c0 .862-.162 1.6-.484 2.215a3.43 3.43 0 0 1-1.312 1.406c-.552.326-1.178.488-1.879.488s-1.328-.163-1.883-.488-.99-.798-1.312-1.41-.48-1.352-.48-2.211.16-1.599.48-2.211.76-1.085 1.313-1.41 1.182-.488 1.883-.488 1.327.163 1.879.488.992.796 1.313 1.41.484 1.349.484 2.211zm-1.457 0c0-.607-.095-1.118-.285-1.535s-.448-.736-.781-.949a2.07 2.07 0 0 0-1.152-.324 2.07 2.07 0 0 0-1.152.324c-.333.214-.595.53-.785.949s-.281.928-.281 1.535.094 1.12.281 1.539.452.733.785.949a2.09 2.09 0 0 0 1.152.32c.435 0 .819-.107 1.152-.32s.594-.533.781-.949.285-.932.285-1.539zm2.827 4v-8h3c.615 0 1.13.107 1.547.32s.736.513.949.898.324.829.324 1.34-.109.958-.328 1.336-.535.665-.957.871-.94.305-1.555.305h-2.137V4.552h1.941c.359 0 .654-.049.883-.148a1.05 1.05 0 0 0 .508-.441c.112-.195.168-.435.168-.719a1.47 1.47 0 0 0-.168-.727c-.112-.203-.283-.357-.512-.461s-.525-.16-.887-.16h-1.328v6.789h-1.449zm4.133-3.625l1.98 3.625h-1.617L59.985 5.06h1.582zm3.021 3.625v-8h5.203V1.9h-3.754v2.172h3.484v1.215h-3.484V7.47h3.785v1.215h-5.234z" fill="#fff"/></svg>