<svg xmlns="http://www.w3.org/2000/svg" width="81" height="18" fill="none"><path fill-rule="evenodd" d="M62.444 3.141c.636.753 1.113 1.628 1.43 2.625s.477 2.062.477 3.196l-.029 1.956H52.735c.043 1.08.397 1.956 1.047 2.625.693.715 1.893 1.073 3.265 1.073 1.055 0 1.987-.206 2.659-.624a7.32 7.32 0 0 0 1.784-1.59l2.261 2.428c-.701.944-1.647 1.689-2.868 2.222-1.214.54-2.695.807-4.291.807-1.264 0-2.478-.205-3.475-.616-.99-.411-1.828-.982-2.521-1.727-.686-.746-1.214-1.644-1.589-2.701s-.556-2.252-.556-3.569c0-1.301.181-2.473.542-3.523a7.58 7.58 0 0 1 1.553-2.686c.679-.746 1.51-1.316 2.492-1.727.99-.411 2.182-.616 3.424-.616 1.337 0 2.572.221 3.547.662.989.434 1.799 1.035 2.434 1.788zm-9.709 4.482h7.592.014V7.54c0-1.134-.332-1.735-.989-2.45s-1.698-1.119-2.817-1.119-2.16.403-2.818 1.119-.982 1.316-.982 2.45v.084zM25.023 1.079l-2.362 8.142a27.59 27.59 0 0 0-.737 3.242v.015h-.072c-.045-.422-.139-.844-.226-1.236l-.107-.499-2.601-9.664h-5.31l-2.579 9.656-.107.499-.226 1.236h-.072v-.015c-.181-1.096-.426-2.176-.737-3.242L7.534 1.079H3.77l1.105 3.828H.866v2.739h4.797l.787 2.724H.866v2.747h6.372l1.257 4.391h4.493l3.041-11.513a8.25 8.25 0 0 0 .21-1.217h.072c.022.32.108.791.202 1.217l3.041 11.513h4.501l4.732-16.429h-3.764zm9.94 0h-4.002v16.429h4.002V1.079zm3.049 16.429V1.079h9.774v3.257h-6.097v13.172h-3.677zm32.061-8.363l-5.859 8.363h4.472l3.619-5.692h.137l3.626 5.684h4.797l-5.859-8.294 5.794-8.127h-4.472l-3.49 5.418h-.137L69.17 1.079h-4.797l5.7 8.066z" fill="#fff"/></svg>