<svg xmlns="http://www.w3.org/2000/svg" width="241" height="25" fill="none"><path d="M.024 1.545h2.991l4.56 7.935h.188l4.56-7.935h2.992L8.982 12.148V19H6.357v-6.852L.024 1.545zm20.93 17.719c-1.227 0-2.298-.281-3.213-.844s-1.625-1.349-2.131-2.361-.758-2.193-.758-3.545c0-1.358.253-2.545.758-3.562s1.216-1.807 2.131-2.369 1.986-.844 3.213-.844 2.298.281 3.213.844 1.625 1.352 2.131 2.369.759 2.204.759 3.563c0 1.352-.253 2.534-.759 3.545s-1.216 1.798-2.131 2.361-1.986.844-3.213.844zm.009-2.139c.795 0 1.454-.21 1.977-.631s.909-.98 1.159-1.679c.256-.699.383-1.469.383-2.31 0-.835-.128-1.602-.383-2.301-.25-.704-.636-1.27-1.159-1.696s-1.182-.639-1.977-.639c-.801 0-1.466.213-1.994.639-.523.426-.912.991-1.168 1.696-.25.699-.375 1.466-.375 2.301 0 .841.125 1.611.375 2.31.256.699.645 1.259 1.168 1.679.528.421 1.193.631 1.994.631zm17.231-3.554V5.909h2.557V19h-2.506v-2.267h-.136c-.301.699-.784 1.281-1.449 1.747-.659.46-1.48.69-2.463.69-.841 0-1.585-.185-2.233-.554-.642-.375-1.148-.929-1.517-1.662-.364-.733-.545-1.639-.545-2.719V5.909h2.548v8.02c0 .892.247 1.602.741 2.131s1.136.793 1.926.793c.477 0 .952-.119 1.423-.358.477-.239.872-.599 1.185-1.082.318-.483.474-1.097.469-1.841zM44.174 19V5.909h2.463v2.08h.136c.239-.705.659-1.259 1.261-1.662a3.61 3.61 0 0 1 2.063-.614l.563.017.52.043V8.21a4.57 4.57 0 0 0-.545-.094c-.261-.04-.523-.06-.784-.06-.602 0-1.139.128-1.611.384a2.85 2.85 0 0 0-1.108 1.048c-.273.443-.409.949-.409 1.517V19h-2.548zM59.08 3.813V1.545h13.509v2.267h-5.446V19h-2.625V3.813H59.08zM75.369 19V5.909h2.548V19h-2.548zm1.287-15.111a1.62 1.62 0 0 1-1.142-.443 1.44 1.44 0 0 1-.469-1.074c0-.42.156-.778.469-1.074.318-.301.699-.452 1.142-.452s.821.151 1.134.452a1.41 1.41 0 0 1 .477 1.074c0 .415-.159.773-.477 1.074a1.59 1.59 0 0 1-1.134.443zM86.86 19.264c-1.267 0-2.358-.287-3.273-.861-.909-.58-1.608-1.378-2.097-2.395s-.733-2.182-.733-3.494c0-1.33.25-2.503.75-3.52.5-1.023 1.205-1.821 2.114-2.395s1.98-.861 3.213-.861c.994 0 1.881.185 2.659.554.778.364 1.406.875 1.883 1.534.483.659.77 1.429.861 2.31h-2.48c-.136-.614-.449-1.142-.937-1.585-.483-.443-1.131-.665-1.943-.665-.71 0-1.332.188-1.866.563-.528.369-.94.898-1.236 1.585-.296.682-.443 1.489-.443 2.42 0 .955.145 1.779.435 2.472s.699 1.23 1.227 1.611c.534.381 1.162.571 1.883.571.483 0 .921-.088 1.313-.264a2.68 2.68 0 0 0 .997-.776c.273-.335.463-.739.571-1.21h2.48c-.091.846-.367 1.602-.827 2.267s-1.077 1.188-1.849 1.568c-.767.381-1.668.571-2.702.571zm10.447-4.704l-.017-3.111h.443l5.216-5.54H106l-5.949 6.307h-.4l-2.344 2.344zM94.963 19V1.545h2.548V19h-2.548zm8.267 0l-4.687-6.222 1.755-1.781 6.06 8.003h-3.128zm10.195.264c-1.289 0-2.4-.276-3.332-.827a5.61 5.61 0 0 1-2.148-2.344c-.5-1.011-.75-2.196-.75-3.554 0-1.341.25-2.523.75-3.545.506-1.023 1.211-1.821 2.114-2.395.909-.574 1.972-.861 3.187-.861.739 0 1.455.122 2.148.366s1.316.628 1.867 1.151.985 1.202 1.304 2.037c.318.83.477 1.838.477 3.026v.903h-10.406v-1.909h7.909c0-.671-.137-1.264-.409-1.781-.273-.523-.657-.935-1.151-1.236s-1.062-.452-1.722-.452c-.715 0-1.34.176-1.875.528a3.55 3.55 0 0 0-1.227 1.364c-.284.557-.426 1.162-.426 1.815v1.492c0 .875.153 1.619.46 2.233a3.33 3.33 0 0 0 1.304 1.406c.557.318 1.208.477 1.952.477.483 0 .923-.068 1.321-.205a2.85 2.85 0 0 0 1.031-.631c.29-.278.512-.622.665-1.031l2.412.435c-.193.71-.54 1.332-1.04 1.867-.494.528-1.116.94-1.866 1.236-.745.29-1.594.435-2.549.435zM127.98 5.909v2.045h-7.15V5.909h7.15zm-5.233-3.136h2.548v12.383c0 .494.074.867.222 1.117.148.244.338.412.571.503.239.085.497.128.776.128a2.99 2.99 0 0 0 .537-.043l.358-.068.46 2.105a4.29 4.29 0 0 1-.631.171c-.273.063-.614.097-1.023.102a4.49 4.49 0 0 1-1.875-.358 3.22 3.22 0 0 1-1.406-1.159c-.358-.523-.537-1.179-.537-1.969V2.773zm20.514 3.136v2.045h-7.15V5.909h7.15zm-5.233-3.136h2.549v12.383c0 .494.074.867.221 1.117.148.244.338.412.571.503.239.085.497.128.776.128a2.99 2.99 0 0 0 .537-.043l.358-.068.46 2.105a4.29 4.29 0 0 1-.631.171 4.98 4.98 0 0 1-1.022.102c-.671.011-1.296-.108-1.875-.358s-1.049-.636-1.407-1.159-.537-1.179-.537-1.969V2.773zm13.426 16.491c-1.227 0-2.298-.281-3.213-.844s-1.625-1.349-2.131-2.361-.758-2.193-.758-3.545c0-1.358.252-2.545.758-3.562s1.216-1.807 2.131-2.369 1.986-.844 3.213-.844 2.298.281 3.213.844 1.625 1.352 2.131 2.369.758 2.204.758 3.563c0 1.352-.253 2.534-.758 3.545s-1.216 1.798-2.131 2.361-1.986.844-3.213.844zm.008-2.139c.796 0 1.455-.21 1.978-.631s.909-.98 1.159-1.679c.255-.699.383-1.469.383-2.31 0-.835-.128-1.602-.383-2.301-.25-.704-.637-1.27-1.159-1.696s-1.182-.639-1.978-.639-1.466.213-1.994.639c-.523.426-.912.991-1.168 1.696-.25.699-.375 1.466-.375 2.301 0 .841.125 1.611.375 2.31.256.699.645 1.259 1.168 1.679.528.421 1.193.631 1.994.631zm25.015-10.994c-.091-.807-.466-1.432-1.125-1.875-.66-.449-1.489-.673-2.489-.673-.716 0-1.335.114-1.858.341-.523.222-.929.528-1.219.92-.284.386-.426.827-.426 1.321 0 .415.097.773.29 1.074.199.301.457.554.775.759a5.88 5.88 0 0 0 1.04.503l1.066.324 1.704.443a12.98 12.98 0 0 1 1.713.554c.585.233 1.128.54 1.628.92s.903.852 1.21 1.415c.313.563.469 1.236.469 2.02 0 .989-.256 1.867-.767 2.634s-1.242 1.372-2.207 1.815-2.123.665-3.486.665c-1.307 0-2.438-.207-3.392-.622s-1.702-1.003-2.242-1.764c-.54-.767-.838-1.676-.895-2.727h2.642c.052.631.256 1.156.614 1.577.364.415.827.724 1.389.929.568.199 1.191.298 1.867.298.744 0 1.406-.116 1.985-.349.586-.239 1.046-.568 1.381-.989.335-.426.503-.923.503-1.491 0-.517-.148-.94-.443-1.27s-.685-.602-1.185-.818c-.494-.216-1.054-.406-1.679-.571l-2.062-.562c-1.398-.381-2.506-.94-3.324-1.679s-1.219-1.716-1.219-2.932c0-1.006.273-1.884.818-2.634s1.284-1.332 2.216-1.747c.932-.42 1.983-.631 3.154-.631 1.181 0 2.224.207 3.127.622.91.415 1.625.986 2.148 1.713a4.31 4.31 0 0 1 .818 2.489h-2.539zm9.53 13.159c-.829 0-1.579-.153-2.25-.46-.67-.312-1.202-.764-1.594-1.355-.386-.591-.579-1.315-.579-2.173 0-.739.142-1.347.426-1.824s.668-.855 1.151-1.133 1.022-.489 1.619-.631 1.204-.25 1.824-.324l1.909-.222c.488-.062.844-.162 1.065-.298s.333-.358.333-.665v-.06c0-.744-.211-1.321-.631-1.73s-1.034-.614-1.858-.614c-.858 0-1.534.19-2.029.571-.488.375-.826.793-1.014 1.253l-2.395-.545c.284-.795.699-1.437 1.245-1.926.551-.494 1.184-.852 1.9-1.074.716-.227 1.469-.341 2.259-.341.523 0 1.076.063 1.662.188a4.86 4.86 0 0 1 1.653.665c.517.324.94.787 1.27 1.389.33.597.494 1.372.494 2.327V19h-2.488v-1.79h-.103c-.164.33-.412.653-.741.972s-.753.582-1.27.793-1.136.315-1.858.315zm.554-2.046c.705 0 1.307-.139 1.807-.418.506-.278.889-.642 1.15-1.091a2.82 2.82 0 0 0 .401-1.457v-1.687c-.091.091-.267.176-.528.256-.256.074-.549.139-.878.196l-.963.145-.784.102c-.495.063-.946.168-1.355.315s-.728.361-.972.639c-.239.273-.358.636-.358 1.091 0 .631.233 1.108.699 1.432.466.318 1.059.477 1.781.477zm20.031-11.335L201.844 19h-2.727l-4.755-13.091h2.735l3.316 10.074h.136l3.307-10.074h2.736zM208.987 19V5.909h2.548V19h-2.548zm1.286-15.111a1.62 1.62 0 0 1-1.142-.443 1.44 1.44 0 0 1-.468-1.074c0-.42.156-.778.468-1.074.319-.301.699-.452 1.142-.452s.821.151 1.134.452a1.41 1.41 0 0 1 .477 1.074c0 .415-.159.773-.477 1.074a1.59 1.59 0 0 1-1.134.443zm7.238 7.338V19h-2.548V5.909h2.446V8.04h.162a3.74 3.74 0 0 1 1.415-1.67c.648-.42 1.463-.631 2.446-.631.892 0 1.673.188 2.344.563.67.369 1.19.92 1.559 1.653s.554 1.639.554 2.719V19h-2.548v-8.02c0-.949-.247-1.69-.742-2.224-.494-.54-1.173-.81-2.037-.81-.59 0-1.116.128-1.576.384-.455.256-.816.631-1.083 1.125-.261.489-.392 1.08-.392 1.773zm17.284 12.955c-1.039 0-1.934-.136-2.684-.409-.745-.273-1.352-.634-1.824-1.082s-.824-.94-1.057-1.474l2.19-.903a5.29 5.29 0 0 0 .614.793c.261.284.614.526 1.057.724.449.199 1.025.298 1.73.298.966 0 1.764-.236 2.395-.707.631-.466.946-1.21.946-2.233v-2.574H238c-.153.278-.375.588-.665.929-.284.341-.676.636-1.176.886s-1.15.375-1.952.375c-1.034 0-1.966-.241-2.795-.724-.824-.489-1.477-1.207-1.96-2.156-.478-.955-.716-2.128-.716-3.52s.236-2.585.707-3.58c.477-.994 1.131-1.756 1.96-2.284.83-.534 1.77-.801 2.821-.801.813 0 1.469.136 1.969.409.5.267.889.58 1.168.938.284.358.503.673.656.946h.188V5.909h2.497V19.29c0 1.125-.262 2.048-.784 2.77s-1.23 1.256-2.123 1.602c-.886.347-1.886.52-3 .52zm-.025-7.491c.733 0 1.352-.17 1.858-.511.511-.347.898-.841 1.159-1.483.267-.648.401-1.423.401-2.327 0-.881-.131-1.656-.393-2.327s-.644-1.193-1.15-1.568c-.506-.381-1.131-.571-1.875-.571-.767 0-1.406.199-1.918.597-.511.392-.897.926-1.159 1.602-.255.676-.383 1.432-.383 2.267 0 .858.13 1.611.392 2.258s.647 1.153 1.159 1.517 1.153.545 1.909.545z" fill="#fff"/></svg>