<svg xmlns="http://www.w3.org/2000/svg" width="87" height="35" fill="none"><path d="M4.157 12.685L.93 1.049h1.847l2.267 9.011h.108l2.358-9.011h1.83l2.358 9.017h.108l2.261-9.017h1.852l-3.233 11.636h-1.767L8.47 3.969h-.091L5.93 12.685H4.157zm16.043.176c-.818 0-1.532-.187-2.142-.562s-1.083-.9-1.42-1.574-.506-1.462-.506-2.364.169-1.697.506-2.375.811-1.205 1.42-1.58 1.324-.562 2.142-.562 1.532.188 2.142.563 1.083.902 1.421 1.58.506 1.47.506 2.375-.169 1.689-.506 2.364-.811 1.199-1.421 1.574-1.324.563-2.142.563zm.006-1.426c.53 0 .97-.14 1.318-.421s.606-.653.773-1.119.256-.979.256-1.54-.085-1.068-.256-1.534-.424-.847-.773-1.131-.788-.426-1.318-.426-.977.142-1.33.426-.608.661-.778 1.131-.25.977-.25 1.534.083 1.074.25 1.54.43.839.778 1.119.795.421 1.33.421zm5.959 1.25V3.958h1.642v1.386h.091a2.11 2.11 0 0 1 .841-1.108c.405-.273.864-.409 1.375-.409l.375.011.347.028v1.625c-.068-.019-.189-.04-.364-.062a3.47 3.47 0 0 0-.523-.04c-.402 0-.759.085-1.074.256a1.9 1.9 0 0 0-.739.699 1.89 1.89 0 0 0-.273 1.011v5.33h-1.699zm9.095.17c-.704 0-1.333-.18-1.886-.54s-.981-.881-1.296-1.551-.466-1.483-.466-2.426.157-1.75.472-2.42.754-1.184 1.307-1.54 1.18-.534 1.881-.534c.542 0 .977.091 1.307.273s.591.386.773.625a5.28 5.28 0 0 1 .432.631h.102V1.049h1.699v11.636h-1.659v-1.358h-.142a4.5 4.5 0 0 1-.443.636c-.189.239-.451.447-.784.625s-.765.267-1.296.267zm.375-1.449c.489 0 .901-.129 1.239-.386s.599-.623.773-1.085.267-1 .267-1.614c0-.606-.087-1.136-.261-1.591s-.43-.809-.767-1.062-.754-.381-1.25-.381c-.511 0-.937.133-1.278.398s-.599.627-.773 1.085-.256.975-.256 1.551c0 .583.087 1.108.261 1.574s.432.835.773 1.108.769.403 1.273.403zm20.409-6.574h-1.773a2.71 2.71 0 0 0-.381-1 2.8 2.8 0 0 0-.682-.733c-.269-.201-.57-.352-.903-.455s-.68-.153-1.051-.153c-.67 0-1.271.169-1.801.506s-.943.831-1.25 1.483-.454 1.447-.454 2.386c0 .947.151 1.746.454 2.398s.725 1.144 1.256 1.477 1.127.5 1.79.5a3.63 3.63 0 0 0 1.045-.148c.333-.102.634-.252.903-.449a2.75 2.75 0 0 0 .682-.722c.189-.288.32-.617.392-.989l1.773.006c-.095.572-.278 1.098-.551 1.58a4.36 4.36 0 0 1-1.04 1.239 4.7 4.7 0 0 1-1.443.801c-.542.189-1.133.284-1.773.284-1.008 0-1.905-.239-2.693-.716s-1.409-1.168-1.864-2.062-.676-1.96-.676-3.199.227-2.309.682-3.199 1.076-1.58 1.864-2.057S50.233.89 51.237.89a5.43 5.43 0 0 1 1.727.267 4.56 4.56 0 0 1 1.449.773 4.25 4.25 0 0 1 1.063 1.239c.28.485.47 1.04.568 1.665zm3.663-3.784v11.636h-1.699V1.049h1.699zm4.825 11.83c-.553 0-1.053-.102-1.5-.307s-.801-.509-1.062-.903-.386-.877-.386-1.449c0-.492.095-.898.284-1.216s.445-.57.767-.756.682-.326 1.08-.42.803-.167 1.216-.216l1.273-.148c.326-.042.563-.108.71-.199s.222-.239.222-.443v-.04c0-.496-.14-.881-.42-1.153s-.689-.409-1.239-.409c-.572 0-1.023.127-1.352.381s-.551.528-.676.835l-1.597-.364c.189-.53.466-.958.83-1.284s.79-.568 1.267-.716.979-.227 1.506-.227c.349 0 .718.042 1.108.125s.761.227 1.102.443.627.525.847.926.33.915.33 1.551v5.796H67.18v-1.193h-.068c-.11.22-.275.436-.494.648s-.502.388-.847.528-.758.21-1.239.21zm.369-1.364c.47 0 .871-.093 1.204-.278a1.95 1.95 0 0 0 .767-.727c.178-.303.267-.627.267-.972V8.412c-.061.061-.178.117-.352.17s-.365.093-.585.131l-.642.097-.523.068c-.33.042-.631.112-.903.21s-.485.241-.648.426-.239.424-.239.727c0 .42.155.739.466.955s.706.318 1.188.318zm12.74-5.426l-1.54.273c-.064-.197-.167-.384-.307-.562s-.322-.324-.557-.437-.528-.17-.881-.17c-.481 0-.882.108-1.204.324s-.483.487-.483.824c0 .292.108.527.324.705s.564.324 1.046.438l1.386.318c.803.186 1.401.472 1.796.858s.591.888.591 1.506c0 .523-.151.989-.455 1.398s-.718.723-1.256.954-1.153.347-1.858.347c-.977 0-1.775-.208-2.392-.625s-.996-1.017-1.136-1.79l1.642-.25c.102.428.313.752.631.972s.733.324 1.244.324c.557 0 1.002-.116 1.335-.347s.5-.521.5-.858a.89.89 0 0 0-.307-.687c-.201-.186-.51-.326-.926-.42l-1.477-.324c-.814-.186-1.417-.481-1.807-.886s-.579-.919-.579-1.54a2.2 2.2 0 0 1 .432-1.352c.288-.386.686-.687 1.193-.903s1.089-.33 1.744-.33c.943 0 1.686.205 2.227.614s.9.949 1.074 1.631zm8.578 0l-1.54.273c-.064-.197-.167-.384-.307-.562s-.322-.324-.557-.437-.528-.17-.881-.17c-.481 0-.883.108-1.205.324s-.483.487-.483.824c0 .292.108.527.324.705s.564.324 1.046.438l1.386.318c.803.186 1.401.472 1.795.858s.591.888.591 1.506c0 .523-.151.989-.455 1.398s-.718.723-1.256.954-1.153.347-1.858.347c-.977 0-1.775-.208-2.392-.625s-.996-1.017-1.136-1.79l1.642-.25c.102.428.313.752.631.972s.733.324 1.244.324c.557 0 1.002-.116 1.335-.347s.5-.521.5-.858a.89.89 0 0 0-.307-.687c-.201-.186-.51-.326-.926-.42l-1.477-.324c-.814-.186-1.417-.481-1.807-.886s-.58-.919-.58-1.54a2.2 2.2 0 0 1 .432-1.352c.288-.386.686-.687 1.193-.903s1.089-.33 1.744-.33c.943 0 1.686.205 2.227.614s.9.949 1.074 1.631zM8.225 23.106a1.66 1.66 0 0 0-.75-1.25c-.439-.299-.992-.449-1.659-.449-.477 0-.89.076-1.239.227s-.619.352-.812.614-.284.551-.284.881c0 .277.064.515.193.716s.305.369.517.506a3.91 3.91 0 0 0 .693.335l.71.216 1.136.295c.371.091.752.214 1.142.369a4.58 4.58 0 0 1 1.085.614 2.94 2.94 0 0 1 .807.943c.208.375.312.824.312 1.347 0 .659-.17 1.244-.511 1.756s-.828.915-1.472 1.21-1.415.443-2.324.443c-.871 0-1.625-.138-2.261-.415s-1.134-.669-1.494-1.176-.559-1.117-.597-1.818H3.18c.034.421.17.771.409 1.051a2.21 2.21 0 0 0 .926.619c.379.133.794.199 1.244.199.496 0 .938-.078 1.324-.233s.697-.379.92-.659a1.56 1.56 0 0 0 .335-.994c0-.345-.098-.627-.295-.847s-.456-.401-.79-.545-.703-.271-1.119-.381l-1.375-.375c-.932-.254-1.67-.627-2.216-1.119s-.812-1.144-.812-1.955c0-.67.182-1.256.545-1.756s.856-.888 1.477-1.165 1.322-.42 2.102-.42c.788 0 1.483.138 2.085.415s1.083.657 1.432 1.142.53 1.034.545 1.659H8.225zm7.575 8.756c-.86 0-1.6-.184-2.222-.551s-1.095-.892-1.432-1.562-.5-1.464-.5-2.369c0-.894.167-1.682.5-2.364s.807-1.214 1.409-1.597 1.314-.574 2.125-.574c.492 0 .97.081 1.432.244s.877.419 1.244.767.657.801.869 1.358.318 1.225.318 2.017v.602h-6.937V26.56h5.273c0-.447-.091-.843-.273-1.187a2.06 2.06 0 0 0-.767-.824c-.326-.201-.708-.301-1.148-.301-.477 0-.894.117-1.25.352s-.625.534-.818.909-.284.775-.284 1.21v.994c0 .583.102 1.079.307 1.489a2.22 2.22 0 0 0 .869.938c.371.212.805.318 1.301.318.322 0 .615-.046.881-.136s.494-.235.688-.42.341-.415.443-.687l1.608.29c-.129.474-.36.888-.693 1.244s-.744.627-1.244.824-1.062.29-1.699.29zm9.305 0c-.845 0-1.572-.191-2.182-.574s-1.072-.918-1.398-1.597-.489-1.454-.489-2.329c0-.886.167-1.669.5-2.347a3.83 3.83 0 0 1 1.409-1.597c.606-.383 1.32-.574 2.142-.574.663 0 1.254.123 1.773.369a3.18 3.18 0 0 1 1.256 1.023 3.09 3.09 0 0 1 .574 1.54h-1.653a1.98 1.98 0 0 0-.625-1.057c-.322-.295-.754-.443-1.295-.443a2.11 2.11 0 0 0-1.244.375c-.352.246-.627.599-.824 1.057s-.295.992-.295 1.614c0 .636.097 1.186.29 1.648s.466.82.818 1.074.775.381 1.256.381c.322 0 .614-.059.875-.176a1.79 1.79 0 0 0 .665-.517c.182-.223.309-.492.381-.807h1.653c-.061.564-.244 1.068-.551 1.511s-.718.792-1.233 1.045-1.112.381-1.801.381zm10.93-3.796v-5.108h1.705v8.727h-1.67v-1.511h-.091c-.201.466-.523.854-.966 1.165s-.987.46-1.642.46c-.561 0-1.057-.123-1.489-.369s-.765-.619-1.011-1.108-.364-1.093-.364-1.812v-5.551h1.699v5.347c0 .595.165 1.068.494 1.42s.758.528 1.284.528c.318 0 .634-.079.949-.239s.581-.4.79-.722.316-.731.313-1.227zm3.987 3.619v-8.727h1.642v1.386h.091a2.11 2.11 0 0 1 .841-1.108c.405-.273.864-.409 1.375-.409l.375.011.347.028v1.625a3.03 3.03 0 0 0-.364-.062c-.174-.027-.349-.04-.523-.04-.401 0-.759.085-1.074.256a1.9 1.9 0 0 0-.739.699 1.89 1.89 0 0 0-.273 1.011v5.33h-1.699zm6.141 0v-8.727h1.699v8.727h-1.699zm.858-10.074a1.08 1.08 0 0 1-.761-.296.96.96 0 0 1-.312-.716.95.95 0 0 1 .313-.716 1.07 1.07 0 0 1 .761-.301 1.05 1.05 0 0 1 .756.301.94.94 0 0 1 .318.716c0 .277-.106.515-.318.716a1.06 1.06 0 0 1-.756.296zm7.2 1.347v1.364h-4.767v-1.364h4.767zm-3.489-2.091h1.699v8.256c0 .33.049.578.148.744a.77.77 0 0 0 .381.335c.159.057.331.085.517.085a1.98 1.98 0 0 0 .358-.028l.239-.045.307 1.403c-.099.038-.239.076-.42.114s-.409.064-.682.068a2.99 2.99 0 0 1-1.25-.239c-.386-.167-.699-.424-.937-.773s-.358-.786-.358-1.312v-8.608zm6.442 14.091c-.254 0-.485-.021-.693-.062s-.364-.08-.466-.125l.409-1.392a2.74 2.74 0 0 0 .83.108c.242-.011.456-.102.642-.273s.356-.449.5-.835l.21-.579-3.193-8.841h1.818l2.21 6.773h.091l2.21-6.773h1.824l-3.597 9.892c-.167.455-.379.839-.636 1.153a2.47 2.47 0 0 1-.92.716c-.356.159-.769.239-1.239.239z" fill="#fff"/></svg>