<svg xmlns="http://www.w3.org/2000/svg" width="93" height="31" fill="none"><path d="M10.271.049v11.636H8.657L2.742 3.151h-.108v8.534H.879V.049h1.625l5.92 8.545h.108V.049h1.739zm6.101 11.813c-.818 0-1.532-.187-2.142-.562s-1.083-.9-1.42-1.574-.506-1.462-.506-2.364.168-1.697.506-2.375.811-1.205 1.42-1.58 1.324-.562 2.142-.562 1.532.188 2.142.563 1.083.902 1.42 1.58.506 1.47.506 2.375-.169 1.689-.506 2.364-.811 1.199-1.42 1.574-1.324.563-2.142.563zm.006-1.426c.53 0 .97-.14 1.318-.421s.606-.653.773-1.119a4.45 4.45 0 0 0 .256-1.54c0-.557-.085-1.068-.256-1.534s-.424-.847-.773-1.131-.788-.426-1.318-.426-.977.142-1.33.426-.608.661-.778 1.131-.25.977-.25 1.534.083 1.074.25 1.54.43.839.778 1.119.795.421 1.33.421zm11.313 1.25h-1.864L30.014.049h2.028l4.188 11.636h-1.864l-3.29-9.523h-.091l-3.295 9.523zm.313-4.557h6.046v1.477h-6.046V7.128zm11.47-.625v5.182h-1.699V2.958h1.631v1.42h.108c.201-.462.515-.833.943-1.114s.975-.42 1.631-.42c.595 0 1.116.125 1.563.375s.794.614 1.04 1.102.369 1.093.369 1.813v5.551h-1.699V6.338c0-.633-.165-1.127-.494-1.483s-.782-.54-1.358-.54c-.394 0-.744.085-1.051.256s-.544.42-.722.75-.261.72-.261 1.182zm9.563 0v5.182h-1.699V2.958h1.631v1.42h.108c.201-.462.515-.833.943-1.114s.975-.42 1.631-.42c.595 0 1.116.125 1.563.375s.794.614 1.04 1.102.369 1.093.369 1.813v5.551h-1.699V6.338c0-.633-.165-1.127-.494-1.483s-.782-.54-1.358-.54c-.394 0-.744.085-1.051.256s-.544.42-.722.75-.261.72-.261 1.182zm13.392 1.563V2.958h1.705v8.727h-1.671v-1.511h-.091c-.201.466-.523.854-.966 1.165s-.987.46-1.642.46c-.561 0-1.057-.123-1.489-.369s-.765-.619-1.011-1.108-.364-1.093-.364-1.812V2.958h1.699v5.347c0 .595.165 1.068.494 1.42s.758.528 1.284.528c.318 0 .634-.079.949-.239s.581-.4.79-.722.316-.731.313-1.227zm6.527 3.812c-.553 0-1.053-.102-1.5-.307s-.801-.509-1.062-.903-.386-.877-.386-1.449c0-.492.095-.898.284-1.216s.445-.57.767-.756.682-.326 1.08-.42.803-.167 1.216-.216l1.273-.148c.326-.042.563-.108.71-.199s.222-.239.222-.443v-.04c0-.496-.14-.881-.42-1.153s-.689-.409-1.239-.409c-.572 0-1.023.127-1.352.381s-.551.528-.676.835l-1.597-.364c.189-.53.466-.958.83-1.284s.79-.568 1.267-.716.979-.227 1.506-.227a5.31 5.31 0 0 1 1.108.125c.394.08.761.227 1.102.443s.627.525.847.926.33.915.33 1.551v5.796h-1.659v-1.193h-.068c-.11.22-.275.436-.494.648s-.502.388-.847.528-.758.21-1.239.21zm.369-1.364c.47 0 .871-.093 1.204-.278s.593-.428.767-.727.267-.627.267-.972V7.412c-.061.061-.178.117-.352.17s-.365.093-.585.131l-.642.097-.523.068a4.21 4.21 0 0 0-.903.21c-.269.098-.485.241-.648.426s-.239.424-.239.727c0 .42.155.739.466.955s.706.318 1.188.318zM77.223.049v11.636h-1.699V.049h1.699zm-73.94 30.83c-.553 0-1.053-.102-1.5-.307s-.801-.509-1.062-.903-.386-.877-.386-1.449c0-.492.095-.898.284-1.216s.445-.57.767-.756.682-.326 1.08-.42.803-.167 1.216-.216l1.273-.148c.326-.042.563-.108.71-.199s.222-.239.222-.443v-.04c0-.496-.14-.881-.42-1.153s-.689-.409-1.239-.409c-.572 0-1.023.127-1.352.381s-.551.528-.676.835L.6 24.071c.189-.53.466-.958.83-1.284s.79-.568 1.267-.716.979-.227 1.506-.227c.348 0 .718.042 1.108.125s.761.227 1.102.443.627.525.847.926.33.915.33 1.551v5.795H5.93v-1.193h-.068c-.11.22-.275.436-.494.648s-.502.388-.847.528-.758.21-1.239.21zm.369-1.364c.47 0 .871-.093 1.205-.278s.593-.428.767-.727.267-.627.267-.972v-1.125c-.061.061-.178.118-.352.171s-.366.093-.585.131l-.642.097-.523.068c-.33.042-.631.112-.903.21a1.55 1.55 0 0 0-.648.426c-.159.182-.239.424-.239.727 0 .42.155.739.466.954s.706.318 1.188.318zm7.899-4.011v5.182H9.852v-8.727h1.631v1.42h.108c.201-.462.515-.833.943-1.114s.975-.421 1.631-.421c.595 0 1.115.125 1.563.375s.793.614 1.04 1.102.369 1.093.369 1.813v5.551h-1.699v-5.347c0-.633-.165-1.127-.494-1.483s-.782-.54-1.358-.54c-.394 0-.744.085-1.051.256a1.84 1.84 0 0 0-.722.75c-.174.326-.261.72-.261 1.182zm11.131 5.352c-.704 0-1.333-.18-1.886-.54s-.981-.881-1.295-1.551-.466-1.483-.466-2.426.157-1.75.472-2.421.754-1.184 1.307-1.54 1.18-.534 1.881-.534c.542 0 .977.091 1.307.273s.591.386.773.625.33.449.432.631h.102v-4.324h1.699v11.636h-1.659v-1.358h-.142a4.5 4.5 0 0 1-.443.636c-.189.239-.451.447-.784.625s-.765.267-1.296.267zm.375-1.449c.489 0 .901-.129 1.239-.386s.599-.623.773-1.085.267-1 .267-1.614c0-.606-.087-1.136-.261-1.591s-.43-.809-.767-1.062-.754-.381-1.25-.381c-.511 0-.937.133-1.278.398s-.598.627-.773 1.085-.256.975-.256 1.551c0 .583.087 1.108.261 1.574s.432.835.773 1.108.769.403 1.273.403zm10.744 1.278V19.049h7.216v1.511h-5.46v3.545H40.5v1.506h-4.943v5.074h-1.756zm10.597-11.636l2.784 4.551h.091l2.784-4.551h2.034l-3.625 5.818 3.648 5.818h-2.045l-2.796-4.489h-.091l-2.795 4.489H42.34l3.71-5.818-3.687-5.818h2.034zm13.669 11.636V19.049h7.216v1.511h-5.46v3.545h4.943v1.506h-4.943v5.074h-1.756zm12.359.176c-.86 0-1.6-.184-2.222-.551s-1.095-.892-1.432-1.562-.5-1.464-.5-2.369c0-.894.167-1.682.5-2.364s.807-1.214 1.409-1.597 1.314-.574 2.125-.574c.492 0 .97.081 1.432.244s.877.419 1.244.767.657.801.869 1.358.318 1.225.318 2.017v.602h-6.937V25.56h5.273c0-.447-.091-.843-.273-1.187a2.06 2.06 0 0 0-.767-.824c-.326-.201-.708-.301-1.148-.301-.477 0-.894.117-1.25.352s-.625.534-.818.909-.284.775-.284 1.21v.994c0 .583.102 1.079.307 1.489a2.22 2.22 0 0 0 .869.938c.371.212.805.318 1.301.318.322 0 .615-.046.881-.136s.494-.235.688-.42.341-.415.443-.687l1.608.29c-.129.474-.36.888-.693 1.244s-.744.627-1.244.824-1.062.29-1.699.29zm9.391 0c-.86 0-1.6-.184-2.222-.551a3.74 3.74 0 0 1-1.432-1.562c-.333-.674-.5-1.464-.5-2.369 0-.894.167-1.682.5-2.364s.807-1.214 1.409-1.597 1.314-.574 2.125-.574c.493 0 .97.081 1.432.244s.877.419 1.244.767.657.801.869 1.358.318 1.225.318 2.017v.602h-6.937V25.56h5.273c0-.447-.091-.843-.273-1.187a2.06 2.06 0 0 0-.767-.824c-.326-.201-.708-.301-1.148-.301-.477 0-.894.117-1.25.352s-.625.534-.818.909-.284.775-.284 1.21v.994c0 .583.102 1.079.307 1.489s.498.722.869.938.805.318 1.301.318c.322 0 .616-.046.881-.136s.494-.235.688-.42.341-.415.443-.687l1.608.29a2.91 2.91 0 0 1-.693 1.244c-.329.352-.744.627-1.244.824s-1.062.29-1.699.29zm12.169-6.773l-1.54.273c-.064-.197-.167-.384-.307-.562s-.322-.324-.557-.437-.528-.171-.881-.171c-.481 0-.883.108-1.205.324s-.483.487-.483.824c0 .292.108.526.324.704s.564.324 1.045.438l1.386.318c.803.186 1.401.472 1.795.858s.591.888.591 1.506c0 .523-.151.989-.454 1.398s-.718.723-1.256.955-1.153.347-1.858.347c-.977 0-1.775-.208-2.392-.625s-.996-1.017-1.136-1.79l1.642-.25c.102.428.313.752.631.972s.733.324 1.244.324c.557 0 1.002-.116 1.335-.347s.5-.521.5-.858a.89.89 0 0 0-.307-.687c-.201-.186-.51-.326-.926-.42l-1.477-.324c-.814-.186-1.417-.481-1.807-.886s-.58-.919-.58-1.54c0-.515.144-.966.432-1.352s.686-.687 1.193-.903 1.089-.33 1.744-.33c.943 0 1.686.205 2.227.614s.9.949 1.074 1.631z" fill="#fff"/></svg>