<svg xmlns="http://www.w3.org/2000/svg" width="381" height="23" fill="none"><path d="M.175 18V.545h6.682c1.261 0 2.31.199 3.145.597.841.392 1.469.929 1.883 1.611.421.682.631 1.455.631 2.318 0 .71-.136 1.318-.409 1.824a3.44 3.44 0 0 1-1.099 1.219c-.46.313-.974.537-1.543.673v.17a3.78 3.78 0 0 1 1.781.571 3.96 3.96 0 0 1 1.406 1.449c.364.625.545 1.381.545 2.267 0 .903-.219 1.716-.656 2.438-.437.716-1.097 1.281-1.977 1.696S8.575 18 7.24 18H.175zm3.162-2.642h3.401c1.148 0 1.974-.219 2.48-.656.511-.443.767-1.011.767-1.705a2.61 2.61 0 0 0-.384-1.398c-.256-.42-.619-.75-1.091-.989-.472-.244-1.034-.366-1.687-.366H3.337v5.114zm0-7.389h3.128c.545 0 1.037-.099 1.474-.298.437-.205.781-.491 1.031-.861.256-.375.384-.818.384-1.33 0-.676-.239-1.233-.716-1.67-.472-.437-1.173-.656-2.105-.656H3.337v4.815zm20.819 4.526V4.909h3.085V18h-2.991v-2.327h-.136c-.295.733-.781 1.332-1.457 1.798-.67.466-1.497.699-2.48.699-.858 0-1.616-.19-2.276-.571-.653-.386-1.165-.946-1.534-1.679-.369-.739-.554-1.631-.554-2.676V4.909h3.085v7.858c0 .83.227 1.489.682 1.977s1.051.733 1.79.733a2.83 2.83 0 0 0 1.321-.332c.426-.222.776-.551 1.048-.989.278-.443.418-.997.418-1.662zm8.176 10.415c-.421 0-.81-.034-1.168-.102-.352-.062-.634-.136-.844-.222l.716-2.403c.449.131.849.193 1.202.188s.662-.116.929-.332c.273-.21.503-.562.69-1.057l.264-.707-4.747-13.364h3.273l3.017 9.886h.136l3.026-9.886h3.281l-5.241 14.676c-.244.693-.568 1.287-.972 1.781a3.95 3.95 0 0 1-1.483 1.142c-.579.267-1.273.401-2.079.401zm14.712-7.295l-.111.938c-.079.716-.222 1.443-.426 2.182l-.631 2.054-.537 1.474h-2.08l.324-1.415.409-2.011c.131-.744.219-1.5.264-2.267l.06-.955h2.727zm8.239-12.418V.545h13.926v2.651h-5.395V18h-3.136V3.196h-5.395zM70.398 18V4.909h2.992v2.182h.136c.239-.756.648-1.338 1.227-1.747.585-.415 1.253-.622 2.003-.622l.571.026a3.84 3.84 0 0 1 .537.06v2.838c-.131-.045-.338-.085-.622-.119-.278-.04-.548-.06-.81-.06a3.12 3.12 0 0 0-1.517.366 2.68 2.68 0 0 0-1.048.997c-.256.426-.383.918-.383 1.474V18h-3.085zm13.048.264c-.829 0-1.577-.148-2.242-.443-.659-.301-1.182-.744-1.568-1.33-.381-.585-.571-1.307-.571-2.165 0-.739.136-1.349.409-1.832s.645-.869 1.117-1.159 1.003-.508 1.594-.656c.597-.153 1.213-.264 1.849-.332l1.867-.213c.477-.068.824-.17 1.04-.307.222-.142.332-.361.332-.656v-.051c0-.642-.19-1.139-.571-1.491s-.929-.528-1.645-.528c-.756 0-1.355.165-1.798.494-.437.33-.733.719-.886 1.168l-2.881-.409c.227-.795.602-1.46 1.125-1.994.523-.54 1.162-.943 1.918-1.21.756-.273 1.591-.409 2.506-.409a8.16 8.16 0 0 1 1.883.222 5.3 5.3 0 0 1 1.713.733c.517.335.932.793 1.244 1.372.318.58.477 1.304.477 2.173V18h-2.966v-1.798h-.102c-.187.364-.452.704-.793 1.023-.335.313-.759.565-1.27.759-.506.188-1.1.281-1.781.281zm.801-2.267c.619 0 1.156-.122 1.611-.367a2.71 2.71 0 0 0 1.048-.989c.25-.409.375-.855.375-1.338v-1.543c-.096.079-.261.153-.494.222-.227.068-.483.128-.767.179l-.844.136-.724.102c-.46.063-.872.165-1.236.307s-.651.341-.861.597c-.21.25-.315.574-.315.972 0 .568.207.997.622 1.287s.943.435 1.585.435zm14.071 2.233c-1.028 0-1.949-.264-2.761-.793s-1.454-1.296-1.926-2.301-.707-2.227-.707-3.665c0-1.455.239-2.682.716-3.682.483-1.006 1.133-1.764 1.952-2.276.818-.517 1.73-.776 2.736-.776.767 0 1.398.131 1.892.392.494.256.886.565 1.176.929.29.358.514.696.673 1.014h.128V.545h3.094V18h-3.034v-2.062h-.188c-.159.318-.389.656-.69 1.014-.301.352-.699.653-1.193.903s-1.117.375-1.867.375zm.861-2.531c.653 0 1.21-.176 1.67-.528.461-.358.81-.855 1.049-1.492s.358-1.378.358-2.225-.12-1.582-.358-2.207c-.233-.625-.58-1.111-1.04-1.457s-1.014-.52-1.679-.52c-.687 0-1.261.179-1.722.537s-.807.852-1.04 1.483-.349 1.352-.349 2.165c0 .818.117 1.548.349 2.19.239.636.588 1.139 1.048 1.508.466.364 1.037.546 1.713.546zm15.194 2.557c-1.313 0-2.446-.273-3.401-.818-.949-.551-1.679-1.329-2.19-2.335-.511-1.011-.767-2.202-.767-3.571 0-1.347.256-2.528.767-3.545.517-1.023 1.239-1.818 2.165-2.386.926-.574 2.014-.861 3.264-.861.807 0 1.568.131 2.284.392.722.256 1.358.653 1.909 1.193.557.54.994 1.227 1.313 2.063.318.83.477 1.818.477 2.966v.946h-10.73v-2.079h7.773c-.006-.591-.134-1.117-.384-1.577-.25-.466-.599-.832-1.048-1.099-.443-.267-.961-.401-1.551-.401-.631 0-1.185.153-1.662.46-.478.301-.85.699-1.117 1.193a3.43 3.43 0 0 0-.4 1.611v1.815c0 .761.139 1.415.417 1.96.279.54.668.955 1.168 1.244.5.284 1.085.426 1.755.426a3.73 3.73 0 0 0 1.219-.187 2.7 2.7 0 0 0 .946-.571c.267-.25.469-.56.605-.929l2.881.324c-.182.761-.528 1.426-1.04 1.994-.505.563-1.153 1-1.943 1.313-.79.307-1.693.46-2.71.46zm18.151.008c-.829 0-1.577-.148-2.241-.443-.659-.301-1.182-.744-1.569-1.33-.38-.585-.571-1.307-.571-2.165 0-.739.137-1.349.41-1.832s.644-.869 1.116-1.159 1.003-.508 1.594-.656c.596-.153 1.213-.264 1.849-.332l1.867-.213c.477-.068.824-.17 1.039-.307.222-.142.333-.361.333-.656v-.051c0-.642-.19-1.139-.571-1.491s-.929-.528-1.645-.528c-.756 0-1.355.165-1.798.494-.438.33-.733.719-.887 1.168l-2.88-.409c.227-.795.602-1.46 1.125-1.994a4.89 4.89 0 0 1 1.917-1.21c.756-.273 1.591-.409 2.506-.409.631 0 1.258.074 1.883.222a5.3 5.3 0 0 1 1.713.733c.518.335.932.793 1.245 1.372s.477 1.304.477 2.173V18h-2.966v-1.798h-.102c-.188.364-.452.704-.793 1.023-.335.313-.758.565-1.27.759-.505.188-1.099.281-1.781.281zm.801-2.267c.62 0 1.157-.122 1.611-.367.455-.25.804-.58 1.048-.989.25-.409.375-.855.375-1.338v-1.543c-.096.079-.261.153-.494.222-.227.068-.483.128-.767.179l-.844.136-.724.102c-.46.063-.872.165-1.236.307s-.651.341-.861.597c-.21.25-.315.574-.315.972 0 .568.207.997.622 1.287s.943.435 1.585.435zm12.299-5.668V18h-3.086V4.909h2.949v2.224h.154a3.74 3.74 0 0 1 1.44-1.747c.665-.432 1.486-.648 2.463-.648.903 0 1.69.193 2.361.58s1.199.946 1.568 1.679c.375.733.56 1.622.554 2.668V18h-3.085v-7.858c0-.875-.228-1.56-.682-2.054-.449-.494-1.071-.741-1.867-.741-.539 0-1.019.119-1.44.358-.415.233-.741.571-.98 1.014-.233.443-.349.98-.349 1.611zm16.397 7.901c-1.028 0-1.949-.264-2.761-.793s-1.455-1.296-1.926-2.301-.708-2.227-.708-3.665c0-1.455.239-2.682.716-3.682.483-1.006 1.134-1.764 1.952-2.276.818-.517 1.73-.776 2.736-.776.767 0 1.398.131 1.892.392.494.256.886.565 1.176.929.29.358.514.696.673 1.014h.128V.545h3.094V18h-3.034v-2.062h-.188c-.159.318-.389.656-.69 1.014-.301.352-.699.653-1.193.903s-1.117.375-1.867.375zm.861-2.531c.654 0 1.21-.176 1.671-.528.46-.358.809-.855 1.048-1.492s.358-1.378.358-2.225-.12-1.582-.358-2.207-.58-1.111-1.04-1.457c-.454-.347-1.014-.52-1.679-.52-.687 0-1.261.179-1.721.537s-.807.852-1.04 1.483-.35 1.352-.35 2.165c0 .818.117 1.548.35 2.19.238.636.588 1.139 1.048 1.508.466.364 1.037.546 1.713.546zm27.181-9.58c-.142-.46-.338-.872-.588-1.236-.244-.369-.54-.685-.886-.946s-.733-.457-1.176-.588a4.91 4.91 0 0 0-1.449-.205c-.938 0-1.773.236-2.506.707s-1.31 1.165-1.73 2.08c-.415.909-.622 2.017-.622 3.324 0 1.318.207 2.435.622 3.349s.991 1.611 1.73 2.088c.739.472 1.597.707 2.574.707.886 0 1.653-.171 2.301-.511.654-.341 1.156-.824 1.509-1.449.352-.631.528-1.369.528-2.216l.716.111h-4.739V8.864h7.083v2.097c0 1.494-.318 2.787-.955 3.878s-1.511 1.932-2.625 2.523c-1.113.585-2.392.878-3.835.878-1.608 0-3.02-.361-4.236-1.082-1.21-.727-2.156-1.758-2.838-3.094-.676-1.341-1.014-2.932-1.014-4.773 0-1.409.199-2.668.596-3.776.404-1.108.966-2.048 1.688-2.821a7.18 7.18 0 0 1 2.54-1.773c.971-.409 2.028-.614 3.17-.614.966 0 1.867.142 2.702.426.835.278 1.577.676 2.224 1.193.654.517 1.191 1.131 1.611 1.841s.696 1.494.827 2.352h-3.222zM196.351 18V4.909h2.991v2.182h.137c.238-.756.647-1.338 1.227-1.747.585-.415 1.253-.622 2.003-.622l.571.026a3.84 3.84 0 0 1 .537.06v2.838c-.131-.045-.338-.085-.622-.119a5.74 5.74 0 0 0-.81-.06 3.12 3.12 0 0 0-1.517.366c-.443.239-.793.571-1.048.997s-.384.918-.384 1.474V18h-3.085zm14.687.256c-1.279 0-2.387-.281-3.324-.844s-1.665-1.349-2.182-2.361c-.511-1.011-.767-2.193-.767-3.545s.256-2.537.767-3.554c.517-1.017 1.244-1.807 2.182-2.369s2.045-.844 3.324-.844 2.386.281 3.324.844 1.661 1.352 2.173 2.369.775 2.202.775 3.554-.258 2.534-.775 3.545-1.236 1.798-2.173 2.361-2.046.844-3.324.844zm.017-2.472c.693 0 1.272-.19 1.738-.571.466-.386.813-.903 1.04-1.551.233-.648.35-1.369.35-2.165 0-.801-.117-1.526-.35-2.173-.227-.653-.574-1.173-1.04-1.56s-1.045-.58-1.738-.58c-.711 0-1.301.193-1.773.58-.466.386-.815.906-1.048 1.56-.228.648-.341 1.372-.341 2.173 0 .795.113 1.517.341 2.165s.582 1.165 1.048 1.551c.472.381 1.062.571 1.773.571zM222.256 18l-3.699-13.091h3.145l2.301 9.205h.119l2.352-9.205h3.111l2.353 9.153h.127l2.267-9.153h3.154L233.778 18h-3.213l-2.454-8.847h-.179L225.477 18h-3.221zm25.536 4.909c-.421 0-.81-.034-1.168-.102a4.31 4.31 0 0 1-.843-.222l.715-2.403c.449.131.85.193 1.202.188s.662-.116.929-.332c.273-.21.503-.562.69-1.057l.265-.707-4.747-13.364h3.272l3.017 9.886h.137l3.025-9.886h3.281l-5.241 14.676c-.244.693-.568 1.287-.972 1.781a3.94 3.94 0 0 1-1.483 1.142c-.579.267-1.272.401-2.079.401zm17.175-4.653c-1.278 0-2.386-.281-3.324-.844a5.73 5.73 0 0 1-2.181-2.361c-.512-1.011-.767-2.193-.767-3.545s.255-2.537.767-3.554 1.244-1.807 2.181-2.369 2.046-.844 3.324-.844 2.387.281 3.324.844 1.662 1.352 2.173 2.369c.518 1.017.776 2.202.776 3.554s-.258 2.534-.776 3.545c-.511 1.011-1.235 1.798-2.173 2.361s-2.045.844-3.324.844zm.017-2.472c.694 0 1.273-.19 1.739-.571.466-.386.813-.903 1.04-1.551.233-.648.349-1.369.349-2.165 0-.801-.116-1.526-.349-2.173-.227-.653-.574-1.173-1.04-1.56s-1.045-.58-1.739-.58c-.71 0-1.301.193-1.772.58s-.816.906-1.049 1.56c-.227.648-.341 1.372-.341 2.173 0 .795.114 1.517.341 2.165.233.648.583 1.165 1.049 1.551.471.381 1.062.571 1.772.571zm17.218-3.29V4.909h3.086V18h-2.992v-2.327h-.136c-.296.733-.781 1.332-1.458 1.798-.67.466-1.497.699-2.48.699-.858 0-1.616-.19-2.275-.571-.654-.386-1.165-.946-1.534-1.679-.37-.739-.554-1.631-.554-2.676V4.909h3.085v7.858c0 .83.227 1.489.682 1.977s1.051.733 1.789.733c.455 0 .895-.111 1.322-.332s.775-.551 1.048-.989c.278-.443.417-.997.417-1.662zM288.46 18V4.909h2.992v2.182h.136c.239-.756.648-1.338 1.227-1.747a3.38 3.38 0 0 1 2.003-.622l.571.026a3.84 3.84 0 0 1 .537.06v2.838c-.131-.045-.338-.085-.622-.119a5.72 5.72 0 0 0-.81-.06c-.562 0-1.068.122-1.517.366-.443.239-.792.571-1.048.997s-.384.918-.384 1.474V18h-3.085zM304.065.545h3.87l5.181 12.648h.205L318.503.545h3.869V18h-3.034V6.009h-.162l-4.824 11.94h-2.267l-4.824-11.966h-.162V18h-3.034V.545zm27.324 17.71c-1.278 0-2.386-.281-3.324-.844a5.73 5.73 0 0 1-2.181-2.361c-.512-1.011-.768-2.193-.768-3.545s.256-2.537.768-3.554 1.244-1.807 2.181-2.369 2.046-.844 3.324-.844 2.387.281 3.324.844 1.662 1.352 2.173 2.369c.517 1.017.776 2.202.776 3.554s-.259 2.534-.776 3.545c-.511 1.011-1.235 1.798-2.173 2.361s-2.045.844-3.324.844zm.017-2.472c.693 0 1.273-.19 1.739-.571.466-.386.812-.903 1.04-1.551s.349-1.369.349-2.165c0-.801-.116-1.526-.349-2.173-.228-.653-.574-1.173-1.04-1.56s-1.046-.58-1.739-.58c-.71 0-1.301.193-1.772.58s-.816.906-1.049 1.56c-.227.648-.341 1.372-.341 2.173 0 .795.114 1.517.341 2.165.233.648.583 1.165 1.049 1.551.471.381 1.062.571 1.772.571zm11.96-5.455V18h-3.085V4.909h2.948v2.224h.154a3.74 3.74 0 0 1 1.44-1.747c.665-.432 1.486-.648 2.463-.648.904 0 1.691.193 2.361.58.676.386 1.199.946 1.568 1.679.375.733.56 1.622.554 2.668V18h-3.085v-7.858c0-.875-.227-1.56-.682-2.054-.449-.494-1.071-.741-1.866-.741-.54 0-1.02.119-1.441.358-.414.233-.741.571-.98 1.014-.233.443-.349.98-.349 1.611zm17.335 7.926c-1.313 0-2.446-.273-3.401-.818-.948-.551-1.679-1.329-2.19-2.335-.511-1.011-.767-2.202-.767-3.571 0-1.347.256-2.528.767-3.545.517-1.023 1.239-1.818 2.165-2.386.926-.574 2.014-.861 3.264-.861.807 0 1.568.131 2.284.392.722.256 1.358.653 1.909 1.193.557.54.995 1.227 1.313 2.063.318.83.477 1.818.477 2.966v.946h-10.73v-2.079h7.773c-.006-.591-.134-1.117-.384-1.577-.25-.466-.599-.832-1.048-1.099-.443-.267-.96-.401-1.551-.401-.631 0-1.185.153-1.662.46-.478.301-.85.699-1.117 1.193a3.43 3.43 0 0 0-.4 1.611v1.815c0 .761.139 1.415.417 1.96.279.54.668.955 1.168 1.244.5.284 1.085.426 1.756.426a3.73 3.73 0 0 0 1.218-.187 2.7 2.7 0 0 0 .946-.571c.267-.25.469-.56.605-.929l2.881.324c-.182.761-.528 1.426-1.04 1.994-.505.563-1.153 1-1.943 1.313-.79.307-1.693.46-2.71.46zm9.974 4.653c-.421 0-.81-.034-1.168-.102-.352-.062-.633-.136-.844-.222l.716-2.403c.449.131.85.193 1.202.188s.662-.116.929-.332c.273-.21.503-.562.69-1.057l.264-.707-4.747-13.364h3.273l3.017 9.886h.136l3.026-9.886h3.281l-5.241 14.676c-.245.693-.568 1.287-.972 1.781-.403.5-.898.881-1.483 1.142-.579.267-1.272.401-2.079.401z" fill="#00b15a"/></svg>