<svg xmlns="http://www.w3.org/2000/svg" width="354" height="24" fill="none"><path d="M.371 19V1.545h10.943v2.267h-8.31v5.318h7.739v2.259H3.004v5.344h8.412V19H.371zm18.066.29c-.83 0-1.58-.153-2.25-.46a3.79 3.79 0 0 1-1.594-1.355c-.386-.591-.579-1.315-.579-2.173 0-.739.142-1.347.426-1.824s.668-.855 1.151-1.133 1.023-.489 1.619-.631 1.205-.25 1.824-.324l1.909-.222c.489-.062.844-.162 1.065-.298s.332-.358.332-.665v-.06c0-.744-.21-1.321-.631-1.73-.415-.409-1.034-.614-1.858-.614-.858 0-1.534.19-2.028.571-.489.375-.827.793-1.014 1.253l-2.395-.545c.284-.795.699-1.437 1.244-1.926.551-.494 1.185-.852 1.901-1.074a7.42 7.42 0 0 1 2.259-.341c.523 0 1.077.063 1.662.188.591.119 1.142.341 1.653.665.517.324.94.787 1.27 1.389.329.597.494 1.372.494 2.327V19h-2.489v-1.79h-.102c-.165.33-.412.653-.742.972s-.753.582-1.27.793-1.136.315-1.858.315zm.554-2.046c.704 0 1.307-.139 1.807-.418.506-.278.889-.642 1.151-1.091a2.83 2.83 0 0 0 .401-1.457v-1.687c-.091.091-.267.176-.528.256-.256.074-.548.139-.878.196l-.963.145-.784.102a6.32 6.32 0 0 0-1.355.315c-.403.148-.727.361-.972.639-.239.273-.358.636-.358 1.091 0 .631.233 1.108.699 1.432.466.318 1.06.477 1.781.477zm9.3 1.756V5.909h2.463v2.08h.136c.239-.705.659-1.259 1.261-1.662.608-.409 1.295-.614 2.063-.614l.563.017.52.043V8.21a4.57 4.57 0 0 0-.546-.094c-.261-.04-.523-.06-.784-.06-.602 0-1.139.128-1.611.384a2.85 2.85 0 0 0-1.108 1.048c-.273.443-.409.949-.409 1.517V19h-2.548zm11.759-7.773V19h-2.548V5.909h2.446V8.04h.162a3.74 3.74 0 0 1 1.415-1.67c.648-.42 1.463-.631 2.446-.631.892 0 1.673.188 2.344.563.671.369 1.19.92 1.56 1.653s.554 1.639.554 2.719V19H45.88v-8.02c0-.949-.247-1.69-.742-2.224-.494-.54-1.173-.81-2.037-.81-.591 0-1.116.128-1.577.384-.455.256-.815.631-1.082 1.125-.261.489-.392 1.08-.392 1.773zm26.44 2.344V5.909h2.557V19h-2.506v-2.267h-.136c-.301.699-.784 1.281-1.449 1.747-.659.46-1.48.69-2.463.69-.841 0-1.585-.185-2.233-.554-.642-.375-1.148-.929-1.517-1.662-.364-.733-.545-1.639-.545-2.719V5.909h2.548v8.02c0 .892.247 1.602.742 2.131s1.136.793 1.926.793c.477 0 .952-.119 1.423-.358.477-.239.872-.599 1.185-1.082.318-.483.474-1.097.469-1.841zm5.981 10.338v-18h2.489v2.122h.213a7.12 7.12 0 0 1 .639-.946c.278-.358.665-.67 1.159-.937.494-.273 1.148-.409 1.96-.409 1.057 0 2 .267 2.83.801s1.48 1.304 1.952 2.31c.477 1.006.716 2.216.716 3.631s-.236 2.628-.707 3.639c-.472 1.006-1.119 1.781-1.943 2.327-.824.54-1.764.81-2.821.81-.796 0-1.446-.134-1.952-.401-.5-.267-.892-.579-1.176-.937a7.09 7.09 0 0 1-.656-.954h-.153v6.946h-2.548zm2.497-11.455c0 .921.134 1.727.401 2.421s.653 1.236 1.159 1.628c.506.386 1.125.58 1.858.58.761 0 1.398-.202 1.909-.605.511-.409.898-.963 1.159-1.662.267-.699.401-1.486.401-2.361 0-.864-.131-1.639-.392-2.327-.256-.687-.642-1.23-1.159-1.628-.511-.398-1.151-.597-1.918-.597-.739 0-1.364.19-1.875.571-.506.381-.889.912-1.151 1.594s-.392 1.477-.392 2.386zm24.778-6.545v2.045h-7.15V5.909h7.15zm-5.233-3.136h2.548v12.383c0 .494.074.867.222 1.117.148.244.338.412.571.503a2.29 2.29 0 0 0 .776.128 2.98 2.98 0 0 0 .537-.043l.358-.068.46 2.105c-.148.057-.358.114-.631.171-.273.063-.614.097-1.023.102-.671.011-1.296-.108-1.875-.358s-1.048-.636-1.406-1.159-.537-1.179-.537-1.969V2.773zm13.425 16.491c-1.227 0-2.298-.281-3.213-.844s-1.625-1.349-2.131-2.361-.758-2.193-.758-3.545c0-1.358.253-2.545.758-3.562s1.216-1.807 2.131-2.369 1.986-.844 3.213-.844 2.299.281 3.213.844 1.625 1.352 2.131 2.369.758 2.204.758 3.563c0 1.352-.252 2.534-.758 3.545s-1.216 1.798-2.131 2.361-1.986.844-3.213.844zm.009-2.139c.795 0 1.454-.21 1.977-.631s.909-.98 1.159-1.679c.256-.699.384-1.469.384-2.31 0-.835-.128-1.602-.384-2.301-.25-.704-.636-1.27-1.159-1.696s-1.182-.639-1.977-.639c-.801 0-1.466.213-1.995.639-.522.426-.912.991-1.167 1.696-.25.699-.375 1.466-.375 2.301 0 .841.125 1.611.375 2.31.255.699.645 1.259 1.167 1.679.529.421 1.194.631 1.995.631zm21.332 2.114c-1.267 0-2.392-.213-3.375-.639-.977-.426-1.744-1.008-2.301-1.747a4.1 4.1 0 0 1-.818-2.531c-.006-.733.153-1.406.477-2.02s.761-1.125 1.313-1.534a4.23 4.23 0 0 1 1.858-.793v-.119a3.69 3.69 0 0 1-2.182-1.372c-.551-.722-.824-1.554-.818-2.497-.006-.898.244-1.699.75-2.403s1.198-1.259 2.079-1.662c.881-.409 1.886-.614 3.017-.614 1.119 0 2.117.205 2.992.614.88.403 1.573.957 2.079 1.662.512.705.767 1.506.767 2.403 0 .943-.281 1.776-.844 2.497a3.68 3.68 0 0 1-2.156 1.372v.119a4.11 4.11 0 0 1 1.841.793c.551.409.989.921 1.313 1.534.329.614.494 1.287.494 2.02 0 .943-.278 1.787-.835 2.531-.557.739-1.324 1.321-2.301 1.747-.972.426-2.089.639-3.35.639zm0-2.437c.654 0 1.222-.111 1.705-.332.483-.227.858-.546 1.125-.955s.403-.881.409-1.415a2.65 2.65 0 0 0-.435-1.474c-.278-.432-.662-.77-1.15-1.014s-1.035-.366-1.654-.366c-.625 0-1.182.122-1.67.366s-.875.582-1.159 1.014c-.279.426-.415.918-.41 1.474-.005.534.125 1.006.393 1.415.267.403.642.719 1.125.946s1.062.341 1.721.341zm0-7.952c.534 0 1.006-.108 1.415-.324.415-.216.741-.517.98-.903a2.54 2.54 0 0 0 .366-1.338c-.005-.5-.125-.937-.357-1.312a2.31 2.31 0 0 0-.972-.878c-.415-.21-.892-.315-1.432-.315-.551 0-1.037.105-1.457.315a2.31 2.31 0 0 0-.972.878c-.227.375-.338.813-.332 1.313-.006.506.108.952.341 1.338.238.381.565.682.98.903.42.216.9.324 1.44.324zm18.62 6.878v-.92c0-.676.142-1.298.426-1.867a3.45 3.45 0 0 1 1.262-1.372c.551-.347 1.218-.52 2.002-.52.807 0 1.483.173 2.029.52.545.341.957.795 1.236 1.364s.426 1.193.426 1.875v.92c0 .676-.142 1.298-.426 1.867s-.702 1.025-1.253 1.372-1.216.52-2.012.52-1.468-.173-2.019-.52a3.38 3.38 0 0 1-1.253-1.372c-.279-.568-.418-1.19-.418-1.867zm2.225-.92v.92a2.44 2.44 0 0 0 .323 1.236c.216.375.597.563 1.142.563.552 0 .929-.185 1.134-.554.21-.375.315-.79.315-1.244v-.92c0-.455-.099-.869-.298-1.244-.199-.381-.582-.571-1.151-.571-.534 0-.911.19-1.133.571-.222.375-.332.79-.332 1.244zm-11.097-9.068v-.92c0-.682.145-1.307.435-1.875a3.38 3.38 0 0 1 1.261-1.364c.551-.347 1.219-.52 2.003-.52.801 0 1.474.173 2.02.52.551.341.966.795 1.244 1.364s.418 1.193.418 1.875v.92c0 .682-.142 1.307-.426 1.875-.279.563-.694 1.014-1.245 1.355s-1.221.511-2.011.511c-.801 0-1.477-.17-2.029-.511-.545-.341-.96-.795-1.244-1.364s-.426-1.19-.426-1.866zm2.241-.92v.92c0 .455.106.869.316 1.244.216.369.596.554 1.142.554s.92-.185 1.125-.554c.21-.375.315-.79.315-1.244v-.92c0-.455-.099-.869-.298-1.244-.199-.381-.58-.571-1.142-.571-.54 0-.918.19-1.134.571a2.48 2.48 0 0 0-.324 1.244zM139.999 19l12-17.455h2.13l-12 17.455h-2.13zm28.169 0l-3.852-13.091h2.634l2.565 9.614h.128l2.574-9.614h2.633l2.557 9.571h.128l2.548-9.571h2.634L178.873 19h-2.6l-2.659-9.452h-.196L170.759 19h-2.591zm16.967 0V5.909h2.548V19h-2.548zm1.287-15.111a1.62 1.62 0 0 1-1.142-.443c-.313-.301-.469-.659-.469-1.074a1.42 1.42 0 0 1 .469-1.074c.318-.301.699-.452 1.142-.452a1.57 1.57 0 0 1 1.133.452 1.41 1.41 0 0 1 .478 1.074c0 .415-.159.773-.478 1.074-.312.295-.69.443-1.133.443zm10.8 2.02v2.045h-7.15V5.909h7.15zm-5.233-3.136h2.549v12.383c0 .494.074.867.221 1.117.148.244.338.412.571.503.239.085.497.128.776.128a2.99 2.99 0 0 0 .537-.043l.358-.068.46 2.105a4.29 4.29 0 0 1-.631.171 4.98 4.98 0 0 1-1.022.102c-.671.011-1.296-.108-1.875-.358s-1.049-.636-1.407-1.159-.537-1.179-.537-1.969V2.773zm10.882 8.455V19h-2.549V1.545h2.515V8.04h.162c.306-.705.775-1.264 1.406-1.679s1.454-.622 2.471-.622c.898 0 1.682.185 2.353.554s1.199.92 1.568 1.653c.375.727.562 1.636.562 2.727V19h-2.548v-8.02c0-.96-.247-1.705-.741-2.233-.495-.534-1.182-.801-2.063-.801-.602 0-1.142.128-1.619.384s-.844.631-1.117 1.125c-.267.489-.4 1.08-.4 1.773zm32.942-4.006h-2.659a4.05 4.05 0 0 0-.571-1.5 4.18 4.18 0 0 0-1.023-1.099 4.4 4.4 0 0 0-1.355-.682c-.494-.153-1.02-.23-1.576-.23-1.006 0-1.907.253-2.702.759-.79.506-1.415 1.247-1.875 2.224-.455.977-.682 2.17-.682 3.58 0 1.42.227 2.619.682 3.597.46.977 1.088 1.716 1.883 2.216s1.691.75 2.685.75c.551 0 1.074-.074 1.568-.222a4.51 4.51 0 0 0 1.355-.673 4.11 4.11 0 0 0 1.023-1.082c.284-.432.48-.926.588-1.483l2.659.008a7.12 7.12 0 0 1-.826 2.369c-.404.716-.924 1.335-1.56 1.858-.631.517-1.352.918-2.165 1.202s-1.699.426-2.659.426c-1.511 0-2.858-.358-4.04-1.074-1.182-.722-2.113-1.753-2.795-3.094-.676-1.341-1.014-2.94-1.014-4.798 0-1.864.34-3.463 1.022-4.798.682-1.341 1.614-2.369 2.796-3.085 1.182-.722 2.525-1.082 4.031-1.082.926 0 1.79.134 2.591.401.807.261 1.531.648 2.173 1.159.642.506 1.173 1.125 1.594 1.858.42.727.704 1.56.852 2.497zM238.76 19V5.909h2.463v2.08h.136c.239-.705.659-1.259 1.262-1.662.608-.409 1.295-.614 2.062-.614l.563.017.52.043V8.21c-.103-.028-.284-.06-.546-.094-.261-.04-.523-.06-.784-.06-.602 0-1.139.128-1.611.384a2.85 2.85 0 0 0-1.108 1.048c-.272.443-.409.949-.409 1.517V19h-2.548zm11.22 4.909a5.32 5.32 0 0 1-1.04-.094c-.312-.057-.545-.119-.699-.187l.614-2.088c.466.125.881.179 1.244.162s.685-.153.963-.409c.285-.256.535-.673.75-1.253l.316-.869-4.79-13.261h2.727l3.316 10.159h.136l3.315-10.159h2.736l-5.395 14.838c-.25.682-.568 1.259-.954 1.73-.387.477-.847.835-1.381 1.074s-1.153.358-1.858.358zm11.983 0v-18h2.489v2.122h.213c.148-.273.361-.588.639-.946s.665-.67 1.159-.937c.494-.273 1.148-.409 1.96-.409 1.057 0 2 .267 2.83.801s1.48 1.304 1.952 2.31c.477 1.006.715 2.216.715 3.631s-.235 2.628-.707 3.639c-.472 1.006-1.119 1.781-1.943 2.327-.824.54-1.764.81-2.821.81-.796 0-1.446-.134-1.952-.401-.5-.267-.892-.579-1.176-.937s-.503-.676-.656-.954h-.154v6.946h-2.548zm2.497-11.455c0 .921.134 1.727.401 2.421s.653 1.236 1.159 1.628c.506.386 1.125.58 1.858.58.761 0 1.398-.202 1.909-.605.511-.409.898-.963 1.159-1.662.267-.699.401-1.486.401-2.361 0-.864-.131-1.639-.392-2.327-.256-.687-.642-1.23-1.16-1.628-.511-.398-1.15-.597-1.917-.597-.739 0-1.364.19-1.875.571-.506.381-.889.912-1.151 1.594s-.392 1.477-.392 2.386zm18.426-6.545v2.045h-7.15V5.909h7.15zm-5.233-3.136h2.549v12.383c0 .494.074.867.221 1.117.148.244.338.412.571.503.239.085.497.128.776.128a2.99 2.99 0 0 0 .537-.043l.358-.068.46 2.105a4.29 4.29 0 0 1-.631.171 4.98 4.98 0 0 1-1.022.102c-.671.011-1.296-.108-1.875-.358s-1.049-.636-1.407-1.159-.537-1.179-.537-1.969V2.773zm13.426 16.491c-1.227 0-2.298-.281-3.213-.844s-1.625-1.349-2.131-2.361-.758-2.193-.758-3.545c0-1.358.252-2.545.758-3.562s1.216-1.807 2.131-2.369 1.986-.844 3.213-.844 2.298.281 3.213.844 1.625 1.352 2.131 2.369.758 2.204.758 3.563c0 1.352-.253 2.534-.758 3.545s-1.216 1.798-2.131 2.361-1.986.844-3.213.844zm.008-2.139c.796 0 1.455-.21 1.978-.631s.909-.98 1.159-1.679.383-1.469.383-2.31c0-.835-.128-1.602-.383-2.301-.25-.704-.637-1.27-1.159-1.696s-1.182-.639-1.978-.639-1.466.213-1.994.639-.912.991-1.168 1.696c-.25.699-.375 1.466-.375 2.301 0 .841.125 1.611.375 2.31.256.699.645 1.259 1.168 1.679s1.193.631 1.994.631zM300.23 19V1.545h2.548v6.486h.154c.148-.273.361-.588.639-.946s.665-.67 1.159-.937c.494-.273 1.148-.409 1.96-.409 1.057 0 2 .267 2.83.801s1.48 1.304 1.952 2.31c.477 1.006.716 2.216.716 3.631s-.236 2.628-.708 3.639c-.471 1.006-1.119 1.781-1.943 2.327-.824.54-1.764.81-2.821.81-.796 0-1.446-.134-1.952-.401-.5-.267-.892-.579-1.176-.937s-.503-.676-.656-.954h-.213V19h-2.489zm2.497-6.546c0 .921.134 1.727.401 2.421s.653 1.236 1.159 1.628c.506.386 1.125.58 1.858.58.761 0 1.398-.202 1.909-.605.511-.409.898-.963 1.159-1.662.267-.699.401-1.486.401-2.361 0-.864-.131-1.639-.392-2.327-.256-.687-.642-1.23-1.16-1.628-.511-.398-1.15-.597-1.917-.597-.739 0-1.364.19-1.875.571-.506.381-.889.912-1.151 1.594s-.392 1.477-.392 2.386zm16.132 6.835c-.83 0-1.58-.153-2.25-.46-.671-.312-1.202-.764-1.594-1.355-.386-.591-.58-1.315-.58-2.173 0-.739.142-1.347.427-1.824a3.14 3.14 0 0 1 1.15-1.133 6.01 6.01 0 0 1 1.619-.631c.597-.142 1.205-.25 1.824-.324l1.909-.222c.489-.062.844-.162 1.066-.298s.332-.358.332-.665v-.06c0-.744-.21-1.321-.631-1.73-.414-.409-1.034-.614-1.858-.614-.858 0-1.534.19-2.028.571-.489.375-.827.793-1.014 1.253l-2.395-.545c.284-.795.699-1.437 1.244-1.926.551-.494 1.185-.852 1.901-1.074a7.42 7.42 0 0 1 2.258-.341c.523 0 1.077.063 1.662.188a4.87 4.87 0 0 1 1.654.665c.517.324.94.787 1.27 1.389.329.597.494 1.372.494 2.327V19h-2.489v-1.79h-.102c-.165.33-.412.653-.741.972s-.753.582-1.27.793-1.137.315-1.858.315zm.554-2.046c.704 0 1.306-.139 1.806-.418.506-.278.89-.642 1.151-1.091a2.83 2.83 0 0 0 .401-1.457v-1.687c-.091.091-.267.176-.529.256-.255.074-.548.139-.878.196l-.963.145-.784.102a6.32 6.32 0 0 0-1.355.315c-.403.148-.727.361-.972.639-.238.273-.357.636-.357 1.091 0 .631.232 1.108.698 1.432.466.318 1.06.477 1.782.477zm14.814 2.02c-1.267 0-2.358-.287-3.272-.861-.91-.58-1.608-1.378-2.097-2.395s-.733-2.182-.733-3.494c0-1.33.25-2.503.75-3.52.5-1.023 1.205-1.821 2.114-2.395s1.98-.861 3.213-.861c.994 0 1.88.185 2.659.554.778.364 1.406.875 1.883 1.534.483.659.77 1.429.861 2.31h-2.48c-.136-.614-.449-1.142-.937-1.585s-1.131-.665-1.944-.665c-.71 0-1.332.188-1.866.563-.529.369-.94.898-1.236 1.585-.295.682-.443 1.489-.443 2.42 0 .955.145 1.779.435 2.472s.698 1.23 1.227 1.611 1.162.571 1.883.571a3.17 3.17 0 0 0 1.313-.264 2.68 2.68 0 0 0 .997-.776c.273-.335.463-.739.571-1.21h2.48c-.091.846-.366 1.602-.827 2.267s-1.076 1.188-1.849 1.568c-.767.381-1.668.571-2.702.571zm10.447-4.704l-.017-3.111h.443l5.216-5.54h3.051l-5.949 6.307h-.4l-2.344 2.344zM342.33 19V1.545h2.549V19h-2.549zm8.267 0l-4.687-6.222 1.755-1.781 6.06 8.003h-3.128z" fill="#fff"/></svg>