<svg xmlns="http://www.w3.org/2000/svg" width="128" height="20" fill="none"><path d="M5.848 19L.922 1.545h3.401l3.145 12.827h.162l3.358-12.827h3.094l3.366 12.835h.154l3.145-12.835h3.401L19.22 19h-3.119L12.607 6.753h-.136L8.967 19H5.848zm20.354 0V5.909h3.085V19h-3.085zm1.551-14.949a1.8 1.8 0 0 1-1.261-.486c-.352-.33-.528-.724-.528-1.185 0-.466.176-.861.528-1.185a1.78 1.78 0 0 1 1.261-.494c.494 0 .915.165 1.261.494.352.324.528.719.528 1.185 0 .46-.176.855-.528 1.185a1.78 1.78 0 0 1-1.261.486zM32.46 19V5.909h2.992v2.182h.136c.239-.756.648-1.338 1.227-1.747.585-.415 1.253-.622 2.003-.622l.571.026a3.84 3.84 0 0 1 .537.06v2.838c-.131-.045-.338-.085-.622-.119-.278-.04-.548-.06-.81-.06a3.12 3.12 0 0 0-1.517.366 2.68 2.68 0 0 0-1.048.997c-.256.426-.384.918-.384 1.474V19H32.46zm14.772.256c-1.312 0-2.446-.273-3.401-.818a5.54 5.54 0 0 1-2.19-2.335c-.511-1.011-.767-2.202-.767-3.571 0-1.347.256-2.528.767-3.545.517-1.023 1.239-1.818 2.165-2.386.926-.574 2.014-.861 3.264-.861.807 0 1.568.131 2.284.392a5.16 5.16 0 0 1 1.909 1.193c.557.54.994 1.227 1.313 2.063.318.83.477 1.818.477 2.966v.946h-10.73v-2.079h7.773c-.006-.591-.133-1.117-.383-1.577a2.79 2.79 0 0 0-1.048-1.099c-.443-.267-.96-.401-1.551-.401-.631 0-1.185.153-1.662.46a3.17 3.17 0 0 0-1.117 1.193c-.261.489-.395 1.026-.401 1.611v1.815c0 .761.139 1.415.418 1.96.278.54.668.955 1.168 1.244.5.284 1.085.426 1.756.426.449 0 .855-.062 1.219-.187.364-.131.679-.321.946-.571s.469-.56.605-.929l2.881.324a4.49 4.49 0 0 1-1.04 1.994c-.506.563-1.154 1-1.943 1.313-.79.307-1.693.46-2.71.46zM57.905 5.909l2.642 4.832 2.685-4.832h3.264l-3.946 6.545L66.564 19h-3.247l-2.77-4.713L57.803 19H54.53l3.989-6.546-3.886-6.545h3.273zm32.007 1.526h-3.187c-.091-.523-.258-.986-.503-1.389-.244-.409-.548-.756-.912-1.04a3.8 3.8 0 0 0-1.244-.639c-.46-.148-.957-.222-1.491-.222-.949 0-1.79.239-2.523.716-.733.472-1.307 1.165-1.722 2.08-.415.909-.622 2.02-.622 3.332 0 1.335.207 2.46.622 3.375.421.909.994 1.597 1.722 2.063.733.46 1.571.69 2.514.69.523 0 1.011-.068 1.466-.205a4.01 4.01 0 0 0 1.236-.622c.369-.273.679-.608.929-1.006.256-.398.432-.852.528-1.364l3.188.017c-.119.829-.378 1.608-.776 2.335-.392.727-.906 1.369-1.543 1.926-.636.551-1.381.983-2.233 1.295-.852.307-1.798.46-2.838.46-1.534 0-2.903-.355-4.108-1.065s-2.153-1.736-2.847-3.077-1.04-2.949-1.04-4.824c0-1.881.349-3.489 1.048-4.824.699-1.341 1.651-2.366 2.855-3.077S81 1.307 82.523 1.307c.972 0 1.875.136 2.71.409s1.579.673 2.233 1.202c.653.523 1.19 1.165 1.611 1.926.426.756.705 1.619.835 2.591zm6.526 11.83c-.829 0-1.577-.148-2.241-.443-.659-.301-1.182-.744-1.568-1.33-.381-.585-.571-1.307-.571-2.165 0-.739.136-1.349.409-1.832s.645-.869 1.117-1.159 1.003-.508 1.594-.656c.597-.153 1.213-.264 1.85-.332l1.866-.213c.477-.068.824-.17 1.04-.307.221-.142.332-.361.332-.656v-.051c0-.642-.19-1.139-.571-1.491s-.929-.528-1.645-.528c-.756 0-1.355.165-1.798.494-.437.33-.733.719-.886 1.168l-2.881-.409c.227-.795.602-1.46 1.125-1.994.523-.54 1.162-.943 1.918-1.21.756-.273 1.591-.409 2.506-.409.631 0 1.258.074 1.883.222s1.197.392 1.714.733c.517.335.931.793 1.244 1.372s.477 1.304.477 2.173V19h-2.966v-1.798h-.102c-.188.364-.452.704-.793 1.023-.335.313-.758.565-1.27.759-.506.188-1.099.281-1.781.281zm.801-2.267c.619 0 1.156-.122 1.611-.366.455-.25.804-.58 1.048-.989a2.52 2.52 0 0 0 .375-1.338v-1.543c-.096.079-.261.153-.494.222-.227.068-.483.128-.767.179l-.844.136-.724.102c-.46.063-.872.165-1.236.307s-.651.341-.861.597c-.21.25-.315.574-.315.972 0 .568.207.997.622 1.287s.943.435 1.585.435zM106.452 19V5.909h2.992v2.182h.136c.239-.756.648-1.338 1.228-1.747.585-.415 1.252-.622 2.002-.622l.571.026a3.84 3.84 0 0 1 .537.06v2.838c-.13-.045-.338-.085-.622-.119-.278-.04-.548-.06-.809-.06-.563 0-1.069.122-1.518.366-.443.239-.792.571-1.048.997s-.383.918-.383 1.474V19h-3.086zm13.835.23c-1.028 0-1.949-.264-2.761-.793s-1.455-1.296-1.927-2.301-.707-2.227-.707-3.665c0-1.455.239-2.682.716-3.682.483-1.006 1.133-1.764 1.952-2.276.818-.517 1.73-.776 2.735-.776.768 0 1.398.131 1.893.392.494.256.886.565 1.176.929.289.358.514.696.673 1.014h.128V1.545h3.094V19h-3.035v-2.062h-.187c-.159.318-.389.656-.69 1.014-.302.352-.699.653-1.194.903s-1.116.375-1.866.375zm.861-2.531c.653 0 1.21-.176 1.67-.528.46-.358.81-.855 1.048-1.492s.358-1.378.358-2.225-.119-1.582-.358-2.207c-.232-.625-.579-1.111-1.039-1.457-.455-.347-1.014-.52-1.679-.52-.688 0-1.262.179-1.722.537s-.807.852-1.04 1.483-.349 1.352-.349 2.165c0 .818.116 1.548.349 2.19.239.636.588 1.139 1.049 1.509.466.364 1.037.545 1.713.545z" fill="#00b15a"/></svg>