<svg xmlns="http://www.w3.org/2000/svg" width="76" height="31" fill="none"><path d="M4.646 11.685H.879V.049h3.886c1.14 0 2.119.233 2.938.699s1.445 1.127 1.881 1.994.659 1.9.659 3.108-.222 2.254-.665 3.125-1.076 1.542-1.909 2.011-1.841.699-3.023.699zm-2.011-1.534h1.915c.886 0 1.623-.167 2.21-.5a3.15 3.15 0 0 0 1.318-1.46c.292-.64.438-1.42.438-2.341 0-.913-.146-1.687-.437-2.324a3.09 3.09 0 0 0-1.29-1.449c-.572-.33-1.282-.494-2.131-.494H2.634v8.568zm13.416 1.71c-.86 0-1.6-.184-2.222-.551s-1.095-.892-1.432-1.562-.5-1.464-.5-2.369c0-.894.167-1.682.5-2.364s.807-1.214 1.409-1.597 1.314-.574 2.125-.574c.492 0 .97.081 1.432.244s.877.419 1.244.767.657.801.869 1.358.318 1.225.318 2.017v.602h-6.937V6.56h5.273c0-.447-.091-.843-.273-1.187a2.06 2.06 0 0 0-.767-.824c-.326-.201-.708-.301-1.148-.301-.477 0-.894.117-1.25.352s-.625.534-.818.909-.284.775-.284 1.21v.994c0 .583.102 1.08.307 1.489s.498.722.869.937.805.318 1.301.318c.322 0 .616-.045.881-.136s.494-.235.688-.42.341-.415.443-.687l1.608.29a2.91 2.91 0 0 1-.693 1.244c-.329.352-.744.627-1.244.824s-1.062.29-1.699.29zm8.169.017c-.553 0-1.053-.102-1.5-.307s-.801-.51-1.062-.903-.386-.877-.386-1.449c0-.492.095-.898.284-1.216s.445-.57.767-.756.682-.326 1.08-.42.803-.167 1.216-.216l1.273-.148c.326-.042.563-.108.71-.199s.222-.239.222-.443v-.04c0-.496-.14-.881-.42-1.153s-.689-.409-1.239-.409c-.572 0-1.023.127-1.352.381s-.551.528-.676.835l-1.597-.364c.189-.53.466-.958.83-1.284s.79-.568 1.267-.716.979-.227 1.506-.227c.349 0 .718.042 1.108.125s.761.227 1.102.443.627.525.847.926.33.915.33 1.551v5.795h-1.659v-1.193h-.068c-.11.22-.275.436-.494.648s-.502.388-.847.528-.758.21-1.239.21zm.369-1.364c.47 0 .871-.093 1.205-.278a1.95 1.95 0 0 0 .767-.727c.178-.303.267-.627.267-.972V7.412c-.061.061-.178.117-.352.17s-.366.093-.585.131l-.642.097-.523.068c-.329.042-.631.112-.903.21s-.485.241-.648.426-.239.424-.239.727c0 .42.155.739.466.955s.706.318 1.188.318zM32.488.049v11.636h-1.699V.049h1.699zm8.825 5.04l-1.54.273c-.064-.197-.167-.384-.307-.562s-.322-.324-.557-.437-.528-.17-.881-.17c-.481 0-.883.108-1.204.324s-.483.487-.483.824c0 .292.108.527.324.705s.564.324 1.045.438l1.386.318c.803.186 1.402.472 1.796.858s.591.888.591 1.506c0 .523-.152.989-.455 1.398s-.718.723-1.256.954-1.153.347-1.858.347c-.977 0-1.775-.208-2.392-.625s-.996-1.017-1.136-1.79l1.642-.25c.102.428.313.752.631.972s.733.324 1.244.324c.557 0 1.002-.115 1.335-.347s.5-.521.5-.858a.89.89 0 0 0-.307-.687c-.201-.186-.509-.326-.926-.42l-1.477-.324c-.814-.186-1.417-.481-1.807-.886s-.579-.919-.579-1.54a2.2 2.2 0 0 1 .432-1.352c.288-.386.686-.687 1.193-.903s1.089-.33 1.744-.33c.943 0 1.686.205 2.227.614s.9.949 1.074 1.631zm8.813 6.79c-.553 0-1.053-.102-1.5-.307s-.801-.51-1.062-.903-.386-.877-.386-1.449c0-.492.095-.898.284-1.216s.445-.57.767-.756.682-.326 1.079-.42a10.74 10.74 0 0 1 1.216-.216l1.273-.148c.326-.042.563-.108.71-.199s.222-.239.222-.443v-.04c0-.496-.14-.881-.421-1.153s-.689-.409-1.239-.409c-.572 0-1.023.127-1.352.381s-.551.528-.676.835l-1.597-.364c.189-.53.466-.958.83-1.284s.79-.568 1.267-.716.979-.227 1.506-.227c.348 0 .718.042 1.108.125s.761.227 1.102.443.627.525.847.926.329.915.329 1.551v5.795h-1.659v-1.193h-.068c-.11.22-.275.436-.494.648s-.502.388-.847.528-.758.21-1.239.21zm.369-1.364c.47 0 .871-.093 1.205-.278s.593-.428.767-.727.267-.627.267-.972V7.412c-.061.061-.178.117-.352.17a5.48 5.48 0 0 1-.585.131l-.642.097-.523.068a4.21 4.21 0 0 0-.903.21 1.55 1.55 0 0 0-.648.426c-.159.182-.239.424-.239.727 0 .42.155.739.466.955s.707.318 1.188.318zm7.899-4.011v5.182h-1.699V2.958h1.631v1.42h.108c.201-.462.515-.833.943-1.114s.975-.42 1.631-.42c.595 0 1.115.125 1.563.375s.794.614 1.04 1.102.369 1.093.369 1.813v5.551h-1.699V6.338c0-.633-.165-1.127-.494-1.483s-.782-.54-1.358-.54c-.394 0-.744.085-1.051.256a1.84 1.84 0 0 0-.722.75c-.174.326-.261.72-.261 1.182zm11.131 5.352c-.705 0-1.333-.18-1.886-.54s-.981-.881-1.296-1.551-.466-1.483-.466-2.426.157-1.75.472-2.42.754-1.184 1.307-1.54 1.18-.534 1.881-.534c.542 0 .977.091 1.307.273s.591.386.773.625.329.449.432.631h.102V.049h1.699v11.636H72.19v-1.358h-.142c-.102.186-.25.398-.443.636s-.451.447-.784.625-.765.267-1.295.267zm.375-1.449c.489 0 .901-.129 1.239-.386s.599-.623.773-1.085.267-1 .267-1.614c0-.606-.087-1.136-.261-1.591s-.43-.809-.767-1.062-.754-.381-1.25-.381c-.511 0-.937.133-1.278.398s-.598.627-.773 1.085-.256.975-.256 1.551c0 .583.087 1.108.261 1.574s.432.835.773 1.108.769.403 1.273.403zM4.646 30.685H.879V19.049h3.886c1.14 0 2.119.233 2.938.699s1.445 1.127 1.881 1.994.659 1.9.659 3.108-.222 2.254-.665 3.125-1.076 1.542-1.909 2.011-1.841.699-3.023.699zm-2.011-1.534h1.915c.886 0 1.623-.167 2.21-.5a3.15 3.15 0 0 0 1.318-1.46c.292-.64.438-1.421.438-2.341 0-.913-.146-1.687-.437-2.324a3.09 3.09 0 0 0-1.29-1.449c-.572-.33-1.282-.494-2.131-.494H2.634v8.568zm9.655 1.534v-8.727h1.699v8.727h-1.699zm.858-10.074a1.08 1.08 0 0 1-.761-.295.96.96 0 0 1-.312-.716c0-.28.104-.519.313-.716a1.07 1.07 0 0 1 .761-.301 1.05 1.05 0 0 1 .756.301.94.94 0 0 1 .318.716c0 .277-.106.515-.318.716a1.06 1.06 0 0 1-.756.295zm9.666 3.477l-1.54.273c-.064-.197-.167-.384-.307-.562s-.322-.324-.557-.437-.528-.17-.881-.17c-.481 0-.883.108-1.204.324s-.483.487-.483.824c0 .292.108.526.324.705s.564.324 1.045.438l1.386.318c.803.186 1.401.472 1.796.858s.591.888.591 1.506c0 .523-.152.989-.455 1.398s-.718.724-1.256.955-1.153.347-1.858.347c-.977 0-1.775-.208-2.392-.625s-.996-1.017-1.136-1.79l1.642-.25c.102.428.313.752.631.972s.733.324 1.244.324c.557 0 1.002-.116 1.335-.347s.5-.521.5-.858a.89.89 0 0 0-.307-.687c-.201-.186-.509-.326-.926-.42l-1.477-.324c-.814-.186-1.417-.481-1.807-.886s-.579-.919-.579-1.54a2.2 2.2 0 0 1 .432-1.352c.288-.386.686-.687 1.193-.903s1.089-.329 1.744-.329c.943 0 1.686.204 2.227.614s.9.949 1.074 1.631zm5.714 6.773c-.845 0-1.572-.191-2.182-.574s-1.072-.919-1.398-1.597-.489-1.455-.489-2.33c0-.886.167-1.669.5-2.347s.803-1.214 1.409-1.597 1.32-.574 2.142-.574c.663 0 1.254.123 1.773.369a3.18 3.18 0 0 1 1.256 1.023 3.09 3.09 0 0 1 .574 1.54H30.46a1.98 1.98 0 0 0-.625-1.057c-.322-.296-.754-.443-1.295-.443a2.11 2.11 0 0 0-1.244.375c-.352.246-.627.599-.824 1.057s-.296.992-.296 1.614c0 .636.097 1.186.29 1.648s.466.82.818 1.074.775.381 1.256.381c.322 0 .614-.059.875-.176s.487-.294.665-.517.309-.492.381-.807h1.653c-.061.564-.244 1.068-.551 1.511a3.17 3.17 0 0 1-1.233 1.046c-.511.254-1.112.381-1.801.381zm9.078 0c-.818 0-1.532-.187-2.142-.562s-1.083-.9-1.42-1.574-.506-1.462-.506-2.364.169-1.697.506-2.375.811-1.204 1.42-1.579 1.324-.562 2.142-.562 1.532.188 2.142.563 1.083.901 1.42 1.579.506 1.47.506 2.375-.169 1.689-.506 2.364-.811 1.199-1.42 1.574-1.324.563-2.142.563zm.006-1.426c.53 0 .97-.14 1.318-.42s.606-.653.773-1.119a4.45 4.45 0 0 0 .256-1.54c0-.557-.085-1.068-.256-1.534s-.424-.847-.773-1.131-.788-.426-1.318-.426-.977.142-1.329.426-.608.661-.778 1.131-.25.977-.25 1.534.083 1.074.25 1.54.43.839.778 1.119.795.42 1.329.42zm11.487-2.369v-5.108h1.705v8.727h-1.67v-1.511h-.091c-.201.466-.523.854-.966 1.165s-.987.46-1.642.46c-.561 0-1.057-.123-1.489-.369s-.765-.619-1.011-1.108-.364-1.093-.364-1.812v-5.551h1.699v5.347c0 .595.165 1.068.494 1.42s.758.528 1.284.528c.318 0 .634-.08.949-.239s.581-.4.79-.722.316-.731.313-1.227zm5.686-1.562v5.182h-1.699v-8.727h1.631v1.421h.108c.201-.462.515-.833.943-1.114s.975-.42 1.631-.42c.595 0 1.116.125 1.563.375s.794.614 1.04 1.102.369 1.093.369 1.813v5.551h-1.699v-5.347c0-.633-.165-1.127-.494-1.483s-.782-.54-1.358-.54c-.394 0-.744.085-1.051.256s-.544.42-.722.75-.261.72-.261 1.182zm11.938-3.546v1.364h-4.767v-1.364h4.767zm-3.489-2.091h1.699v8.256c0 .33.049.578.148.744a.77.77 0 0 0 .381.335c.159.057.331.085.517.085a1.99 1.99 0 0 0 .358-.028l.239-.046.307 1.403c-.099.038-.239.076-.421.114s-.409.064-.682.068a2.99 2.99 0 0 1-1.25-.239c-.386-.167-.699-.424-.938-.773s-.358-.786-.358-1.312v-8.608zm11.767 4.222l-1.54.273c-.064-.197-.167-.384-.307-.562s-.322-.324-.557-.437-.528-.17-.881-.17c-.481 0-.883.108-1.205.324s-.483.487-.483.824c0 .292.108.526.324.705s.564.324 1.045.438l1.386.318c.803.186 1.401.472 1.796.858s.591.888.591 1.506c0 .523-.152.989-.455 1.398s-.718.724-1.256.955-1.153.347-1.858.347c-.977 0-1.775-.208-2.392-.625s-.996-1.017-1.136-1.79l1.642-.25c.102.428.313.752.631.972s.733.324 1.244.324c.557 0 1.002-.116 1.335-.347s.5-.521.5-.858a.89.89 0 0 0-.307-.687c-.201-.186-.509-.326-.926-.42l-1.477-.324c-.814-.186-1.417-.481-1.807-.886s-.579-.919-.579-1.54a2.2 2.2 0 0 1 .432-1.352c.288-.386.686-.687 1.193-.903s1.089-.329 1.744-.329c.943 0 1.686.204 2.227.614s.9.949 1.074 1.631z" fill="#fff"/></svg>